<?xml version="1.0" encoding="utf-8"?>
<!-- Generator: Adobe Illustrator 21.1.0, SVG Export Plug-In . SVG Version: 6.00 Build 0)  -->
<svg version="1.1" xmlns="http://www.w3.org/2000/svg" xmlns:xlink="http://www.w3.org/1999/xlink" x="0px" y="0px"
	 viewBox="0 0 1920 1082" style="enable-background:new 0 0 1920 1082;" xml:space="preserve">
<style type="text/css">
	.st0{fill:#62ACAB;}
	.st1{fill:none;stroke:#FFFFFF;stroke-width:4;stroke-miterlimit:10;}
	.st2{fill:#C99262;}
	.st3{fill:#FFFDF9;}
	.st4{font-family:'SegoeUI-Bold';}
	.st5{font-size:97.64px;}
	.st6{letter-spacing:-4;}
	.st7{fill:none;stroke:#FFFDF9;stroke-width:7;stroke-miterlimit:10;}
	.st8{fill:#C99263;stroke:#FCFCFC;stroke-width:6;stroke-miterlimit:10;}
	.st9{fill:#FFFFFF;}
	.st10{font-family:'SegoeUI';}
	.st11{font-size:62px;}
	.st12{font-family:'MyriadPro-Regular';}
	.st13{font-size:36.6036px;}
</style>
<g id="Layer_1">
	<g id="Layer_1_1_">
		<title>template_1_preview_13</title>
		<g id="bg">
			<rect class="st0" width="1920" height="1082"/>
		</g>
		<g id="name_box">
			
				<rect x="1068.4" y="389.1" transform="matrix(0.9991 -4.222509e-02 4.222509e-02 0.9991 -18.1811 56.1244)" class="st1" width="502.2" height="138.7"/>
			<polygon class="st2" points="1566.3,507.8 1064.3,546 1052,404.4 1552.9,373.1 			"/>
		</g>
		<g id="Layer_3">
			<text transform="matrix(0.9967 -8.089478e-02 8.089478e-02 0.9967 1082.12 510.72)" class="st3 st4 st5">C</text>
			<text transform="matrix(0.9967 -8.089478e-02 8.089478e-02 0.9967 1141.6642 505.8873)" class="st3 st4 st5">ON</text>
			<text transform="matrix(0.9967 -8.089478e-02 8.089478e-02 0.9967 1292.3488 493.6577)" class="st3 st4 st5 st6">T</text>
			<text transform="matrix(0.9967 -8.089478e-02 8.089478e-02 0.9967 1342.5836 489.5806)" class="st3 st4 st5">A</text>
			<text transform="matrix(0.9967 -8.089478e-02 8.089478e-02 0.9967 1409.5334 484.1469)" class="st3 st4 st5">CT</text>
		</g>
		<g id="Layer_5">
			<path class="st7" d="M459.1,570.5c1.2,15.7-9.5,29.9-25,33c-26.4,5.4-70.8,8.8-73.6-29c-4-54,33-83,129-88
				c91.6-4.8,202.3-2.3,271.3,57c7,6.1,11,15,10.8,24.3c-0.4,21.3-9.5,55.9-66.8,41.7c-16.2-4-26.4-20.1-23.1-36.5
				c1.5-6.9,4.1-13.5,7.8-19.5c1.6,1.6-16-20.9-38-29c-48.7-17.9-133.4-26.2-177.8-7.2c-14.3,6.2-21.8,22.1-17.6,37.1
				C457.7,559.7,458.6,565.1,459.1,570.5z"/>
			<polygon class="st7" points="474.5,553 474.5,610.1 406.5,720.4 406.5,754.5 740.5,754.5 740.5,716.4 664.5,604.1 664.5,553 
				632.5,554 632.5,603.1 506.5,603.1 505.5,551 			"/>
			<ellipse class="st8" cx="573.5" cy="662" rx="51" ry="42.5"/>
		</g>
		<g id="Layer_6">
			<text transform="matrix(1 0 0 1 192.84 193.63)" class="st9 st10 st11">W</text>
			<text transform="matrix(1 0 0 1 248.45 193.63)" class="st9 st10 st11">ant </text>
			<text transform="matrix(1 0 0 1 353.08 193.63)" class="st9 st10 st11">t</text>
			<text transform="matrix(1 0 0 1 373.6 193.63)" class="st9 st10 st11">o know more</text>
		</g>
	</g>
	<g id="Layer_2">
		<text transform="matrix(1 0 0 1 1051.7802 698.1793)" class="st9 st10 st11">Add your contact details</text>
	</g>
</g>
<g id="Layer_2_1_">
	<text transform="matrix(2.0884 0 0 1 1052 760.8496)" class="st9 st12 st13">mobile number</text>
</g>
</svg>
