<svg id="Layer_1" data-name="Layer 1" xmlns="http://www.w3.org/2000/svg" viewBox="0 0 1920 1087"><defs><style>.cls-1{fill:#62acab;}.cls-2{fill:#559a99;}.cls-17,.cls-3,.cls-39,.cls-6{fill:none;stroke-miterlimit:10;}.cls-3,.cls-6{stroke:#fff;}.cls-3{stroke-width:3px;}.cls-4{fill:#fffeff;}.cls-18,.cls-45,.cls-5,.cls-8,.cls-9{isolation:isolate;}.cls-5{font-size:39px;}.cls-5,.cls-8,.cls-9{fill:#fcfcfc;}.cls-45,.cls-5,.cls-8,.cls-9{font-family:SegoeUI-Bold, Segoe UI;font-weight:700;}.cls-6{stroke-width:4px;}.cls-7{fill:#c99262;}.cls-8,.cls-9{font-size:44px;}.cls-9{letter-spacing:-0.02em;}.cls-10{fill:#464845;}.cls-11{fill:#42210b;}.cls-12{fill:#231006;}.cls-13,.cls-18{fill:#7a5642;}.cls-14{fill:#000001;}.cls-15{fill:#8e7870;}.cls-16{fill:#562f1e;}.cls-17{stroke:#030805;}.cls-18{opacity:0.54;}.cls-19{fill:#1e1c1c;}.cls-20{fill:#0f0f0f;}.cls-21{fill:#e4ebf9;}.cls-22{fill:#072e51;}.cls-23{fill:#062135;}.cls-24{fill:#f4eaf6;}.cls-25{fill:#919191;}.cls-26{fill:#d6a078;}.cls-27{fill:#e4b27f;}.cls-28{fill:#161414;}.cls-29{fill:#0c0b0b;}.cls-30{fill:#262323;}.cls-31{fill:#23110c;}.cls-32{fill:#fff;}.cls-33{fill:#e4ac7f;}.cls-34{fill:#e6b185;}.cls-35{fill:#e6b085;}.cls-36{fill:#da9f77;}.cls-37{fill:#a06545;}.cls-38{fill:#645d5a;}.cls-39{stroke:#1b120a;stroke-width:0.5px;}.cls-40{fill:#1b120a;}.cls-41{fill:#4a4340;}.cls-42{fill:#482f27;}.cls-43{fill:#fcffff;}.cls-44{fill:#c7835d;}.cls-45{font-size:37px;fill:#f7f7f7;}.cls-46{letter-spacing:-0.01em;}.cls-47{letter-spacing:-0.01em;}.cls-48{letter-spacing:0em;}.cls-49{fill:#1f2b2b;}.cls-50{fill:#000d0c;}.cls-51{fill:#4f4c4b;}</style></defs><title>Scene_13</title><g id="bg"><rect class="cls-1" width="1920" height="1087"/></g><g id="Layer_25" data-name="Layer 25"><ellipse class="cls-2" cx="628.5" cy="934.5" rx="241.5" ry="6.5"/></g><g id="Layer_2" data-name="Layer 2"><rect class="cls-3" x="424.5" y="874" width="109" height="57.5"/><rect class="cls-3" x="534.5" y="824.5" width="160" height="111"/><rect class="cls-3" x="695.5" y="873.5" width="107" height="59"/><g id="Layer_26" data-name="Layer 26"><polygon class="cls-4" points="423 872.9 445.2 859.2 534 859.2 534 872.9 423 872.9"/><polygon class="cls-4" points="533 824 552 813 682 813 698 824 533 824"/><polygon class="cls-4" points="698 860 785 860 804 872 695 875 698 860"/></g><text class="cls-5" transform="translate(607.69 889.65)">1</text><text class="cls-5" transform="translate(460.69 923.65)">2</text><text class="cls-5" transform="translate(739.69 927.65)">3</text></g><g id="name_box" data-name="name box"><rect class="cls-6" x="177.91" y="173.11" width="950.25" height="94.8" transform="translate(-10.2 32.88) rotate(-2.86)"/><rect class="cls-7" x="168.9" y="167.1" width="946.31" height="93.9" transform="translate(-12.53 42.11) rotate(-3.72)"/></g><g id="Layer_27" data-name="Layer 27"><text class="cls-8" transform="translate(221.43 257.9) rotate(-4)">Adding </text><text class="cls-8" transform="translate(384.96 246.46) rotate(-4)">t</text><text class="cls-8" transform="translate(401.87 245.28) rotate(-4)">o that no</text><text class="cls-9" transform="translate(590.51 232.09) rotate(-4)">w</text><text class="cls-8" transform="translate(623.75 229.77) rotate(-4)">, He Could also ha</text><text class="cls-8" transform="translate(994.16 203.87) rotate(-4)">v</text><text class="cls-8" transform="translate(1017.53 202.23) rotate(-4)">e</text></g><g id="shadow"><ellipse class="cls-10" cx="617.6" cy="814.6" rx="55.2" ry="5.6"/></g><g id="shoes"><path class="cls-11" d="M655,815.1s1.1-3.3-1.7-4.9c0,0-1.3-4-2.7-4.5-1.6-.6,0-.7,0-.7l-.9-4.3a2.6,2.6,0,0,0-.9-1.6c-1-1-2.9-3-4.2-3.1-1.9-.3-4.1-1.1-5.9-.4s-3.3,3.8-3.2,5.1,0,6.9,0,7.3-.3,1.7.4,2.3c0,0-3.7,1.2-1.9,6.4C634,816.7,638.8,812.5,655,815.1Z"/><path class="cls-12" d="M644.7,797.4l.2,6.6c0,1,2.3,3,2.3,3a10.56,10.56,0,0,1,5.7,3,4.67,4.67,0,0,1,.3,1.7A11.08,11.08,0,0,0,647,808s-2.2-2-2.3-3l-.3-7.6Z"/><path class="cls-11" d="M653.1,810.2a11.83,11.83,0,0,0-6.7-3.5s-2.4-1.9-2.5-2.9l-.3-7.4s2.7-.8,5.9,3.9c0,0,1.1,4.6,1.2,5.3S653.3,808,653.1,810.2Z"/><path class="cls-13" d="M652.6,809.8v.3a12.61,12.61,0,0,0-3.1-2.5A17.33,17.33,0,0,1,652.6,809.8Z"/><path class="cls-13" d="M646.2,797a3,3,0,0,0-1.6-.2l.3,7.3c0,.8,1.4,2.1,2,2.7l-.3-.1s-2.2-1.9-2.2-2.9l-.3-7.3A3.14,3.14,0,0,1,646.2,797Z"/><path class="cls-14" d="M636.1,810.3s-.9-1.5,2.4-3.9,4.5-2.2,3.1-9.8c.1,0,.2.1.3.2,1.5,7.7.2,7.6-3.1,9.9s-2.4,3.9-2.4,3.9a.55.55,0,0,1-.5-.3Z"/><path class="cls-11" d="M636,810.4s-1-1.6,2.6-4.1,5-2.3,3.4-10.5c0,0-4.2-2.9-6.6,4.4v7.4C635.5,807.6,634.8,810.5,636,810.4Z"/><path class="cls-13" d="M638.2,806.8c3.5-2.5,4.9-2.4,3.3-10.6a3.64,3.64,0,0,0-3.2-.3,3.31,3.31,0,0,1,3.8-.1c1.6,8.3.2,8.1-3.3,10.6s-2.6,4.1-2.6,4.1c-.4,0-.6-.3-.7-.7A6.36,6.36,0,0,1,638.2,806.8Z"/><path class="cls-11" d="M578.8,808.9s-1-3.3,1.8-4.7c0,0,1.4-3.9,2.7-4.3,1.5-.5,0-.6,0-.6l1-4.1a2.37,2.37,0,0,1,.9-1.5c1-1,2.9-2.8,4.1-2.9,1.8-.2,4-1,5.8-.2s3.1,3.8,3,5.1-.2,6.8-.2,7.1.2,1.6-.5,2.2c0,0,3.5,1.3,1.7,6.3C599.3,811.1,594.7,806.9,578.8,808.9Z"/><path class="cls-12" d="M589.3,791.9l-.4,6.2c-.1,1-2.3,2.8-2.3,2.8a10.4,10.4,0,0,0-5.6,2.6,4,4,0,0,0-.3,1.5,11.27,11.27,0,0,1,6.2-3.2s2.2-1.8,2.3-2.8l.5-7.1Z"/><path class="cls-11" d="M581.1,803.8a11.27,11.27,0,0,1,6.2-3.2s2.2-1.8,2.3-2.8l.5-7.1s-2.4-.8-5.4,3.5c0,0-1.2,4.4-1.2,5.1S581,801.5,581.1,803.8Z"/><path class="cls-13" d="M581.7,803.2v.3a11.91,11.91,0,0,1,3.1-2.3A11.69,11.69,0,0,0,581.7,803.2Z"/><path class="cls-13" d="M588.4,790.8a2.19,2.19,0,0,1,1.6-.1l-.5,7.1c0,.8-1.4,2-2,2.5h.3s2.2-1.8,2.3-2.8l.5-7.1A3.25,3.25,0,0,0,588.4,790.8Z"/><path class="cls-12" d="M598.7,806s1-1.7-3-4.1-5.4-2.1-4.2-10.4c-.1.1-.2.1-.3.2-1.3,8.5.2,8.3,4.1,10.6s3,4.1,3,4.1a.68.68,0,0,0,.6-.4Z"/><path class="cls-11" d="M597.6,805s1-1.5-2.5-4.1-4.8-2.5-3-10.4c0,0,4.2-2.7,6.3,4.6l-.2,7.2S598.8,805.1,597.6,805Z"/><path class="cls-13" d="M596,801.9c-3.7-2.7-5.2-2.6-3.2-11a3.92,3.92,0,0,1,3.5-.1,3.81,3.81,0,0,0-4.1-.3c-2,8.4-.5,8.3,3.2,11s2.6,4.3,2.6,4.3c.4,0,.6-.3.7-.7C598.6,804.4,598,803.3,596,801.9Z"/><path class="cls-12" d="M656.3,817.4s-.9-2.8-5.8-2.8-16.2-2.1-17.4,2.2c0,0,0,1.7,2.8,1.9C641.8,819.3,652.6,819.4,656.3,817.4Z"/><path class="cls-15" d="M656,815.4s-1.3-2.1-7.3-2.5c-4.2-.3-9.1-.2-9.1-.2s-5.6.4-6.1,3.1l22.3.3Z"/><path class="cls-16" d="M656.5,817.3s.6-2.1-1.3-2.4-15.1-1.5-19.4-.4-2.3,3.2-2.3,3.2,1.1-1.8,4.5-1.5a70.28,70.28,0,0,0,9.2-.2s5.5.2,5.9.2C654.8,816.7,654.9,817.7,656.5,817.3Z"/><path class="cls-12" d="M577.3,811.1s1-2.7,5.8-2.4,15.9-1,16.9,3.2c0,0-.1,1.6-2.8,1.7C591.4,813.8,580.8,813.3,577.3,811.1Z"/><path class="cls-15" d="M577.7,809.1s1.4-1.9,7.3-2c4.1,0,8.9.3,8.9.3s5.4.8,5.8,3.4l-21.8-1Z"/><path class="cls-16" d="M577.2,811s-.5-2.1,1.4-2.3,14.8-.5,19,.8,2.1,3.3,2.1,3.3-1-1.8-4.3-1.7c-3-.1-6-.3-9-.7,0,0-5.4-.2-5.7-.1C578.9,810.5,578.6,811.4,577.2,811Z"/><path class="cls-17" d="M646.3,796.7c0-3.4-7.7-3.7-7.7,0"/><path class="cls-17" d="M646.1,798.5c-.1-3.4-7.8-3.4-7.7.3"/><path class="cls-17" d="M647.1,804.5c-.1-3.4-7.8-3.4-7.7.3"/><path class="cls-17" d="M647.2,802.3c-.1-3.4-7.8-3.4-7.7.3"/><path class="cls-17" d="M594,799.4c-.1-3.4-7.8-3.4-7.7.3"/><path class="cls-17" d="M593.5,791.2c.2-3.9-8.7-4.7-8.9-.4"/><path class="cls-17" d="M593.9,792.4c.1-3.3-7.4-4-7.5-.4"/><path class="cls-17" d="M594.1,796.5c.1-3.3-7.4-4-7.5-.4"/><path class="cls-18" d="M655.3,814.9s-2.8-2.7-11.6-2.1-8.3.2-10.3,2.2c0,0-2-3.2,10-3.6S655.3,814.9,655.3,814.9Z"/><path class="cls-18" d="M577.4,809.3h0l.1.1c.7-.5,4.3-2.3,10.7-2.2,8.7.1,9.1,1.3,10.9,3.3h.1c.3-.5,1-3.7-9.8-4.5C579.1,805.3,577.6,808.5,577.4,809.3Z"/></g><g id="Layer_34" data-name="Layer 34"><path class="cls-19" d="M635.8,624.8s-1.7,9-1,14.8,16,161,16,161-12.3,7-16.2,2.2l-13.2-90-14.7-74.2s-4.8-6.1-6.2-.5-.3,79.8-.3,79.8l.8,78.8s-9.7,4.9-16.5-1.3l-3.8-81.3-8.3-91.9C572.7,622.1,632.4,629.1,635.8,624.8Z"/><path class="cls-20" d="M602.4,624.5c15.3,1.2,30.6,1.8,32.3-.3,0,0-.1.4-.2,1.1C628.9,626.3,615.4,625.6,602.4,624.5Z"/><path class="cls-20" d="M602.5,635.4c2-1.3,5.1,2.6,5.1,2.6l15.1,73.7,13.6,89.4a4.07,4.07,0,0,0,2.5,1.5c-2,.1-3.8-.3-5-1.7l-13.6-89.4-15.1-73.7A12,12,0,0,0,602.5,635.4Z"/><path class="cls-20" d="M572.8,621.7l8.6,91.2,4,80.7a12.35,12.35,0,0,0,6.3,3,12.22,12.22,0,0,1-8.7-3.2l-4-80.7-8.6-91.3Z"/><path class="cls-20" d="M648.7,780l2.4,18.3s-6.8,7.2-15.6,3.3l-.6-4.6C634.8,797,646.4,800.3,648.7,780Z"/><path class="cls-20" d="M601.5,776.5l-.9,19.5a19.46,19.46,0,0,1-16.9-2.3l.5-4.2C584.3,789.5,595.8,796,601.5,776.5Z"/></g><g id="torso"><path class="cls-21" d="M606.6,511.2s26.6,1,31,3-.1,101.6,0,103.4c.8,8.6-67.9,8.3-69.3,2.4-.8-3.4-7.8-102.4-3.5-104.7C573.2,510.9,606.6,511.2,606.6,511.2Z"/><path class="cls-21" d="M563.9,514.9c7.6-4.5,38.3-4.1,38.3-4.1s20.8.8,27.2,2.6c-7.9-1.4-25.2-2.1-25.2-2.1s-30.7-.4-38.3,4.1c-3.9,2.3,2.5,101.3,3.2,104.7.2.9,1.8,1.6,4.3,2.3-3.7-.7-6-1.6-6.3-2.7C566.4,616.2,560,517.2,563.9,514.9Z"/><path class="cls-21" d="M565.1,515.5c-.7,3.8-1,12.4-1.1,23.1C563.8,526.1,564,516.8,565.1,515.5Z"/><path class="cls-21" d="M633.8,619.5c-.1-1.8,7.4-102.7,3.1-104.9-1.7-.9-6.7-1.7-12.2-2.3,5.9.5,11.4,1.1,13.2,2,4.4,2-.1,102.4,0,104.2.2,2.3-4.4,4-11.3,5C631.2,622.6,634,621.3,633.8,619.5Z"/><path class="cls-21" d="M606.6,625.1c-16.4.4-33.7-.9-37.2-3.5C576.1,623.8,592.2,625.2,606.6,625.1Z"/><path class="cls-21" d="M607.2,516.1s1.5-1.7,1.5-2.9-7.5-2-15.9-2c0,0,0,3.6,1.9,4.8S596.6,510.1,607.2,516.1Z"/><path class="cls-21" d="M576.2,597s11.6,23.7,24.8,25c0,0-19.2,8.6-29.2,5.2l-4.4-7.8-2.3-34.7Z"/></g><g id="collar"><polygon class="cls-22" points="600 521.5 602.6 525.3 601.7 527.8 604.8 598 598.6 610.2 591.2 596.1 596.9 525.3 600 521.5"/><polygon class="cls-23" points="602.7 598.7 599.8 529.6 600.7 527.1 598.6 524 599.8 522.4 602.3 526.2 601.5 528.7 604.3 597.8 598.6 609.7 598 608.5 602.7 598.7"/><polygon class="cls-24" points="594.8 519.7 595.2 519.7 595.2 519.7 594.8 519.7"/><path class="cls-25" d="M604.8,526.6s1-1,3.3-9.5a13.56,13.56,0,0,0,.6-2.9,14.15,14.15,0,0,1-.6,6.1c-2.2,8.4-3.3,9.5-3.3,9.5l-5.5-9.5s.5-.4,1.2-1.1Z"/><path class="cls-21" d="M599.8,518.6a28,28,0,0,0,4.5-4.6c1-1.3,2-1.7,2.6-3.4,0,0,3.4-.1,1.3,8s-3.1,9.1-3.1,9.1Z"/><path class="cls-21" d="M600.4,518.6s-2-.6-4-3.5a16.32,16.32,0,0,1-1.8-4.3s-4.8-.2-3,8,2.8,9.3,2.8,9.3Z"/><path class="cls-25" d="M591.5,518.4c1.8,8.2,2.8,9.3,2.8,9.3l5.2-8.2a3,3,0,0,0,.8.4l-6.1,9.5s-1-1-2.8-9.3a15,15,0,0,1-.4-4.2C591.2,516.8,591.3,517.6,591.5,518.4Z"/></g><g id="righ_wrist" data-name="righ wrist"><path class="cls-26" d="M634.6,386.1s-5-2.6-5.4-4.9-2.8-9.9.2-9.3S633.1,380,634.6,386.1Z"/><path class="cls-27" d="M627.8,406.1s-8.1-14.8-3.4-27.7c0,0,2.6,8.8,3.5,11s6.9-3.4-.4-12.6c-3-3.8-2.4-7.7-.9-5.6s8.2,1,11.4,17.2c0,0-3.9,11-3,16.6S632.7,411.6,627.8,406.1Z"/><path class="cls-26" d="M568.5,381.1s5-2.6,5.4-4.9,2.8-9.9-.2-9.3S570.1,375,568.5,381.1Z"/><path class="cls-27" d="M575.4,401.1s8.1-14.8,3.4-27.7c0,0-2.6,8.8-3.5,11s-6.9-3.4.4-12.6c3-3.8,2.4-7.7.9-5.6s-8.2,1-11.4,17.2c0,0,3.9,11,3,16.6S570.5,406.6,575.4,401.1Z"/></g><g id="coat"><path class="cls-28" d="M609,510s26.9,0,30.6,3.6c2.8,2.7,2.9,96.3,2.9,119.4a4.91,4.91,0,0,1-4.9,4.9h-.3l-32.5-1.8,1-59.3,3.8-46.4Z"/><path class="cls-28" d="M592,510s-22.3.9-28.7,5.3c-2.4,1.6.9,114.5.9,114.5a8.59,8.59,0,0,0,6.4,5.4c5.1,1.1,28.3,3.3,28.3,3.3l-.9-51.2-.9-44.7Z"/><path class="cls-29" d="M617.7,538.8l-7.5-6.4,9.7-5.1-6.6-15.5,2.2-.1,6.6,15.6-9.7,5.1,7.5,6.4-10.4,70.9c-.1.2-.3-5.3-.5-11.3Z"/><path class="cls-30" d="M612.1,510.7l5.9,15.8-8.5,5.1,6.7,6.5-8.9,71.6c-.1.3-.9-16.9-.7-24.2.5-16.1-.4-42.8.5-51.6,1-9.8,3.7-20.8,2.3-24.1Z"/><path class="cls-29" d="M592.5,528.7l-7.5-4.5,5-14.8,2.2.1c0,.1,0,.1-.1.2l-4.8,14.5,7.1,4.2.1.5-7.4,4.6,10.2,55.8c0,5.8-.1,11.6-.2,11.4l-12.2-67.2Z"/><path class="cls-30" d="M592,509.4l-4.2,14.8,6.3,4.5-6.5,4.9,10.3,67.2c.1.3.2-13.4,0-20.1-.5-14.9-.9-40.1-2-49.8-1-9-1.7-19.4-1.7-22.4Z"/><path class="cls-31" d="M562.5,532.5s2.8,93.8,8.4,95.7c0,0-5.6-1.9-6.5-6.7s-1.9-89-1.9-89Z"/><path class="cls-29" d="M641,530.2c-.2,1,.7,108.7-5.7,106.2l7-2.1c0-5.3-1.3-104.1-1.3-104.1Z"/></g><g id="coat_left_sleeve" data-name="coat left sleeve"><path class="cls-28" d="M651.7,452.9a17.79,17.79,0,0,0-1.2-2.9"/><path class="cls-28" d="M632.4,467.4c1.4,1.5-6.7,47.2-6.7,47.2s-6.2,13.9,4.7,26.1c1.3,1.4,7.3-4.9,7.7-6.7-.8,6.6,8-43.3,12-66.8"/><path class="cls-32" d="M626.9,407.6l-.9-4.4,10.2-1.7.7,4.5C633.6,406.4,630.2,406.9,626.9,407.6Z"/><path class="cls-28" d="M650.3,467c-1.8-8.1-11.1-59.9-13.4-61.5-2.5-1.8-12.3,1.1-12.1,2.9,1,6.4,5.7,50.2,8.2,61.6"/></g><g id="shirt_left_sleeve" data-name="shirt left sleeve"><path class="cls-28" d="M548.7,433.9a17.79,17.79,0,0,0-1.2-2.9"/><path class="cls-32" d="M577.2,402.6l.9-4.4L568,396.5l-.7,4.5C570.6,401.4,573.9,401.9,577.2,402.6Z"/><path class="cls-28" d="M570.6,462.6c-1.4,1.5,5.5,47.3,5.5,47.3s5.9,14.1-5.4,26c-1.3,1.4-7.2-5.1-7.6-6.8.7,6.6-6.8-43.5-10.3-67"/><path class="cls-28" d="M552.9,462c1.8-8.1,11.1-59.9,13.4-61.5,2.5-1.8,12.3,1.1,12.1,2.9-1,6.4-5.9,49.2-8.4,60.6"/></g><g id="neck"><path class="cls-33" d="M606.8,506.2v5c0,2-5.2,8-6.5,8-.9,0-4.7-4-5.6-8s0-5,0-5Z"/></g><g id="face"><path class="cls-34" d="M619,474.9s1.8-11.5-2-18.1c0,0-4.3-7.7-12.8-8.8s-16.4,2.5-19.9,9.9c0,0-2.6,6.3-1.8,12.4s.8,5.5.8,5.5-.6-.7-1-.5-1.8.5-1.8,3.3,1,7.7,2.6,9.6,2.5,1.9,2.5,1.9-.6,5.6,5.1,12.4c5.4,6.3,6.9,6.6,9.7,6.6s8.2,0,14.6-11.8a34.45,34.45,0,0,0,1.8-7.7A118.34,118.34,0,0,1,619,474.9Z"/><path class="cls-35" d="M619,475.2s2-.3,2.3,2.8-2.6,10.2-2.6,10.2-1.8,1.9-2.3,1.6S616.9,477.7,619,475.2Z"/><path class="cls-36" d="M618.6,478.1a45.5,45.5,0,0,1,.9-7.3c.5-1.6.5-12.6-5.4-17.9,0,0-1.5-1.1-1.8-.3s-1,3.9,3.8,11c0,0,2,5.5,1.4,14.7,0,.1-1.9,13.6-2.1,15.3a54,54,0,0,1-3.3,7.4c-1.2,1.7-3.8,5.5-6.7,6.3-2.5.7-4.6,1.4-8.2,0a12.51,12.51,0,0,1-4.9-3s4.2,7.3,12.5,4.1c6.7-2.5,10.2-11.8,10.9-13.7.1-.2.1-.4.2-.6C616.3,492.1,618,480.7,618.6,478.1Z"/><path class="cls-36" d="M585,486.5c.3-.1-1.3-8.2-2.6-8.8,0,0-1.5.3-.8,3.3a36.77,36.77,0,0,0,1.5,4.7C583.2,485.6,584,486.7,585,486.5Z"/><path class="cls-36" d="M616.9,486c-.3-.1,1-8.3,2.2-8.9,0,0,1.5.2.9,3.3a25.42,25.42,0,0,1-1.4,4.7A1.61,1.61,0,0,1,616.9,486Z"/><path class="cls-37" d="M582.7,478.7s-1.3,1-.3,4.9c0,0-1.6-4.4-.2-5.8A.8.8,0,0,1,582.7,478.7Z"/><path class="cls-37" d="M618.9,478.1s1.3,1,.3,4.9c0,0,1.6-4.4.2-5.8A.81.81,0,0,0,618.9,478.1Z"/></g><g id="beard"><path class="cls-38" d="M590.9,494.4c0,13.7,4,14.4,11.9,13.9s8-13.6,7.6-13.9C600.2,484.8,590.9,494.4,590.9,494.4Zm1.1.3s7.4-6.2,17-.2c0,0,.8,11.5-6.4,12,0,0-1.3-2.2-1.1-3.6h-1.9s0,3.6-.8,3.6-7.5-.6-6.8-11.8Z"/></g><g id="eyebrows"><path class="cls-39" d="M588.6,475.6"/><path class="cls-40" d="M613.7,474.4a7.62,7.62,0,0,0-4.2-2.3H609a5.24,5.24,0,0,0-4.2,2.5s-.5-.1-.3-1.3c.1-.9,2.8-3.1,5.4-2.1C613.4,472.5,613.7,474.4,613.7,474.4Z"/><path class="cls-40" d="M587.7,474.2a7.94,7.94,0,0,1,4.3-2.1h.5a5.72,5.72,0,0,1,4.1,2.6s.5,0,.4-1.3c-.1-.9-2.6-3.2-5.3-2.3C588,472.3,587.7,474.2,587.7,474.2Z"/></g><g id="hair"><path class="cls-41" d="M617.4,483.6h-.9s2.6-21.9-4.7-28c0,0-3.9,2.9-10.8,2.4a22.52,22.52,0,0,1-10.8-3.3s-8.6,2.4-6,28.5l-.9.5-.4-4.8a8,8,0,0,0-1.3-1.9c-.9-1-1.3-15.7,0-19s9.9-11,19.8-11c5.2,0,10.8,1.4,16.9,8.1a5.81,5.81,0,0,1,1.5,3.4,66.39,66.39,0,0,1-.7,19.4S616.9,477.4,617.4,483.6Z"/></g><g id="mouth"><path class="cls-42" d="M606.9,494.5s-7.1,2.5-13.2,0C593.7,494.5,599.9,502.8,606.9,494.5Z"/><path class="cls-43" d="M604.3,495.1v1.7a6.32,6.32,0,0,1-7.4.3v-1.7A23.13,23.13,0,0,0,604.3,495.1Z"/></g><g id="nose"><path class="cls-44" d="M600.7,488.9c.7,0,2.7-1.7,3.2-2.1l.1.3s-2.5,2.6-3.3,2.6-3.3-2.6-3.3-2.6l.1-.3C598,487.2,600,488.9,600.7,488.9Z"/></g><g id="Layer_26-2" data-name="Layer 26-2"><text class="cls-45" transform="translate(1019.79 823.95)">Add <tspan class="cls-46" x="82.04" y="0">y</tspan><tspan x="101.59" y="0">our </tspan><tspan class="cls-47" x="171.52" y="0">k</tspan><tspan x="191.68" y="0">ey benefits he</tspan><tspan class="cls-48" x="435.06" y="0">r</tspan><tspan x="449.64" y="0">e</tspan></text></g><g id="Layer_28" data-name="Layer 28"><text class="cls-45" transform="translate(1027.79 656.95)">Add <tspan class="cls-46" x="82.04" y="0">y</tspan><tspan x="101.59" y="0">our </tspan><tspan class="cls-47" x="171.52" y="0">k</tspan><tspan x="191.68" y="0">ey benefits he</tspan><tspan class="cls-48" x="435.06" y="0">r</tspan><tspan x="449.64" y="0">e</tspan></text></g><g id="Layer_29" data-name="Layer 29"><text class="cls-45" transform="translate(1029.79 482.95)">Add <tspan class="cls-46" x="82.04" y="0">y</tspan><tspan x="101.59" y="0">our </tspan><tspan class="cls-47" x="171.52" y="0">k</tspan><tspan x="191.68" y="0">ey benefits he</tspan><tspan class="cls-48" x="435.06" y="0">r</tspan><tspan x="449.64" y="0">e</tspan></text></g><g id="eyes"><path class="cls-32" d="M588.81,479.11s4.29-4.62,7.81.5C597,480.18,591.29,481.23,588.81,479.11Z"/><ellipse class="cls-49" cx="592.88" cy="478.82" rx="1.77" ry="1.65" transform="translate(-10.47 13.27) rotate(-1.27)"/><ellipse class="cls-50" cx="593.13" cy="478.35" rx="1.33" ry="1.19" transform="translate(-10.46 13.27) rotate(-1.27)"/><ellipse class="cls-51" cx="593.39" cy="478.07" rx="0.71" ry="0.73" transform="matrix(1, -0.02, 0.02, 1, -10.46, 13.28)"/><path class="cls-32" d="M605.21,479.38s4.23-5.09,8.05.18C613.7,480.16,607.85,481.52,605.21,479.38Z"/><ellipse class="cls-49" cx="609.38" cy="478.9" rx="1.82" ry="1.75"/><ellipse class="cls-50" cx="609.66" cy="478.42" rx="1.37" ry="1.26"/><ellipse class="cls-51" cx="609.93" cy="478.13" rx="0.73" ry="0.78"/></g></svg>