<?xml version="1.0" encoding="utf-8"?>
<!-- Generator: Adobe Illustrator 21.1.0, SVG Export Plug-In . SVG Version: 6.00 Build 0)  -->
<svg version="1.1" id="Layer_1" xmlns="http://www.w3.org/2000/svg" xmlns:xlink="http://www.w3.org/1999/xlink" x="0px" y="0px"
	 viewBox="0 0 1920 1087" style="enable-background:new 0 0 1920 1087;" xml:space="preserve">
<style type="text/css">
	.st0{fill:#62ACAB;}
	.st1{fill:#474747;}
	.st2{fill:none;stroke:#FFFFFF;stroke-width:3;stroke-miterlimit:10;}
	.st3{fill:#FFFFFF;}
	.st4{fill:none;stroke:#FFFFFF;stroke-width:4;stroke-miterlimit:10;}
	.st5{fill:#C99262;}
	.st6{fill:#42210B;}
	.st7{fill:#231006;}
	.st8{fill:#7A5642;}
	.st9{fill:#000001;}
	.st10{fill:#8E7870;}
	.st11{fill:#562F1E;}
	.st12{fill:none;stroke:#030805;stroke-miterlimit:10;}
	.st13{opacity:0.54;fill:#7A5642;enable-background:new    ;}
	.st14{fill:#1E1C1C;}
	.st15{fill:#0F0F0F;}
	.st16{fill:#E4EBF9;}
	.st17{fill:#072E51;}
	.st18{fill:#062135;}
	.st19{fill:#F4EAF6;}
	.st20{fill:#919191;}
	.st21{fill:#161414;}
	.st22{fill:#0C0101;}
	.st23{fill:#0C0B0B;}
	.st24{fill:#262323;}
	.st25{fill:#23110C;}
	.st26{fill:#E4AC7F;}
	.st27{fill:#E6B185;}
	.st28{fill:#E6B085;}
	.st29{fill:#DA9F77;}
	.st30{fill:#A06545;}
	.st31{fill:#645D5A;}
	.st32{fill:#1F2B2B;}
	.st33{fill:#000D0C;}
	.st34{fill:#4F4C4B;}
	.st35{fill:none;stroke:#1B120A;stroke-width:0.5;stroke-miterlimit:10;}
	.st36{fill:#1B120A;}
	.st37{fill:#4A4340;}
	.st38{fill:#482F27;}
	.st39{fill:#C7835D;}
	.st40{fill:#D49C6D;}
	.st41{fill:#F9F7F7;}
	.st42{font-family:'SegoeUI-Bold';}
	.st43{font-size:45.9039px;}
	.st44{font-family:'SegoeUI';}
	.st45{font-size:33px;}
</style>
<title>template_1_preview_4</title>
<g id="bg">
	<rect x="1.2" y="2.6" class="st0" width="1920" height="1087"/>
</g>
<g id="shadow">
	<ellipse class="st1" cx="1087.5" cy="1032.9" rx="111.5" ry="16.1"/>
</g>
<g id="profession_box">
	<g id="Layer_24">
		<polygon class="st2" points="822.5,641.1 381.3,664.7 374.5,554.1 815.7,530.5 		"/>
	</g>
	<polygon class="st3" points="823.6,655.6 382.3,656.2 381.8,543.7 823.1,543.1 	"/>
</g>
<g id="name_box">
	<polygon class="st4" points="395.8,422.5 814.8,410.2 821,485.7 402,498 	"/>
	<polygon class="st5" points="402.7,424.7 798.1,405.1 807.7,474.5 412.3,494.1 	"/>
</g>
<g id="shoes">
	<path class="st6" d="M1176.7,1034.8c0,0,2.5-6.9-3.8-10c0,0-3-8.3-5.9-9.3c-3.5-1.2-0.1-1.4-0.1-1.4l-2-8.8
		c-0.3-1.3-0.9-2.4-1.9-3.3c-2.2-2.2-6.3-6.1-9.2-6.4c-4.2-0.5-9-2.4-13.1-0.9s-7.3,7.8-7.2,10.5s-0.1,14.3-0.1,15s-0.6,3.4,0.9,4.7
		c0,0-8.2,2.3-4.3,13.1C1130,1037.9,1140.7,1029.3,1176.7,1034.8z"/>
	<path class="st7" d="M1152.4,998.1l-1.5,13.6c-0.2,2.1-5.5,5.9-5.5,5.9c-4.8,0.4-9.3,2.3-12.9,5.3c-0.6,1-0.9,2.2-0.9,3.4
		c0,0,6-6,14.3-6.5c0,0,5.2-3.7,5.5-5.9l1.7-15.7C1152.8,998.2,1152.6,998.1,1152.4,998.1z"/>
	<path class="st6" d="M1131.8,1023c4.4-3.6,9.7-5.8,15.4-6.1c0,0,5.6-3.6,5.8-5.6l1.7-15.2c0,0-5.7-2-13.5,7c0,0-3.2,9.3-3.3,10.7
		S1131.7,1018.3,1131.8,1023z"/>
	<path class="st8" d="M1134.9,1021.1c0,0.2,0,0.5-0.1,0.7c2.1-1.9,4.6-3.5,7.2-4.5C1139.4,1018.1,1137,1019.4,1134.9,1021.1z"/>
	<path class="st8" d="M1150.9,995.7c1.1-0.4,2.4-0.5,3.5-0.2l-1.7,15c-0.2,1.6-3.3,4.1-4.7,5.1c0.3,0,0.5-0.1,0.8-0.1
		c0,0,5.1-3.6,5.3-5.6l1.7-15C1155.8,995,1153.9,994.3,1150.9,995.7z"/>
	<path class="st9" d="M1134.7,1024.7c0,0-2-3.2,5.3-7.9s10.1-4.5,7-20.1c0.2,0.1,0.4,0.2,0.6,0.3c3.2,15.9,0.4,15.6-6.9,20.4
		s-5.3,7.9-5.3,7.9c-0.5,0-1-0.3-1.1-0.7C1134.4,1024.6,1134.5,1024.7,1134.7,1024.7z"/>
	<path class="st6" d="M1134.6,1025c0,0-2.2-3.3,5.9-8.4s11.2-4.8,7.6-21.6c0,0-9.2-5.9-14.6,9.1v15.2
		C1133.5,1019.2,1131.8,1025.1,1134.6,1025z"/>
	<path class="st8" d="M1139.3,1017.5c7.8-5.1,10.9-4.8,7.4-21.9c-2.2-1.3-4.8-1.5-7.1-0.5c2.5-1.7,5.8-1.8,8.4-0.2
		c3.4,17,0.4,16.8-7.4,21.9s-5.7,8.5-5.7,8.5c-0.9,0-1.3-0.6-1.4-1.4C1133.9,1022.4,1135.3,1020.2,1139.3,1017.5z"/>
	<path class="st6" d="M1008.1,1021.4c0,0-2.2-6.8,4.1-9.7c0,0,3.2-8,6-8.8c3.4-1.1,0.1-1.3,0.1-1.3l2.3-8.5c0.3-1.2,1-2.4,2-3.2
		c2.2-2,6.4-5.7,9.2-6c4.1-0.4,8.9-2,12.8-0.4s6.8,7.8,6.6,10.5s-0.4,13.9-0.4,14.6s0.4,3.4-1,4.6c0,0,7.8,2.6,3.7,12.9
		C1053.4,1026.2,1043.3,1017.4,1008.1,1021.4z"/>
	<path class="st7" d="M1031.3,986.5l-1,12.7c-0.2,2-5.1,5.6-5.1,5.6c-4.6,0.5-8.9,2.4-12.5,5.4c-0.5,1-0.8,2.1-0.8,3.2
		c0,0,5.6-5.8,13.7-6.5c0,0,5-3.6,5.1-5.6l1.1-14.7C1031.7,986.6,1031.5,986.6,1031.3,986.5z"/>
	<path class="st6" d="M1013.2,1010.9c0,0,5.6-5.8,13.7-6.5c0,0,5-3.6,5.1-5.6l1.1-14.7c0,0-5.2-1.7-12,7.2c0,0-2.6,9.1-2.7,10.4
		S1013,1006.3,1013.2,1010.9z"/>
	<path class="st8" d="M1014.6,1009.6c0,0.2,0,0.5,0,0.7c2-1.9,4.3-3.5,6.9-4.7C1018.9,1006.6,1016.6,1007.9,1014.6,1009.6z"/>
	<path class="st8" d="M1029.4,984.3c1.1-0.4,2.3-0.5,3.4-0.3l-1.1,14.7c-0.1,1.6-3.1,4.1-4.4,5.2c0.3,0,0.5-0.1,0.8-0.1
		c0,0,4.9-3.7,5-5.7l1.1-14.7C1034.1,983.5,1032.3,982.8,1029.4,984.3z"/>
	<path class="st7" d="M1052,1015.7c0,0,2.1-3.5-6.6-8.4s-12-4.4-9.2-21.5c-0.2,0.1-0.4,0.2-0.7,0.4c-2.9,17.4,0.4,17,9.1,21.9
		s6.6,8.4,6.6,8.4c0.6,0,1.1-0.3,1.3-0.8C1052.4,1015.7,1052.2,1015.7,1052,1015.7z"/>
	<path class="st6" d="M1049.7,1013.5c0,0,2.3-3.2-5.4-8.5s-10.7-5.2-6.6-21.5c0,0,9.3-5.4,13.9,9.5l-0.6,14.8
		C1051,1007.9,1052.3,1013.7,1049.7,1013.5z"/>
	<path class="st8" d="M1046.2,1007.2c-8.2-5.6-11.5-5.5-7.1-22.7c2.4-1.2,5.2-1.3,7.7-0.2c-2.7-1.9-6.2-2.1-9.1-0.6
		c-4.4,17.2-1.1,17.1,7.1,22.7s5.8,9,5.8,9c0.9,0.1,1.4-0.5,1.6-1.4C1051.9,1012.4,1050.5,1010.1,1046.2,1007.2z"/>
	<path class="st7" d="M1179.5,1039.4c0,0-2-5.8-12.7-5.8s-35.7-4.4-38.6,4.3c0,0,0.1,3.4,6.1,4
		C1147.4,1043.2,1171.3,1043.5,1179.5,1039.4z"/>
	<path class="st10" d="M1178.7,1035.2c0,0-2.8-4.2-16.1-5.2c-9.3-0.7-20.2-0.5-20.2-0.5s-12.3,0.8-13.6,6.3l49.2,0.8L1178.7,1035.2z
		"/>
	<path class="st11" d="M1179.8,1039.2c0,0,1.3-4.3-2.8-4.9s-33.4-3.1-42.9-0.9c-9.3,2.2-5.2,6.5-5.2,6.5s2.5-3.7,10-3.1
		s20.4-0.3,20.4-0.3s12.3,0.4,13,0.5C1176,1038,1176.4,1040,1179.8,1039.2z"/>
	<path class="st7" d="M1004.7,1025.9c0,0,2.3-5.5,12.8-4.9s35.2-2.1,37.4,6.6c0,0-0.3,3.3-6.2,3.5
		C1035.8,1031.6,1012.4,1030.4,1004.7,1025.9z"/>
	<path class="st10" d="M1005.7,1021.9c0,0,3-4,16.1-4c9.1-0.1,19.7,0.8,19.7,0.8s12,1.6,12.9,7l-48.1-2.3L1005.7,1021.9z"/>
	<path class="st11" d="M1004.4,1025.7c0,0-1-4.2,3-4.6s32.8-1,42,1.8c8.9,2.7,4.7,6.7,4.7,6.7s-2.2-3.7-9.6-3.6s-19.9-1.5-19.9-1.5
		s-12-0.4-12.7-0.3C1008.2,1024.7,1007.7,1026.6,1004.4,1025.7z"/>
	<path class="st12" d="M1157.4,996.8c0-6.9-17.1-7.7-17.1-0.1"/>
	<path class="st12" d="M1156.9,1000.6c-0.2-6.9-17.3-7-17.1,0.6"/>
	<path class="st12" d="M1159.1,1012.8c-0.2-6.9-17.3-7-17.1,0.6"/>
	<path class="st12" d="M1159.4,1008.4c-0.2-6.9-17.3-7-17.1,0.6"/>
	<path class="st12" d="M1041.7,1002.1c-0.2-6.9-17.3-7-17.1,0.6"/>
	<path class="st12" d="M1040.7,985c0.4-8-19.2-9.7-19.6-0.9"/>
	<path class="st12" d="M1041.6,987.5c0.3-6.8-16.3-8.3-16.7-0.8"/>
	<path class="st12" d="M1041.9,996c0.3-6.8-16.3-8.3-16.7-0.8"/>
	<path class="st13" d="M1177.3,1034.3c0,0-6.2-5.5-25.6-4.5s-18.3,0.4-22.7,4.4c0,0-4.5-6.7,22.2-7.3S1177.3,1034.3,1177.3,1034.3z"
		/>
	<path class="st13" d="M1004.9,1022.3c0,0.1,0,0.2,0.1,0.2h0.1c1.5-1,9.4-4.7,23.6-4.5c19.2,0.3,20.1,2.8,24.1,6.8
		c0.1,0.1,0.2,0.1,0.3,0l0,0c0.6-1.1,2.2-7.5-21.6-9.2C1008.8,1014,1005.3,1020.7,1004.9,1022.3z"/>
</g>
<g id="Layer_34">
	<path class="st14" d="M1135.2,635.2c0,0-3.7,18.5-2.3,30.4s34.4,331.5,34.4,331.5s-27.3,14.4-35.7,4.4L1103,815.9l-32-152.8
		c0,0-10.5-12.5-13.7-1s-1.1,164.3-1.1,164.3l1.4,162.2c0,0-21.5,10.1-36.6-2.8l-7.9-167.4l-17.7-189.3
		C995.5,629.2,1127.6,644,1135.2,635.2z"/>
	<path class="st15" d="M1061.3,634.5c33.8,2.5,67.8,3.9,71.5-0.4c0,0-0.2,0.9-0.4,2.3C1119.8,638.3,1089.9,636.7,1061.3,634.5z"/>
	<path class="st15" d="M1061.4,656.9c4.4-2.7,11.3,5.3,11.3,5.3l33,151.8l29.5,184.2c1.5,1.6,3.4,2.7,5.5,3.1
		c-4.5,0.2-8.5-0.7-10.9-3.5l-29.6-184.2l-33-151.8C1065.6,659.8,1063.6,658.2,1061.4,656.9z"/>
	<path class="st15" d="M995.7,628.5l18.5,187.8l8.4,166.2c4,3.3,8.8,5.4,13.8,6.1c-7,0.2-13.8-2.2-19.2-6.6l-8.4-166.2l-18.5-188
		L995.7,628.5z"/>
	<path class="st15" d="M1162.5,956.3l4.9,39.5c0,0-15,15.6-34.1,7.2l-1.2-9.9C1132.1,993.1,1157.2,1000.1,1162.5,956.3z"/>
	<path class="st15" d="M1055.6,946.7l0.2,41.2c0,0-19.1,8.1-39.1-3l0.8-9C1017.5,975.9,1044.7,988.7,1055.6,946.7z"/>
</g>
<g id="torso">
	<path class="st16" d="M1053.5,407.7c0,0-54,2-63,6.2s0.2,209.2-0.1,212.9c-1.6,17.8,137.9,17,140.7,4.9
		c1.6-6.9,15.8-210.8,7.2-215.5C1121.4,407,1053.5,407.7,1053.5,407.7z"/>
	<path class="st16" d="M1140,415.3c-16.9-9.2-84.7-8.4-84.7-8.4s-46,1.7-60.1,5.2c17.5-2.9,55.7-4.4,55.7-4.4s67.9-0.8,84.7,8.4
		c8.7,4.7-5.6,208.6-7.2,215.5c-0.4,1.8-3.9,3.4-9.4,4.7c8.1-1.4,13.3-3.3,13.9-5.5C1134.4,623.9,1148.7,420,1140,415.3z"/>
	<path class="st16" d="M1137.6,416.5c1.5,7.9,2.1,25.6,2.3,47.5C1140.5,438.3,1140,419.2,1137.6,416.5z"/>
	<path class="st16" d="M998.1,630.6c0.2-3.7-15-211.4-6.3-215.9c3.4-1.8,13.6-3.4,24.7-4.8c-11.9,1-23.1,2.4-26.7,4
		c-9,4.2,0.2,210.9-0.1,214.6c-0.4,4.7,8.9,8.1,22.9,10.4C1003.5,637,997.9,634.3,998.1,630.6z"/>
	<path class="st16" d="M1053.5,642.2c33.3,0.8,68.5-1.8,75.5-7.2C1115.3,639.6,1082.7,642.4,1053.5,642.2z"/>
	<path class="st16" d="M1044.3,417.8c0,0-3.2-3.4-3.2-5.9s16.5-4.1,35.1-4.1c0,0,0,7.5-4.3,10S1067.7,405.3,1044.3,417.8z"/>
	<path class="st16" d="M1113,584.3c0,0-25.7,48.7-54.9,51.4c0,0,42.5,17.7,64.7,10.6l9.8-16l5-71.5L1113,584.3z"/>
</g>
<g id="collar">
	<polygon class="st17" points="1060.3,428.8 1054.5,436.7 1056.4,441.9 1049.6,586.5 1063.2,611.4 1079.7,582.5 1067.1,436.7 	"/>
	<polygon class="st18" points="1054.2,587.8 1060.6,445.6 1058.8,440.4 1063.3,434 1060.6,430.7 1055.1,438.5 1056.9,443.7 
		1050.6,585.9 1063.3,610.5 1064.7,608 	"/>
	<polygon class="st19" points="1071.8,425.3 1070.9,425.3 1070.9,425.3 	"/>
	<path class="st20" d="M1049.5,439.4c0,0-2.3-2.1-7.2-19.5c-0.6-1.9-1-3.9-1.3-5.9c-0.5,2.5-0.4,6.4,1.3,12.5
		c4.9,17.4,7.2,19.5,7.2,19.5l12.3-19.6c0,0-1.1-0.8-2.7-2.2L1049.5,439.4z"/>
	<path class="st16" d="M1060.7,422.9c-3.6-2.7-6.9-5.9-9.8-9.4c-2.2-2.7-4.3-3.6-5.8-6.9c0,0-7.6-0.2-2.9,16.4s6.9,18.7,6.9,18.7
		L1060.7,422.9z"/>
	<path class="st16" d="M1059.4,422.9c0,0,4.4-1.2,9-7.1c2.2-2.8,2.7-5.5,4.1-8.9c0,0,10.7-0.4,6.6,16.5s-6.3,19.1-6.3,19.1
		L1059.4,422.9z"/>
	<path class="st20" d="M1079.1,422.5c-4.1,16.9-6.3,19.1-6.3,19.1l-11.6-16.9c-0.6,0.3-1.2,0.6-1.9,0.8l13.4,19.6
		c0,0,2.2-2.2,6.3-19.1c0.7-2.8,1-5.7,0.8-8.6C1079.8,419.2,1079.5,420.8,1079.1,422.5z"/>
</g>
<g id="coat_left_sleeve">
	<path class="st21" d="M986.8,412.4l-65.2,139c-0.2,0.5-0.4,1.1-0.5,1.7c-0.7,3.7-2.8,19.3,12,26.6s77,46.4,101.5,57.2
		c1.3,0.6,6.4,4.8,8.5,4.3c2.4-0.5,5.5-8.6,7-10.6l4.2-12c1.6-3.4-3.3-8-6.4-10.3c-14.4-10.8-47.7-37.3-76.4-54
		c-3.6-2.1-3.9-3.6-2.1-7.3l41.7-86.6c0,0,13.6-33.7-15.2-50.7c-2.9-1.9-6.8-1-8.6,1.9C987.1,411.8,986.9,412.1,986.8,412.4z"/>
	<path class="st22" d="M1005.7,409.5c-1.6-0.8-3.5-1-5.2-0.5l0.2,0.1c29.9,14.9,9.2,46.9,9.2,46.9l-54.3,86.8
		c-2.2,3.6,3.6,8.1,7.2,10.3c32.2,19.7,66.1,33.6,80.9,43.2c3.2,2.1,3.9,7.9,1.9,11.3l-6.3,9.7c-1.7,1.8-3.8,6-6.1,7.1
		c1.4,0.5,3,0.7,4.5,0.7c2.6-0.6,4.9-5.4,6.7-7.4l6.3-9.7c2-3.3,1.3-9.2-1.9-11.3c-14.8-9.6-49-33.4-78.8-48.1
		c-3.8-1.9-4-3.2-1.8-6.9l50.6-84.6C1018.8,457.2,1035.6,424.4,1005.7,409.5z"/>
</g>
<g id="coat_right_sleeve">
	<path class="st21" d="M1146.1,417.5l60.7,140.1c0.2,0.5,0.4,1,0.5,1.5c0.7,3.5,2.1,16.9-12.2,22.3c-14,5.3-75,31.2-95.6,39.3
		c-3.2,1.3-10.1,2.8-9.3,0.7l-6.6-10.8c-2.1-3.3-2.7-7.3-1.9-11.1c0.6-2.3,1.6-4.4,2.9-5.2c13.6-8.6,46.5-26.2,73.7-39
		c4-1.9,5.8-7.1,3.8-11.5l-37-83.3c0,0-15.2-33.5,13-46.4c3.1-1.3,6.6,0.2,7.8,3.2C1146.1,417.4,1146.1,417.4,1146.1,417.5z"/>
	<path class="st22" d="M1082.4,616.1c-2.1-3.3-2.8-7.3-1.9-11.2c0.6-2.3,1.6-4.4,2.9-5.2c13.7-8.5,46.9-26,74.4-38.7
		c4.1-1.9,12.3-4.1,10.4-8.5l-42.1-95c0,0-17.7-25.1,10.7-38c0.8-0.4,1.8-0.5,2.7-0.5c-1.7-1.8-4.3-2.3-6.6-1.3
		c-28.4,12.8-12.9,46.4-12.9,46.4l37.7,83.6c2,4.4,0.2,9.6-3.8,11.5c-27.5,12.7-60.7,30.2-74.4,38.7c-1.3,0.8-2.3,2.9-2.9,5.2
		c-0.9,3.8-0.2,7.8,1.9,11.2l6.7,10.8c-0.4,1.1,1.2,1.2,3.4,0.9L1082.4,616.1z"/>
</g>
<g id="coat">
	<path class="st21" d="M1042.6,404.2c0,0-44.8-1.1-52.2,6.4c-6.3,6.4-5.6,234.4-5.6,234.4s6.4,2.3,19.3,4.7s55.3,7.8,55.3,7.8
		l-4.2-112.8l-6.3-97.9L1042.6,404.2z"/>
	<path class="st21" d="M1074.7,404.2c0,0,52.4,0,66.6,8.7c5.3,3.2-2,228.8-2,228.8s-2.8,8.5-14.1,10.7s-62.6,6.7-62.6,6.7l2-102.4
		l2-89.4L1074.7,404.2z"/>
	<path class="st23" d="M1033,459.3l15.7-13.4l-21-9.8l13.3-31.8l-4.7-0.1l-13.3,31.9l21,9.8l-15.7,13.4l26.4,143.2
		c0.1,0.3,0.4-10.8,0.5-23L1033,459.3z"/>
	<path class="st24" d="M1041.1,404l-11.8,32.3l18.6,9.9l-13.9,13.5l23.2,144.9c0.2,0.5,0.9-34.4,0-49c-2-32.7-1.7-86.8-4.1-104.6
		c-2.6-19.7-9.2-41.9-6.3-48.8L1041.1,404z"/>
	<path class="st23" d="M1076.8,443.8l16.6-9.3l-10.9-30.4l-4.8,0.1c0.1,0.1,0.1,0.3,0.1,0.4l10.7,29.9l-15.7,8.7
		c0,0.3-0.1,0.7-0.2,1l16.4,9.5l-22.5,114.9c0,12,0.2,23.8,0.3,23.5l27.1-138.4L1076.8,443.8z"/>
	<path class="st24" d="M1077.8,404.1l9.2,30.4l-14,9.3l14.4,10l-22.7,138.4c-0.2,0.5-0.5-27.5,0-41.3c1.2-30.7,2.1-82.6,4.4-102.6
		c2.2-18.5,3.8-40,3.8-46.2L1077.8,404.1z"/>
	<path class="st25" d="M1143.2,451.5c0,0-6.2,193.1-18.6,197.1c0,0,12.4-3.9,14.5-13.8S1143.2,451.5,1143.2,451.5L1143.2,451.5z"/>
	<path class="st25" d="M987.6,458.5c0.3,1.8-1,192,11.7,187.5l-14.1-3.7C985.2,632.8,987.6,458.5,987.6,458.5L987.6,458.5z"/>
</g>
<g id="neck">
	<path class="st26" d="M1045.2,397.4v10.3c0,4.1,11.5,16.5,14.5,16.5c2.1,0,10.3-8.3,12.4-16.5s0-10.3,0-10.3H1045.2z"/>
</g>
<g id="face">
	<path class="st27" d="M1018.2,333c0,0-4-23.8,4.5-37.3c0,0,9.6-15.8,28.3-18.1s36.2,5.1,44.1,20.4c0,0,5.7,13,4,25.5
		s-1.7,11.3-1.7,11.3s1.4-1.4,2.3-1.1s4,1.1,4,6.8s-2.3,15.8-5.7,19.8s-5.7,4-5.7,4s1.4,11.5-11.3,25.5
		c-11.9,13-15.3,13.6-21.5,13.6s-18.1,0-32.2-24.3c-2.1-5.1-3.4-10.4-4-15.8C1022.5,352.2,1018.2,333,1018.2,333z"/>
	<path class="st28" d="M1018.2,333.5c0,0-4.5-0.6-5.1,5.7s5.7,20.9,5.7,20.9s4,4,5.1,3.4S1022.7,338.6,1018.2,333.5z"/>
	<path class="st29" d="M1019,339.5c0,0-0.8-11.6-2-15s-1.1-26,11.9-36.8c0,0,3.4-2.3,4-0.6s2.3,7.9-8.5,22.6c0,0-4.5,11.3-3,30.2
		c0,0.3,4.2,28.1,4.7,31.5c0.2,1.1,5.7,13.1,7.3,15.3c2.7,3.5,8.5,11.3,14.7,13c5.5,1.5,10.2,2.8,18.1,0c7.4-2.6,10.7-6.2,10.7-6.2
		s-9.3,15-27.7,8.5c-14.7-5.2-22.7-24.4-24.1-28.2c-0.2-0.4-0.3-0.8-0.3-1.3C1024.2,368.4,1020.3,344.9,1019,339.5z"/>
	<path class="st29" d="M1093.4,356.7c-0.6-0.1,2.8-17,5.7-18.1c0,0,3.4,0.6,1.7,6.8c-0.8,3.3-2,6.5-3.4,9.6
		C1097.4,355,1095.7,357.3,1093.4,356.7z"/>
	<path class="st29" d="M1022.8,355.8c0.6-0.1-2.2-17.1-4.9-18.3c0,0-3.4,0.4-2,6.7c0.7,3.3,1.7,6.6,3,9.7
		C1018.9,353.9,1020.5,356.2,1022.8,355.8z"/>
	<path class="st30" d="M1098.5,340.8c0,0,2.8,2.1,0.7,10c0,0,3.6-9,0.5-11.9C1098.9,339,1098.4,339.8,1098.5,340.8
		C1098.5,340.7,1098.5,340.7,1098.5,340.8z"/>
	<path class="st30" d="M1018.5,339.6c0,0-2.8,2.1-0.7,10c0,0-3.6-9-0.5-11.9C1018.1,337.9,1018.6,338.7,1018.5,339.6L1018.5,339.6z"
		/>
</g>
<g id="beard">
	<path class="st31" d="M1037.2,373.1c-0.7,0.6-0.5,27.6,16.9,28.6s26.3-0.5,26.3-28.6C1080.3,373.1,1059.7,353.4,1037.2,373.1z
		 M1063,397.8c-1.9,0-1.9-7.4-1.9-7.4h-4.2c0.5,3-2.3,7.4-2.3,7.4c-16-1-14.1-24.7-14.1-24.7c21.1-12.3,37.6,0.5,37.6,0.5
		C1079.4,396.8,1064.8,397.8,1063,397.8z"/>
</g>
<g id="eyes">
	<g>
		<path class="st3" d="M1032.2,340.3c0,0,10.2-11,18.7,1.2C1051.8,342.9,1038.1,345.4,1032.2,340.3z"/>
		
			<ellipse transform="matrix(0.9998 -2.217562e-02 2.217562e-02 0.9998 -7.275 23.1894)" class="st32" cx="1041.9" cy="339.6" rx="4.2" ry="3.9"/>
		
			<ellipse transform="matrix(0.9998 -2.217562e-02 2.217562e-02 0.9998 -7.2504 23.2024)" class="st33" cx="1042.5" cy="338.5" rx="3.2" ry="2.8"/>
		
			<ellipse transform="matrix(0.9998 -2.217562e-02 2.217562e-02 0.9998 -7.2348 23.2155)" class="st34" cx="1043.1" cy="337.8" rx="1.7" ry="1.7"/>
	</g>
	<g>
		<path class="st3" d="M1067.7,341.6c0,0,10.1-12.2,19.3,0.4C1088,343.5,1074,346.8,1067.7,341.6z"/>
		<ellipse class="st32" cx="1077.7" cy="340.5" rx="4.4" ry="4.2"/>
		<ellipse class="st33" cx="1078.3" cy="339.3" rx="3.3" ry="3"/>
		<ellipse class="st34" cx="1079" cy="338.6" rx="1.7" ry="1.9"/>
	</g>
</g>
<g id="eyebrows">
	<path class="st35" d="M1085.5,334.4"/>
	<path class="st36" d="M1030,332c2.5-2.5,5.8-4.2,9.3-4.7c0.4,0,0.8,0,1.1,0c2.2,0.2,6.8,1.2,9.4,5c0,0,1-0.1,0.7-2.7
		c-0.2-1.8-6.1-6.3-11.9-4.3C1030.6,328,1030,332,1030,332z"/>
	<path class="st36" d="M1087.4,331.5c-2.6-2.4-5.9-3.9-9.5-4.3c-0.4,0-0.8,0-1.1,0c-2.2,0.3-6.8,1.5-9.2,5.5c0,0-1-0.1-0.8-2.7
		c0.1-1.8,5.8-6.6,11.8-4.8C1086.7,327.6,1087.4,331.5,1087.4,331.5z"/>
</g>
<g id="hair">
	<path class="st37" d="M1021.8,350.8h1.9c0,0-5.7-45,10.5-57.7c0,0,8.6,5.9,23.8,4.9s23.8-6.9,23.8-6.9s19.1,4.9,13.4,58.7l1.9,1
		l1-9.8c0.8-1.4,1.7-2.8,2.9-3.9c1.9-2,2.9-32.3,0-39.1s-21.9-22.5-43.9-22.5c-11.4,0-23.8,2.9-37.3,16.6c-1.9,1.9-3,4.4-3.3,7.1
		c-1.5,13.3-1,26.8,1.5,39.9C1018,339.1,1022.7,338.1,1021.8,350.8z"/>
</g>
<g id="mouth">
	<path class="st38" d="M1071.2,378.1c0,0-14.1-2.4-26.2,1.2C1045,379.3,1056.7,368.8,1071.2,378.1z"/>
</g>
<g id="nose">
	<path class="st39" d="M1058.7,361.7c-1.6,0-5.9-3.5-7-4.3l-0.2,0.7c0,0,5.4,5.4,7.2,5.4s7.2-5.4,7.2-5.4l-0.2-0.7
		C1064.6,358.2,1060.2,361.7,1058.7,361.7z"/>
</g>
<g id="face_shadow">
	<path class="st40" d="M1039.1,372.6c0,0-2.7-7.8,8.2-10.3C1047.3,362.3,1036.4,367.5,1039.1,372.6z"/>
	<path class="st40" d="M1077.8,372.6c0,0,2.7-7.8-8.2-10.3C1069.7,362.3,1080.6,367.5,1077.8,372.6z"/>
	<path class="st40" d="M1053.2,382.5c0,0,2.9,7.7,12.9,2.6C1066.1,385.2,1054.5,388.2,1053.2,382.5z"/>
</g>
<g id="Layer_27">
	<text transform="matrix(0.8821 -5.705201e-02 5.039138e-02 0.9987 417.9241 475.2863)" class="st41 st42 st43">Character Name</text>
</g>
<g id="Layer_28">
	<text transform="matrix(1 0 0 1 435.35 603.33)" class="st5 st44 st45">is unhappy &amp; distressed</text>
</g>
</svg>
