<?xml version="1.0" encoding="utf-8"?>
<!-- Generator: Adobe Illustrator 22.0.1, SVG Export Plug-In . SVG Version: 6.00 Build 0)  -->
<svg version="1.1" id="Layer_1" xmlns="http://www.w3.org/2000/svg" xmlns:xlink="http://www.w3.org/1999/xlink" x="0px" y="0px"
	 viewBox="0 0 1920 1082" style="enable-background:new 0 0 1920 1082;" xml:space="preserve">
<style type="text/css">
	.st0{fill:#62ACAB;}
	.st1{fill:#C99263;}
	.st2{fill:#F9F8F7;}
	.st3{fill:none;stroke:#F9F8F7;stroke-width:2;stroke-miterlimit:10;}
	.st4{fill:none;stroke:#FFFFFF;stroke-width:4;stroke-miterlimit:10;}
	.st5{fill:#C99262;}
	.st6{fill:#F9F9F9;}
	.st7{font-family:'SegoeUI-Bold';}
	.st8{font-size:69.9843px;}
	.st9{fill:none;stroke:#FFFFFF;stroke-width:3;stroke-miterlimit:10;}
	.st10{fill:#FFFFFF;}
	.st11{font-size:53.3326px;}
	.st12{letter-spacing:-0.8;}
</style>
<g>
	<g id="Layer_1_1_">
		<g id="bg">
			<rect y="0.5" class="st0" width="1920" height="1082"/>
		</g>
		<g id="jigsaw">
			
				<rect x="323.9" y="309.7" transform="matrix(0.7071 -0.7071 0.7071 0.7071 -219.5128 549.0416)" class="st1" width="458.2" height="459.6"/>
			<path class="st1" d="M727.6,602.8l0.6,3.1c1.8,9.4-6.5,19.6-17.6,21.8c-2.7,0.5-5.4,0.8-8.1,0.9c-9.6,0-14.5-4.4-18-8.7
				c-4.6-5.7-6.8-12.9-6.1-20.2c1.5-19.3,21.6-20,22.5-20h2.4l-52.6-51.9l53.6-31.1c-0.5,5.3,0,5.8,0.3,6.2c0.2,0.3,0.6,0.4,0.9,0.4
				l0,0c0.8,0,1.3-0.8,1.7-1.5c2.4-4.8,7.1-24.8,2.7-30.8c-0.3-0.4-0.3-0.9-0.2-1.4c2.1-8.6,42.3-30.4,58.5-38.4l110.8,110
				l-107.3,105L727.6,602.8z"/>
			<path class="st2" d="M767.9,432.3l109.7,108.8L771.8,644.7l-41.2-40.4l-4.5-4.4l1.2,6.2c1.7,8.9-6.2,18.5-16.8,20.6
				c-2.6,0.5-5.3,0.8-7.9,0.8c-9.1,0-13.7-4-17.2-8.3c-4.4-5.5-6.5-12.5-5.9-19.5c1.4-18.3,20.7-19,21.5-19l4.7-0.1l-3.4-3.3
				l-50-49.3l50.8-29.5c-0.2,3.6,0.2,4.4,0.7,5c0.4,0.5,1,0.8,1.7,0.8c1.5,0,2.3-1.5,2.6-2.1c2.1-4.2,7.5-25.1,2.6-31.8
				c0,0-0.1-0.1,0-0.5c0.5-1.8,4.3-7.7,29.9-22.6C752.3,440.3,764.1,434.2,767.9,432.3 M768.3,429.9c0,0-65.7,32.8-59.3,41.6
				c4.6,6.3-1.8,30.7-3.6,30.7c-0.5,0-0.7-2.1,0-7.5L649,527.5l51.8,51.2c0,0-21.9,0.5-23.4,20.9c-0.6,7.5,1.6,15,6.3,20.9
				c4,4.8,9.1,9,18.7,9c2.8,0,5.6-0.3,8.3-0.9c11.7-2.3,20.2-12.8,18.3-22.9l42.6,41.8l108.7-106.3L768.3,429.9L768.3,429.9z"/>
			<path class="st1" d="M414.8,647.5c-6.4,0-12.9-0.5-17.3-0.8l-2.5-0.2c-6.6-0.5-11.4-2.5-14.3-6.1c-2.3-3.1-3.3-6.9-2.8-10.7
				l0.3-1.8l-42.1,18.5L227.1,539l110.6-109.3l43.1,45.3v-2.5c-0.5-13.3,9.8-24.5,23.1-25c0.4,0,0.7,0,1.1,0
				c6.2-0.1,12.1,2.5,16.1,7.1c1.2,1.3,11.3,12.7,4.6,27.4c-4.4,9.6-21.1,15.5-21.3,15.5l-1.5,0.5l40.5,42.5L414,577.3l3-0.9
				c0.5-0.2,1.1-0.3,1.6-0.3c0.8,0,1.6,0.4,2.3,0.9c0.8,0.5,1.6,1,2.4,1.3c5.6,2.3,10.6,7.3,12.4,12.4c5.5,15.3,0.7,49.5-4.7,53.9
				C429.8,646,425.7,647.5,414.8,647.5z"/>
			<path class="st2" d="M337.8,431.1l40.7,42.8l3.5,3.6v-5c-0.5-12.7,9.4-23.5,22.1-24c0.4,0,0.7,0,1.1,0c5.9-0.1,11.5,2.4,15.4,6.8
				l0.1,0.1c1.8,2,10.7,12.4,4.4,26.2c-4.2,9.2-20.6,15-20.7,15l-3,1l2.1,2.3l38.8,40.7l-26.9,33.6l-3.9,4.9l6.1-1.8
				c0.4-0.1,0.9-0.2,1.4-0.2c0.6,0,0.9,0.2,1.7,0.8c0.8,0.6,1.7,1,2.6,1.4c5.3,2.2,10.1,7,11.9,11.8c5.3,14.7,0.7,48.6-4.4,52.8
				c-1.2,1-4.8,2.6-15.9,2.6c-6.3,0-12.9-0.5-17.2-0.8l-2.5-0.2c-6.3-0.4-10.8-2.4-13.5-5.7c-2.1-2.9-3.1-6.4-2.6-9.9l0.6-3.7
				l-3.4,1.5l-39.8,17.5L228.6,538.9L337.8,431.1 M337.8,428.3l-112,110.6L336,647.5l41-18c0,0-2.8,16.6,18,18c3.9,0.3,12,1,19.8,1
				c7.3,0,14.3-0.7,17.2-3c6.1-5,10.4-40.2,5-55c-2-5.7-7.4-10.7-13-13c-2.4-1-3.1-2.3-5.1-2.3c-0.7,0-1.3,0.1-1.9,0.3l28-35l-40-42
				c0,0,17.3-5.9,21.9-16.1c7.3-16.1-4.6-28.2-4.8-28.5c-4.3-4.8-10.4-7.6-16.9-7.5c-12.5,0-25.3,9.4-25.2,26L337.8,428.3
				L337.8,428.3z"/>
			<path class="st1" d="M443.7,754l43.5-42.1l-0.4-0.7c-6.2-11.8-14.4-31.6-10.2-34.9c7.2-5.6,14.8-8.8,20.9-8.8
				c3.8,0,6.9,1.3,8.9,3.7c3,3.7,3.6,9.9,1.8,18l-1.3,6.2l33.3-57.3l54.3,55.3l0.1-2.3c0-1,1-23.8,20.6-25.1c0.7,0,1.4-0.1,2-0.1
				c6.7-0.1,13.2,2.2,18.4,6.4c5.7,4.7,11.3,13.2,6.1,27.4c-2,5.5-8.6,10.7-13.7,12.8c-1.9,0.8-3.9,1.2-5.9,1.2
				c-1.2,0-2.4-0.2-3.6-0.5l-3.8-1.1l45.5,45.2L552,863.1L443.7,754z"/>
			<path class="st2" d="M540.4,639.8l51.8,52.7l3.3,3.3l0.2-4.7c0-0.9,1-22.9,19.6-24.2c0.7,0,1.3-0.1,2-0.1
				c6.4-0.1,12.7,2.1,17.7,6.1c7.9,6.5,9.8,15.3,5.8,26.3c-1.9,5.1-8.1,10.2-13.1,12.2c-1.8,0.7-3.6,1.1-5.5,1.2
				c-1.1,0-2.2-0.2-3.3-0.5l-7.5-2.2l5.6,5.5l42,41.7L552,861.7L445.1,754l42.2-40.9l1.1-1l-0.7-1.3c0-0.1-4.1-7.8-7.3-16
				c-5.9-15-3.5-17.4-3.2-17.6c7-5.4,14.4-8.5,20.3-8.5c3.6,0,6.3,1.1,8.1,3.4c2.8,3.4,3.3,9.3,1.6,17.2l-2.6,12.3l6.3-10.9
				L540.4,639.8 M540,636.5l-30.8,53c3.4-16-2.5-23-11.7-23c-6.3,0-14.1,3.2-21.5,9c-6.5,5,9.9,36.1,9.9,36.1l-43.6,42.3L552,864.5
				l109.7-107.2l-43.5-43.2c1.3,0.4,2.6,0.6,3.9,0.5c2.2,0,4.3-0.5,6.3-1.3c5.6-2.3,12.2-7.8,14.2-13.4c5.4-14.6-0.3-23.5-6.4-28.5
				c-5.4-4.3-12.1-6.6-19-6.6c-0.7,0-1.4,0-2.1,0.1c-20.7,1.3-21.5,26.1-21.5,26.1L540,636.5z"/>
			<path class="st1" d="M617.3,493.2l1.2,3.9c0.9,3.2,0.6,6.5-0.7,9.5c-2,5.1-7.2,11.6-12.7,13.7c-3.4,1.3-7,2-10.7,2.1
				c-6.6,0-12.2-2.7-16.6-8.2c-4.6-5.8-6.9-13.1-6.3-20.4c1.2-19.6,21.2-20.5,22.1-20.5l2.3-0.1l-48.5-48.7L652,315.9L767.6,431
				l-43.8,43.7h2.7c10.2,0,18.3,5.5,21.8,14.7c3.6,9.4,1.3,19.9-5.6,26.1c-1.3,1.2-7.8,7-17,7c-3.4,0-6.8-0.8-9.9-2.2
				c-9.5-4.3-13.3-19.6-13.3-19.8l-0.4-1.7L661,539.1L617.3,493.2z"/>
			<path class="st2" d="M652,317.4l114.2,113.7l-41.3,41.3l-3.5,3.5h4.9h0.2c9.7,0,17.5,5.3,20.9,14.1c3.4,9,1.3,19.1-5.3,25
				l-0.1,0.1c-1.2,1.1-7.4,6.7-16.2,6.7c-3.3,0-6.5-0.7-9.5-2.1c-9-4.1-12.7-18.9-12.7-19.1l-0.8-3.4l-2.5,2.5l-39.3,38l-40.2-42.2
				l-5.6-6l2.3,7.9c0.8,2.9,0.5,6.1-0.7,8.8c-2,5-7.1,11.2-12.1,13.1c-3.3,1.3-6.8,1.9-10.3,2c-6.3,0-11.6-2.6-15.8-7.8
				c-4.4-5.6-6.6-12.6-6.1-19.7c1.2-18.6,20.3-19.5,21.1-19.6l4.6-0.1l-3.2-3.3l-46.2-46.3L652,317.4 M652,314.5l-106,110l47.5,47.8
				c0,0-21.7,0.7-23,21.4c-0.6,7.6,1.7,15.2,6.5,21.1c4.1,5.4,10.6,8.5,17.4,8.5c3.8-0.1,7.5-0.8,11-2.2c5.6-2.1,11-8.6,13.3-14.3
				c1.4-3.2,1.7-6.8,0.7-10.1l41.6,43.8l40.5-39.8c0,0,3.9,15.9,13.9,20.4c3.2,1.5,6.7,2.3,10.3,2.3c10.5,0,17.5-7.1,17.7-7.3
				c14.7-13.1,7.5-42.5-16.9-42.5h-0.2l42.8-42.7L652,314.5z"/>
			<path class="st1" d="M335.7,646l41.3-40c0.4,5,2,16.9,10.1,21.3c3.8,2,8.1,3,12.4,2.9c6.5,0,13.1-2,17.2-5.2
				c10.1-7.9,11.6-20.5,8.5-29.5c-3.2-9.4-11-15.2-20.4-15.2h-0.9l40.9-39.6l41.8,41.8l0.1-2.3c0-0.8,0.9-20.9,20.5-22.2
				c0.7,0,1.4-0.1,2-0.1c6.7-0.1,13.2,2.2,18.4,6.4c5.7,4.7,11.3,13.2,6.1,27.4c-2,5.5-8.6,10.7-13.7,12.8c-1.9,0.8-3.9,1.2-5.9,1.2
				c-1.2,0-2.4-0.2-3.6-0.5l-3.8-1.1l45.5,45.2l-40,39.9l1.7,0.4c0.2,0,15.5,3.9,19.8,13.3c6.6,14.6-3.5,25.7-4.7,27
				c-4.4,4.8-10.6,7.5-17.1,7.4c-6.5,0-12.7-2.5-17.3-7c-4.4-4.5-6.7-10.6-6.5-16.9V711l-44.3,44L335.7,646z"/>
			<path class="st2" d="M444.8,542l39.5,39.5l3.3,3.3l0.2-4.6c0-0.8,0.9-20,19.5-21.3c0.6,0,1.3-0.1,2-0.1
				c6.4-0.1,12.7,2.1,17.7,6.1c7.9,6.5,9.8,15.3,5.8,26.3c-1.9,5.1-8.1,10.2-13.1,12.2c-1.8,0.7-3.6,1.1-5.5,1.2
				c-1.1,0-2.2-0.2-3.3-0.5l-7.5-2.2l5.6,5.5l42,41.7l-38,38l-2.5,2.5l3.5,0.8c0.2,0,15,3.7,19.1,12.8c6.2,13.7-2.7,23.9-4.5,25.9
				l-0.1,0.1c-4.2,4.6-10.1,7.1-16.3,7c-6.2,0.1-12.2-2.3-16.6-6.7c-4.2-4.3-6.4-10.1-6.2-16.2v-4.8l-3.4,3.4l-42,41.8L337.1,646
				l39.1-37.9c0.7,5.9,3,15.9,10.4,20c4,2.1,8.4,3.1,12.9,3c6.7,0,13.6-2.1,17.8-5.4c10.5-8.2,12-21.2,8.8-30.6
				s-10.7-15.2-19.8-15.9L444.8,542 M444.8,539.2l-43.6,42.3c1.2-0.2,2.4-0.3,3.6-0.3c21,0,28.6,29.5,11.3,42.9
				c-3.9,3-10.3,4.9-16.6,4.9c-4.1,0.1-8.2-0.9-11.9-2.8c-9.7-5.3-9.7-22.7-9.7-22.7l-43.6,42.3L444,756.5l43.3-43
				c-0.1,16.1,12.4,24.8,24.8,24.8c6.7,0.1,13.2-2.7,17.8-7.7c0.2-0.2,12.2-12.2,4.9-28.2c-4.5-10-20.5-13.9-20.5-13.9l39.5-39.4
				l-43.5-43.2c1.3,0.4,2.6,0.6,3.9,0.5c2.2,0,4.3-0.5,6.3-1.3c5.6-2.3,12.2-7.8,14.2-13.4c5.4-14.6-0.3-23.5-6.4-28.5
				c-5.4-4.3-12.1-6.6-19-6.6c-0.7,0-1.4,0-2.1,0.1c-20.7,1.3-21.4,23.2-21.4,23.2L444.8,539.2L444.8,539.2z"/>
			<path class="st1" d="M507.8,383.8l1,3.8c0.8,3.2,0.5,6.5-0.8,9.5c-2.1,5.1-7.4,11.5-13,13.5c-3.3,1.3-6.9,1.9-10.4,2
				c-6.8,0-12.4-2.8-16.9-8.4c-4.6-5.8-6.7-13.2-6-20.5c1.5-19.5,21.6-20.2,22.5-20.2h2.3l-41.4-42.3l106.7-107.9l107.8,110.2
				L615,366.6h2.5c10.3,0.1,18.5,5.7,22,15s1.1,19.9-6,26c-1.3,1.2-7.7,6.8-16.9,6.8l0,0c-3.5,0-7-0.8-10.2-2.4
				c-9.4-4.4-13.1-19.8-13.1-19.9l-0.4-1.7l-40.4,39.5L507.8,383.8z"/>
			<path class="st2" d="M551.8,214.6l106.4,108.9l-42.1,40.7l-3.5,3.4h4.9c9.9,0.1,17.8,5.4,21,14.3c3.3,9.1,1.1,19.1-5.7,24.9
				l-0.1,0.1c-4.4,4-10.2,6.3-16.1,6.4c-3.4,0-6.7-0.8-9.8-2.3c-9-4.2-12.5-19.1-12.5-19.3l-0.8-3.5l-2.5,2.5l-38.4,37.6l-41.2-42.5
				l-5.5-5.6l2.1,7.6c0.8,2.9,0.5,6.1-0.8,8.8c-2.1,4.9-7.3,11.1-12.4,13c-3.2,1.2-6.6,1.8-10,1.9c-6.4,0-11.9-2.7-16.1-8
				c-4.4-5.6-6.5-12.7-5.8-19.8c1.4-18.6,20.7-19.3,21.5-19.3l4.6-0.1l-3.2-3.3l-39.1-40L551.8,214.6 M551.8,211.8L443.7,321
				l40.4,41.4c0,0-21.8,0.4-23.4,21.1c-0.7,7.6,1.6,15.2,6.3,21.2c4.2,5.5,10.7,8.8,17.6,8.8c3.7,0,7.3-0.7,10.8-2
				c5.6-2,11.2-8.5,13.5-14.1c1.4-3.2,1.7-6.8,0.9-10.1l42.6,44l39.8-39c0,0,3.7,16,13.7,20.6c3.3,1.6,6.9,2.4,10.6,2.5
				c10.3,0,17.4-6.9,17.5-7c15-13,8.1-42.6-16.6-42.8l43.6-42.1L551.8,211.8L551.8,211.8z"/>
			<line class="st3" x1="445" y1="539.5" x2="552" y2="431.5"/>
			<line class="st3" x1="551" y1="650.5" x2="662" y2="538.5"/>
		</g>
		<g id="Layer_3">
			
				<image style="overflow:visible;enable-background:new    ;" width="312" height="78" xlink:href="2399D0B0.png"  transform="matrix(1 0 0 1 404 899.5)">
			</image>
		</g>
		<g id="name_box">
			
				<rect x="1200" y="366.7" transform="matrix(0.9991 -4.222645e-02 4.222645e-02 0.9991 -16.7694 60.285)" class="st4" width="437.3" height="120.8"/>
			<polygon class="st5" points="1633.5,470.1 1196.4,503.3 1185.7,380 1621.8,352.7 			"/>
		</g>
		<g id="Layer_6">
			<text transform="matrix(0.9979 -6.419846e-02 6.419846e-02 0.9979 1221.6597 466.4302)" class="st6 st7 st8">It solve’s by</text>
		</g>
		<g id="profession_box">
			<g id="Layer_24">
				<polygon class="st9" points="1684.3,706.8 1019.9,753.7 1007,615.6 1671.4,568.7 				"/>
			</g>
			<polygon class="st10" points="1669.8,731.6 1023.5,732.5 1022.8,601.2 1669.1,600.3 			"/>
		</g>
		<g id="Layer_26">
			<text id="text_id" transform="matrix(1.3169 0 0 1 1078 648.5)" class="st5 st7 st11 st12">Add your solution </text>
			<text id="text_id1" transform="matrix(1.3169 0 0 1 1109 702.0996)" class="st5 st7 st11 st12">here</text>
		</g>
	</g>
	<g id="Layer_2_1_">
	</g>
</g>
<g id="Layer_2_2_">
	<g>
		<g>
			
				<image style="overflow:visible;enable-background:new    ;" width="250" height="250" id="logo2" xlink:href="productLogo.png"  transform="matrix(0.3882 0 0 0.3837 503.55 489.95)">
			</image>
		</g>
	</g>
</g>
</svg>
