<?xml version="1.0" encoding="utf-8"?>
<!-- Generator: Adobe Illustrator 21.1.0, SVG Export Plug-In . SVG Version: 6.00 Build 0)  -->
<svg version="1.1" id="Layer_1" xmlns="http://www.w3.org/2000/svg" xmlns:xlink="http://www.w3.org/1999/xlink" x="0px" y="0px"
	 viewBox="0 0 1920 1080" style="enable-background:new 0 0 1920 1080;" xml:space="preserve" >
<style type="text/css">
	.st0{display:none;}
	.st1{fill:#FFFBF5;}
	.st2{font-family:'SegoeUI-SemiBold';}
	.st3{font-size:37px;}
	.st4{font-family:'SegoeUI-Bold';}
	.st5{font-size:60.0029px;}
	.st6{font-size:40px;}
</style>
<title>Sceen_01</title>
<g id="Back_ground_01_Image">
	
		<image style="overflow:visible;enable-background:new    ;" width="1920" height="1080" id="Back_ground_01_Image-2" xlink:href="EC9E3D4A.png"  transform="matrix(1 0 0 1 0 -2.929688e-05)">
	</image>
</g>
<g id="Appear_01">
	<g id="control_room">
		<g id="character">
			<g id="shadow_Image">
				
					<image style="overflow:visible;enable-background:new    ;" width="133" height="18" id="shadow_Image-2" xlink:href="EC9E3D4E.png"  transform="matrix(1 0 0 1 486 802)">
				</image>
			</g>
			<g id="shadow_2_Image">
				
					<image style="overflow:visible;enable-background:new    ;" width="37" height="13" id="shadow_2_Image-2" xlink:href="EC9E3D49.png"  transform="matrix(1 0 0 1 543 805)">
				</image>
			</g>
			<g id="shadow_3_Image">
				
					<image style="overflow:visible;enable-background:new    ;" width="40" height="14" id="shadow_3_Image-2" xlink:href="EC9E3D4B.png"  transform="matrix(1 0 0 1 479 805)">
				</image>
			</g>
			<g id="collar_back">
				<g id="Shape_Layer_2_Image">
					
						<image style="overflow:visible;enable-background:new    ;" width="32" height="10" id="Shape_Layer_2_Image-2" xlink:href="EC9E3D48.png"  transform="matrix(1 0 0 1 539 378)">
					</image>
				</g>
			</g>
			<g id="male_chest">
				<g id="Shape_Layer_3_Image">
					
						<image style="overflow:visible;enable-background:new    ;" width="119" height="194" id="Shape_Layer_3_Image-2" xlink:href="EC9E3D56.png"  transform="matrix(1 0 0 1 496 383)">
					</image>
				</g>
			</g>
			<g id="shirt_left_fold_C">
				<g id="shirt_left_fold_Image">
					
						<image style="overflow:visible;enable-background:new    ;" width="9" height="37" id="shirt_left_fold_Image-2" xlink:href="EC9E3D59.png"  transform="matrix(1 0 0 1 508 515)">
					</image>
				</g>
			</g>
			<g id="shirt_right_fold_C">
				<g id="shirt_left_fold_Image-3">
					
						<image style="overflow:visible;enable-background:new    ;" width="10" height="37" id="shirt_left_fold_Image-4" xlink:href="EC9E3D5A.png"  transform="matrix(1 0 0 1 595 515)">
					</image>
				</g>
			</g>
			<g id="L_leg_ankle">
				<g id="Layer_4_footwear2_Outlines_Image">
					
						<image style="overflow:visible;enable-background:new    ;" width="30" height="33" id="Layer_4_footwear2_Outlines_Image-2" xlink:href="EC9E3D58.png"  transform="matrix(1 0 0 1 484 783)">
					</image>
				</g>
			</g>
			<g id="L_leg_lower">
				<g id="L_leg_lower_skelton_Outlines_2_Image">
					
						<image style="overflow:visible;enable-background:new    ;" width="45" height="134" id="L_leg_lower_skelton_Outlines_2_Image-2" xlink:href="32DEDC0D.png"  transform="matrix(1 0 0 1 487 662)">
					</image>
				</g>
			</g>
			<g id="L_leg_upper">
				<g id="L_leg_upper_male_Image">
					
						<image style="overflow:visible;enable-background:new    ;" width="54" height="140" id="L_leg_upper_male_Image-2" xlink:href="32DEDC03.png"  transform="matrix(1 0 0 1 501 554)">
					</image>
				</g>
			</g>
			<g id="R_leg_ankle">
				<g id="Layer_4_footwear2_Outlines_Image-3">
					
						<image style="overflow:visible;enable-background:new    ;" width="31" height="33" id="Layer_4_footwear2_Outlines_Image-4" xlink:href="32DEDC05.png"  transform="matrix(1 0 0 1 548 780)">
					</image>
				</g>
			</g>
			<g id="R_leg_lower">
				<g id="R_leg_lower_male_Image">
					
						<image style="overflow:visible;enable-background:new    ;" width="40" height="134" id="R_leg_lower_male_Image-2" xlink:href="32DEDC07.png"  transform="matrix(1 0 0 1 547 658)">
					</image>
				</g>
			</g>
			<g id="R_leg_upper">
				<g id="L_leg_upper_male_Image-3">
					
						<image style="overflow:visible;enable-background:new    ;" width="48" height="140" id="L_leg_upper_male_Image-4" xlink:href="32DEDC04.png"  transform="matrix(1 0 0 1 555 550)">
					</image>
				</g>
			</g>
			<g id="pelvis">
				<g id="pelvis_skelton_Outlines_3_Image">
					
						<image style="overflow:visible;enable-background:new    ;" width="93" height="45" id="pelvis_skelton_Outlines_3_Image-2" xlink:href="32DEDC1C.png"  transform="matrix(1 0 0 1 510 547)">
					</image>
				</g>
				<g id="Shape_Layer_1_Image">
					
						<image style="overflow:visible;enable-background:new    ;" width="91" height="20" id="Shape_Layer_1_Image-2" xlink:href="32DEDC1D.png"  transform="matrix(1 0 0 1 510 544)">
					</image>
				</g>
				<g id="Shape_Layer_2_Image-3">
					
						<image style="overflow:visible;enable-background:new    ;" width="80" height="19" id="Shape_Layer_2_Image-4" xlink:href="32DEDC1F.png"  transform="matrix(1 0 0 1 512 546)">
					</image>
				</g>
				<g id="Shape_Layer_3_Image-3">
					
						<image style="overflow:visible;enable-background:new    ;" width="17" height="12" id="Shape_Layer_3_Image-4" xlink:href="32DEDC1B.png"  transform="matrix(1 0 0 1 547 550)">
					</image>
				</g>
				<g id="Shape_Layer_4_Image">
					
						<image style="overflow:visible;enable-background:new    ;" width="91" height="13" id="Shape_Layer_4_Image-2" xlink:href="32DEDC06.png"  transform="matrix(1 0 0 1 510 544)">
					</image>
				</g>
			</g>
			<g id="neck">
				<g id="neck_skelton_Outlines_Image">
					
						<image style="overflow:visible;enable-background:new    ;" width="25" height="62" id="neck_skelton_Outlines_Image-2" xlink:href="32DEDC38.png"  transform="matrix(1 0 0 1 543 338)">
					</image>
				</g>
			</g>
			<g id="ties">
				<g id="Shape_Layer_1_Image-3">
					
						<image style="overflow:visible;enable-background:new    ;" width="28" height="119" id="Shape_Layer_1_Image-4" xlink:href="32DEDC3B.png"  transform="matrix(1 0 0 1 542 397)">
					</image>
				</g>
				<g id="Shape_Layer_4_Image-3">
					
						<image style="overflow:visible;enable-background:new    ;" width="27" height="112" id="Shape_Layer_4_Image-4" xlink:href="32DEDC39.png"  transform="matrix(1 0 0 1 543 399)">
					</image>
				</g>
			</g>
			<g id="male_chest_coat">
				<g id="male_open_coat_Image">
					
						<image style="overflow:visible;enable-background:new    ;" width="121" height="195" id="male_open_coat_Image-2" xlink:href="32DEDC37.png"  transform="matrix(1 0 0 1 496 382)">
					</image>
				</g>
			</g>
			<g id="collar_front">
				<g id="Shape_Layer_4_Image-5">
					
						<image style="overflow:visible;enable-background:new    ;" width="41" height="38" id="Shape_Layer_4_Image-6" xlink:href="32DEDC28.png"  transform="matrix(1 0 0 1 535 378)">
					</image>
				</g>
			</g>
			<g id="face">
				<g id="face_solid">
					<g id="face_solid_theface_Outlines_Image">
						
							<image style="overflow:visible;enable-background:new    ;" width="64" height="86" id="face_solid_theface_Outlines_Image-2" xlink:href="32DEDC2B.png"  transform="matrix(1 0 0 1 524 299)">
						</image>
					</g>
				</g>
				<g id="nose">
					<g id="nose_theface_Outlines_Image">
						
							<image style="overflow:visible;enable-background:new    ;" width="13" height="5" id="nose_theface_Outlines_Image-2" xlink:href="32DEDC29.png"  transform="matrix(1 0 0 1 549 359)">
						</image>
					</g>
				</g>
				<g id="right_eye">
					<g id="right_eye_socket_theface_Outlines_Image">
						
							<image style="overflow:visible;enable-background:new    ;" width="15" height="9" id="right_eye_socket_theface_Outlines_Image-2" xlink:href="32DEDC2F.png"  transform="matrix(1 0 0 1 560 342)">
						</image>
					</g>
					<g id="right_eye_ball_Outlines_Image">
						
							<image style="overflow:visible;enable-background:new    ;" width="9" height="9" id="right_eye_ball_Outlines_Image-2" xlink:href="32DEDC2A.png"  transform="matrix(1 0 0 1 564 341)">
						</image>
					</g>
					<g id="blink_Image">
						
							<image style="overflow:visible;enable-background:new    ;" width="16" height="8" id="blink_Image-2" xlink:href="32DEDC15.png"  transform="matrix(1 0 0 1 560 341)">
						</image>
					</g>
				</g>
				<g id="left_eye">
					<g id="left_eye_socket_Outlines_Image">
						
							<image style="overflow:visible;enable-background:new    ;" width="15" height="9" id="left_eye_socket_Outlines_Image-2" xlink:href="32DEDC4F.png"  transform="matrix(1 0 0 1 535 342)">
						</image>
					</g>
					<g id="left_eye_ball_Outlines_Image">
						
							<image style="overflow:visible;enable-background:new    ;" width="9" height="9" id="left_eye_ball_Outlines_Image-2" xlink:href="32DEDC4D.png"  transform="matrix(1 0 0 1 538 341)">
						</image>
					</g>
					<g id="blink_Image-3">
						
							<image style="overflow:visible;enable-background:new    ;" width="15" height="8" id="blink_Image-4" xlink:href="32DEDC73.png"  transform="matrix(1 0 0 1 535 340)">
						</image>
					</g>
				</g>
				<g id="mouth_expressions">
					<g id="male_ex08_Outlines_Image">
						
							<image style="overflow:visible;enable-background:new    ;" width="29" height="15" id="male_ex08_Outlines_Image-2" xlink:href="32DEDC75.png"  transform="matrix(1 0 0 1 541 361)">
						</image>
					</g>
				</g>
				<g id="beard">
					<g id="S_0_Image">
						
							<image style="overflow:visible;enable-background:new    ;" width="27" height="24" id="S_0_Image-2" xlink:href="32DEDC77.png"  transform="matrix(1 0 0 1 542 363)">
						</image>
					</g>
				</g>
				<g id="eyebrows">
					<g id="male_right_eye_brow_Outlines_Image">
						
							<image style="overflow:visible;enable-background:new    ;" width="19" height="6" id="male_right_eye_brow_Outlines_Image-2" xlink:href="32DEDC72.png"  transform="matrix(1 0 0 1 559 337)">
						</image>
					</g>
					<g id="male_left_eye_brow_Outlines_Image">
						
							<image style="overflow:visible;enable-background:new    ;" width="20" height="6" id="male_left_eye_brow_Outlines_Image-2" xlink:href="32DEDC71.png"  transform="matrix(1 0 0 1 532 337)">
						</image>
					</g>
				</g>
				<g id="hairs">
					<g id="hair3_Outlines_Image">
						
							<image style="overflow:visible;enable-background:new    ;" width="60" height="57" id="hair3_Outlines_Image-2" xlink:href="32DEDC7D.png"  transform="matrix(1 0 0 1 526 298)">
						</image>
					</g>
				</g>
			</g>
			<g id="R_hand_upper_front">
				<g id="R_hand_upper_male_3_Image">
					
						<image style="overflow:visible;enable-background:new    ;" width="42" height="124" id="R_hand_upper_male_3_Image-2" xlink:href="32DEDC7F.png"  transform="matrix(1 0 0 1 584 388)">
					</image>
				</g>
			</g>
			<g id="R_hand_palm_front">
				<g id="Layer_23_face_remains_Outlines_Image">
					
						<image style="overflow:visible;enable-background:new    ;" width="20" height="46" id="Layer_23_face_remains_Outlines_Image-2" xlink:href="32DEDC70.png"  transform="matrix(1 0 0 1 604 582)">
					</image>
				</g>
			</g>
			<g id="R_hand_lower_front">
				<g id="R_hand_lower_skelton_Outlines_5_Image">
					
						<image style="overflow:visible;enable-background:new    ;" width="25" height="105" id="R_hand_lower_skelton_Outlines_5_Image-2" xlink:href="32DEDC5E.png"  transform="matrix(1 0 0 1 601 487)">
					</image>
				</g>
			</g>
			<g id="L_hand_upper_front">
				<g id="L_hand_upper_skelton_Outlines_5_Image">
					
						<image style="overflow:visible;enable-background:new    ;" width="40" height="124" id="L_hand_upper_skelton_Outlines_5_Image-2" xlink:href="32DEDC5D.png"  transform="matrix(1 0 0 1 486 388)">
					</image>
				</g>
			</g>
			<g id="L_hand_palm_front">
				<g id="Layer_23_face_remains_Outlines_Image-3">
					
						<image style="overflow:visible;enable-background:new    ;" width="20" height="46" id="Layer_23_face_remains_Outlines_Image-4" xlink:href="32DEDC52.png"  transform="matrix(1 0 0 1 488 582)">
					</image>
				</g>
			</g>
			<g id="L_hand_lower_front">
				<g id="R_hand_lower_skelton_Outlines_5_Image-3">
					
						<image style="overflow:visible;enable-background:new    ;" width="25" height="105" id="R_hand_lower_skelton_Outlines_5_Image-4" xlink:href="32DEDC55.png"  transform="matrix(1 0 0 1 486 487)">
					</image>
				</g>
			</g>
		</g>
	</g>
</g>
<g id="Shape_Layer_14_Image">
	
		<image style="overflow:visible;enable-background:new    ;" width="232" height="76" id="Shape_Layer_14_Image-2" xlink:href="32DEDC56.png"  transform="matrix(1 0 0 1 925 578)">
	</image>
</g>
<g id="Shape_Layer_15_Image">
	
		<image style="overflow:visible;enable-background:new    ;" width="230" height="82" id="Shape_Layer_15_Image-2" xlink:href="32DEDC54.png"  transform="matrix(1 0 0 1 918 569)">
	</image>
</g>
<g id="characterProfession_Image" class="st0">
	
		<image style="display:inline;overflow:visible;enable-background:new    ;" width="245" height="43" id="characterProfession_Image-2" xlink:href="32DEDC53.png"  transform="matrix(1 0 0 1 962 688)">
	</image>
</g>
<g id="HE_s_a_2_Image">
	
		<image style="overflow:visible;enable-background:new    ;" width="121" height="45" id="HE_s_a_2_Image-2" xlink:href="32DEDC4C.png"  transform="matrix(0.9973 0 0 0.9973 965.1617 588.5602)">
	</image>
</g>
<g id="Shape_Layer_1_Image-5">
	
		<image style="overflow:visible;enable-background:new    ;" width="379" height="123" id="Shape_Layer_1_Image-6" xlink:href="32DEDC4B.png"  transform="matrix(1 0 0 1 927 373)">
	</image>
</g>
<g id="Shape_Layer_3_Image-5">
	
		<image style="overflow:visible;enable-background:new    ;" width="378" height="134" id="Shape_Layer_3_Image-6" xlink:href="32DEDCA9.png"  transform="matrix(0.9992 0 0 0.9992 918 361)">
	</image>
</g>
<g id="MEET_Image">
	
		<image style="overflow:visible;enable-background:new    ;" width="218" height="81" id="MEET_Image-2" xlink:href="32DEDCAF.png"  transform="matrix(0.9985 0 0 0.9985 961.1624 392.5603)">
	</image>
</g>
<text id="cname" transform="matrix(1 0 0 1 946 547.2798)" class="st1 st2 st3"> Character Name</text>
<text transform="matrix(1 0 0 1 1270.2 547.28)" class="st1 st4 st5"> </text>
<g id="Layer_2">
	<text id="cprofession" transform="matrix(1 0 0 1 954.1123 699.949)" class="st1 st4 st6">Profession</text>
</g>


</svg>
