<?xml version="1.0" encoding="utf-8"?>
<!-- Generator: Adobe Illustrator 22.0.1, SVG Export Plug-In . SVG Version: 6.00 Build 0)  -->
<svg version="1.1" id="Layer_1" xmlns="http://www.w3.org/2000/svg" xmlns:xlink="http://www.w3.org/1999/xlink" x="0px" y="0px"
	 viewBox="0 0 1920 1084" style="enable-background:new 0 0 1920 1084;" xml:space="preserve">
<style type="text/css">
	.st0{fill:#62ACAB;}
	.st1{fill:none;stroke:#FFFFFF;stroke-width:4;stroke-miterlimit:10;}
	.st2{fill:#C99262;}
	.st3{fill:#5B9D9D;}
	.st4{fill:none;stroke:#FFFFFF;stroke-width:3;stroke-miterlimit:10;}
	.st5{fill:none;stroke:#F6F9FC;stroke-width:4;stroke-miterlimit:10;}
	.st6{fill:#76B6B7;fill-opacity:0.14;}
	.st7{fill:#FFFFFF;}
	.st8{font-family:'SegoeUI-Bold';}
	.st9{font-size:37.0018px;}
	.st10{opacity:0.88;fill:#62ACAB;enable-background:new    ;}
	.st11{fill:none;stroke:#FFFFFF;stroke-width:5;stroke-miterlimit:10;}
	.st12{opacity:0.64;fill:#62ACAB;enable-background:new    ;}
	.st13{opacity:0.53;fill:#62ACAB;enable-background:new    ;}
</style>
<g id="Layer_1_1_">
	<title>template_1_preview_2</title>
	<g id="bg">
		<rect class="st0" width="1920" height="1084"/>
	</g>
	<g id="Layer_2_1_">
		
			<image style="overflow:visible;enable-background:new    ;" width="377" height="379" xlink:href="74C2D3F6.png"  transform="matrix(1 0 0 1 318 322)">
		</image>
	</g>
	<g id="name_box">
		
			<rect x="699.8" y="656.4" transform="matrix(0.9998 -2.006991e-02 2.006991e-02 0.9998 -13.6852 20.5886)" class="st1" width="638.2" height="71.4"/>
		<polygon class="st2" points="1339.5,705.5 693.5,750.5 690.5,671.6 1334.5,630.5 		"/>
	</g>
	<g id="Layer_10">
	</g>
	<g id="magnified_rectangle">
		<path class="st3" d="M433.1,534.3c0,0,160.9,68.7,238.9-89.3c0,0,0.8,88.8-73,121C560,583,495.6,596.4,433.1,534.3z"/>
		<line class="st4" x1="408.5" y1="389.5" x2="580.5" y2="319.5"/>
		<line class="st4" x1="444.5" y1="548.5" x2="679.5" y2="456.5"/>
		<path class="st4" d="M612.5,319.4l12-4.9l7.8,17.1C632.4,331.6,627.5,327.5,612.5,319.4z"/>
	</g>
	<g id="magnifying_glass">
		
			<image style="overflow:visible;enable-background:new    ;" width="373" height="373" xlink:href="74C2D3E9.png"  transform="matrix(1 0 0 1 349 260)">
		</image>
		<path class="st5" d="M647.5,556.5c0,0-17-13-12-24c13.7-30.2,27.9-50.3,27-52c0,0,14-8,27,0C689.5,480.5,685.5,503.5,647.5,556.5z
			"/>
		<path class="st5" d="M670.7,533.3l12.3,7.2c0,0,6.1-18.1,10.5-20l-14.8-8.5C678.7,512,667.1,530.9,670.7,533.3z"/>
		<path class="st5" d="M706.5,517.2L862,599.8c5.9,3.1,8.1,10.4,5,16.2l-7.4,13.9c-3.1,5.9-10.4,8.1-16.2,5L688,552.3
			c-5.9-3.1-8.1-10.4-5-16.2l7.4-13.9C693.4,516.3,700.7,514.1,706.5,517.2z"/>
		<path class="st6" d="M671.5,429.5c3.6,33.5-41.5,86.5-115,107C404.2,579,399,476,402.5,422.5c2.2-33.6,55.5-125.4,161-107
			C609.5,323.5,665.5,373.5,671.5,429.5z"/>
	</g>
	<g id="rectangle_1">
		<text transform="matrix(0.81 -0.3174 0.3649 0.9311 476.1703 460.1995)" class="st7 st8 st9">Option 2</text>
		<g>
			
				<rect x="53.2" y="497.8" transform="matrix(0.9261 -0.3774 0.3774 0.9261 -199.4353 110.3655)" class="st10" width="257.4" height="132.6"/>
			
				<rect x="53.2" y="497.8" transform="matrix(0.9261 -0.3774 0.3774 0.9261 -199.4353 110.3655)" class="st11" width="257.4" height="132.6"/>
		</g>
	</g>
	<g id="rectangle_3">
		<g>
			
				<rect x="756.2" y="213.8" transform="matrix(0.9276 -0.3735 0.3735 0.9276 -40.5781 350.7638)" class="st12" width="257.3" height="132.6"/>
			
				<rect x="756.2" y="213.8" transform="matrix(0.9276 -0.3735 0.3735 0.9276 -40.5781 350.7638)" class="st11" width="257.3" height="132.6"/>
		</g>
		<text id="ecp3" transform="matrix(0.81 -0.3174 0.3649 0.9311 824.1706 310.1997)" class="st7 st8 st9">Option 3</text>
	</g>
	<g id="rectangle_4">
		<text transform="matrix(0.81 -0.3174 0.3649 0.9311 1167.1703 171.1996)" class="st7 st8 st9">Option 4</text>
		<g>
			
				<rect x="1110.2" y="71.8" transform="matrix(0.9276 -0.3735 0.3735 0.9276 38.0822 472.7025)" class="st13" width="257.3" height="132.6"/>
			
				<rect x="1110.2" y="71.8" transform="matrix(0.9276 -0.3735 0.3735 0.9276 38.0822 472.7025)" class="st11" width="257.3" height="132.6"/>
		</g>
	</g>
	<text id="tt" transform="matrix(0.81 -0.3174 0.3649 0.9311 118.1703 595.1993)" class="st7 st8 st9">Option 1</text>
</g>
</svg>
