<svg xmlns="http://www.w3.org/2000/svg" viewBox="0 0 1920 1087"><defs><style>.cls-1{fill:#62acab;}.cls-2{fill:#474747;}.cls-13,.cls-3,.cls-33,.cls-5{fill:none;stroke-miterlimit:10;}.cls-3,.cls-5{stroke:#fff;}.cls-3{stroke-width:3px;}.cls-4{fill:#fff;}.cls-5{stroke-width:4px;}.cls-6{fill:#c99262;}.cls-7{fill:#42210b;}.cls-8{fill:#231006;}.cls-14,.cls-9{fill:#7a5642;}.cls-10{fill:#000001;}.cls-11{fill:#8e7870;}.cls-12{fill:#562f1e;}.cls-13{stroke:#030805;}.cls-14{opacity:0.54;}.cls-15{fill:#1e1c1c;}.cls-16{fill:#0f0f0f;}.cls-17{fill:#e4ebf9;}.cls-18{fill:#072e51;}.cls-19{fill:#062135;}.cls-20{fill:#f4eaf6;}.cls-21{fill:#919191;}.cls-22{fill:#161414;}.cls-23{fill:#0c0101;}.cls-24{fill:#0c0b0b;}.cls-25{fill:#262323;}.cls-26{fill:#23110c;}.cls-27{fill:#e4ac7f;}.cls-28{fill:#e6b185;}.cls-29{fill:#e6b085;}.cls-30{fill:#da9f77;}.cls-31{fill:#a06545;}.cls-32{fill:#645d5a;}.cls-33{stroke:#1b120a;stroke-width:0.5px;}.cls-34{fill:#1b120a;}.cls-35{fill:#4a4340;}.cls-36{fill:#482f27;}.cls-37{fill:#c7835d;}.cls-38{fill:#d49c6d;}</style></defs><title>template_1_preview_4</title><g id="bg"><rect class="cls-1" width="1920" height="1087"/></g><g id="shadow"><ellipse class="cls-2" cx="1087.5" cy="1032.88" rx="111.5" ry="16.12"/></g><g id="profession_box" data-name="profession box"><g id="Layer_24" data-name="Layer 24"><polygon class="cls-3" points="822.51 641.08 381.34 664.68 374.48 554.11 815.65 530.51 822.51 641.08"/></g><polygon class="cls-4" points="823.63 655.58 382.3 656.18 381.75 543.66 823.09 543.06 823.63 655.58"/></g><g id="name_box" data-name="name  box"><rect class="cls-5" x="476.49" y="412.28" width="251.19" height="75.56" transform="translate(-24.4 30.14) rotate(-2.82)"/><rect class="cls-6" x="481.41" y="410.76" width="237.63" height="69.65" transform="translate(-37.71 51.02) rotate(-4.73)"/></g><g id="shoes"><path class="cls-7" d="M1179.69,1034.76s2.49-6.89-3.82-10c0,0-3-8.27-5.86-9.29-3.49-1.23-.05-1.36-.05-1.36l-2-8.76a6.33,6.33,0,0,0-1.89-3.33c-2.18-2.16-6.31-6.08-9.19-6.44-4.15-.52-9-2.37-13.11-.86s-7.27,7.75-7.17,10.47-.14,14.27-.12,15-.56,3.42.87,4.72c0,0-8.17,2.35-4.32,13.07C1133,1037.9,1143.71,1029.34,1179.69,1034.76Z" transform="translate(-3)"/><path class="cls-8" d="M1155.38,998.08l-1.51,13.59c-.24,2.13-5.47,5.87-5.47,5.87a23.86,23.86,0,0,0-12.95,5.34,7.47,7.47,0,0,0-.9,3.38s6-6,14.29-6.51c0,0,5.23-3.74,5.47-5.87l1.74-15.65A3.22,3.22,0,0,0,1155.38,998.08Z" transform="translate(-3)"/><path class="cls-7" d="M1134.75,1023a27,27,0,0,1,15.38-6.14s5.61-3.57,5.84-5.64l1.69-15.18s-5.73-2-13.52,7c0,0-3.2,9.32-3.35,10.7S1134.74,1018.3,1134.75,1023Z" transform="translate(-3)"/><path class="cls-9" d="M1137.86,1021.07a6,6,0,0,0-.05.7,25.08,25.08,0,0,1,7.19-4.55A25.64,25.64,0,0,0,1137.86,1021.07Z" transform="translate(-3)"/><path class="cls-9" d="M1153.87,995.74a6,6,0,0,1,3.54-.16l-1.67,14.95c-.18,1.6-3.35,4.12-4.72,5.14.26,0,.52-.06.78-.08,0,0,5.12-3.56,5.35-5.6l1.67-14.95S1156.93,994.34,1153.87,995.74Z" transform="translate(-3)"/><path class="cls-10" d="M1137.7,1024.65s-2-3.16,5.31-7.92,10.06-4.53,7-20.08a5.39,5.39,0,0,1,.58.32c3.2,15.86.37,15.62-6.9,20.39s-5.31,7.92-5.31,7.92a1.15,1.15,0,0,1-1.14-.71A1.25,1.25,0,0,0,1137.7,1024.65Z" transform="translate(-3)"/><path class="cls-7" d="M1137.56,1025s-2.17-3.35,5.86-8.41,11.15-4.81,7.64-21.63c0,0-9.24-5.94-14.56,9.09l0,15.16S1134.82,1025.06,1137.56,1025Z" transform="translate(-3)"/><path class="cls-9" d="M1142.34,1017.53c7.84-5.11,10.88-4.85,7.44-21.86a7.91,7.91,0,0,0-7.13-.54,7.79,7.79,0,0,1,8.44-.19c3.44,17,.4,16.75-7.44,21.86s-5.72,8.5-5.72,8.5c-.86,0-1.27-.57-1.44-1.4C1136.87,1022.4,1138.25,1020.2,1142.34,1017.53Z" transform="translate(-3)"/><path class="cls-7" d="M1011.14,1021.4s-2.16-6.82,4.09-9.67c0,0,3.19-8,6-8.85,3.43-1.07.1-1.32.1-1.32l2.28-8.47a6.2,6.2,0,0,1,2-3.18c2.2-2,6.36-5.71,9.17-6,4.05-.36,8.87-2,12.77-.36s6.78,7.84,6.58,10.48-.39,13.94-.45,14.6.41,3.36-1,4.58c0,0,7.85,2.6,3.71,12.93C1056.37,1026.19,1046.31,1017.43,1011.14,1021.4Z" transform="translate(-3)"/><path class="cls-8" d="M1034.25,986.54l-1,12.73c-.15,2-5.13,5.64-5.13,5.64a23.62,23.62,0,0,0-12.45,5.37,6.69,6.69,0,0,0-.75,3.18s5.62-5.77,13.72-6.49c0,0,5-3.64,5.13-5.64l1.12-14.67A3.29,3.29,0,0,0,1034.25,986.54Z" transform="translate(-3)"/><path class="cls-7" d="M1016.15,1010.87s5.62-5.77,13.72-6.49c0,0,5-3.64,5.13-5.64l1.12-14.67s-5.23-1.74-12,7.23c0,0-2.64,9.09-2.74,10.42S1016,1006.33,1016.15,1010.87Z" transform="translate(-3)"/><path class="cls-9" d="M1017.56,1009.63a5.9,5.9,0,0,0,0,.68,24.53,24.53,0,0,1,6.87-4.7A25.08,25.08,0,0,0,1017.56,1009.63Z" transform="translate(-3)"/><path class="cls-9" d="M1032.36,984.32a5.88,5.88,0,0,1,3.45-.27l-1.12,14.67c-.12,1.57-3.14,4.14-4.44,5.19.25,0,.5-.08.76-.1,0,0,4.89-3.65,5-5.65l1.12-14.67S1035.3,982.85,1032.36,984.32Z" transform="translate(-3)"/><path class="cls-8" d="M1055,1015.7s2.14-3.53-6.6-8.37-12-4.44-9.15-21.53a6.39,6.39,0,0,0-.66.38c-2.92,17.43.36,17,9.1,21.86s6.6,8.37,6.6,8.37a1.34,1.34,0,0,0,1.3-.83A1.55,1.55,0,0,1,1055,1015.7Z" transform="translate(-3)"/><path class="cls-7" d="M1052.65,1013.5s2.25-3.18-5.39-8.46-10.7-5.16-6.59-21.45c0,0,9.27-5.43,13.86,9.47l-.57,14.82S1055.32,1013.7,1052.65,1013.5Z" transform="translate(-3)"/><path class="cls-9" d="M1049.23,1007.16c-8.22-5.59-11.51-5.46-7.11-22.68a8.88,8.88,0,0,1,7.69-.22,8.75,8.75,0,0,0-9.07-.59c-4.4,17.22-1.11,17.09,7.11,22.68s5.8,8.95,5.8,8.95c.92.07,1.39-.53,1.61-1.36C1054.92,1012.4,1053.53,1010.09,1049.23,1007.16Z" transform="translate(-3)"/><path class="cls-8" d="M1182.48,1039.45s-2-5.77-12.74-5.83-35.74-4.39-38.56,4.32c0,0,.08,3.42,6.12,4C1150.39,1043.16,1174.33,1043.54,1182.48,1039.45Z" transform="translate(-3)"/><path class="cls-11" d="M1181.74,1035.24s-2.84-4.24-16.13-5.17c-9.25-.65-20.19-.51-20.19-.51s-12.3.84-13.59,6.33l49.24.81Z" transform="translate(-3)"/><path class="cls-12" d="M1182.82,1039.21s1.31-4.26-2.79-4.91-33.43-3.1-42.94-.86c-9.25,2.18-5.2,6.54-5.2,6.54s2.51-3.68,10-3.07,20.44-.26,20.44-.26,12.29.39,13,.54C1179,1038,1179.42,1040,1182.82,1039.21Z" transform="translate(-3)"/><path class="cls-8" d="M1007.7,1025.94s2.3-5.51,12.8-4.9,35.16-2.07,37.37,6.61c0,0-.29,3.33-6.22,3.51C1038.79,1031.55,1015.41,1030.43,1007.7,1025.94Z" transform="translate(-3)"/><path class="cls-11" d="M1008.68,1021.87s3-4,16.06-4.05c9.07-.06,19.74.75,19.74.75s12,1.58,12.88,7l-48.11-2.25Z" transform="translate(-3)"/><path class="cls-12" d="M1007.39,1025.69s-1-4.23,3-4.62,32.83-1,42,1.82c8.9,2.7,4.67,6.7,4.67,6.7s-2.22-3.74-9.58-3.61-19.94-1.52-19.94-1.52-12-.38-12.68-.28C1011.15,1024.74,1010.66,1026.63,1007.39,1025.69Z" transform="translate(-3)"/><path class="cls-13" d="M1160.39,996.76c0-6.94-17.05-7.73-17.09-.09" transform="translate(-3)"/><path class="cls-13" d="M1159.92,1000.57c-.24-6.93-17.35-7-17.08.59" transform="translate(-3)"/><path class="cls-13" d="M1162.11,1012.82c-.24-6.93-17.35-7-17.08.59" transform="translate(-3)"/><path class="cls-13" d="M1162.44,1008.4c-.24-6.93-17.35-7-17.08.59" transform="translate(-3)"/><path class="cls-13" d="M1044.73,1002.08c-.24-6.93-17.35-7-17.08.59" transform="translate(-3)"/><path class="cls-13" d="M1043.66,985c.38-8-19.18-9.7-19.6-.94" transform="translate(-3)"/><path class="cls-13" d="M1044.55,987.54c.32-6.78-16.34-8.26-16.7-.8" transform="translate(-3)"/><path class="cls-13" d="M1044.91,996c.32-6.78-16.34-8.26-16.7-.8" transform="translate(-3)"/><path class="cls-14" d="M1180.35,1034.31s-6.16-5.47-25.61-4.46-18.3.38-22.71,4.4c0,0-4.49-6.65,22.22-7.27S1180.35,1034.31,1180.35,1034.31Z" transform="translate(-3)"/><path class="cls-14" d="M1007.93,1022.34a.18.18,0,0,0,.27.19c1.53-1,9.44-4.65,23.64-4.45,19.21.27,20.11,2.77,24.13,6.81a.18.18,0,0,0,.29,0c.55-1.11,2.24-7.5-21.56-9.23C1011.78,1014,1008.33,1020.72,1007.93,1022.34Z" transform="translate(-3)"/></g><g id="Layer_34" data-name="Layer 34"><path class="cls-15" d="M1138.21,635.17s-3.71,18.51-2.32,30.36S1170.32,997,1170.32,997s-27.32,14.43-35.74,4.39L1106,815.92l-32-152.77s-10.53-12.55-13.71-1-1.07,164.33-1.07,164.33l1.4,162.17s-21.46,10.1-36.56-2.79l-7.9-167.37L998.46,629.19S1130.64,644,1138.21,635.17Z" transform="translate(-3)"/><path class="cls-16" d="M1064.27,634.46c33.83,2.53,67.77,3.9,71.53-.36,0,0-.18.87-.44,2.35C1122.76,638.27,1092.89,636.7,1064.27,634.46Z" transform="translate(-3)"/><path class="cls-16" d="M1064.44,656.86c4.4-2.73,11.34,5.3,11.34,5.3l33,151.76,29.53,184.21a10,10,0,0,0,5.53,3.1c-4.48.2-8.49-.68-10.94-3.52L1103.33,813.5l-33-151.76A24.53,24.53,0,0,0,1064.44,656.86Z" transform="translate(-3)"/><path class="cls-16" d="M998.65,628.45l18.45,187.79,8.4,166.2a28.09,28.09,0,0,0,13.84,6.13A29.56,29.56,0,0,1,1020.1,982l-8.4-166.2-18.47-188Z" transform="translate(-3)"/><path class="cls-16" d="M1165.52,956.31l4.88,39.49s-15,15.6-34.12,7.16l-1.22-9.86S1160.2,1000.13,1165.52,956.31Z" transform="translate(-3)"/><path class="cls-16" d="M1058.57,946.74l.22,41.17s-19.14,8.13-39.07-3l.75-9S1047.69,988.68,1058.57,946.74Z" transform="translate(-3)"/></g><g id="torso"><path class="cls-17" d="M1056.49,407.74s-54,2-63,6.16.23,209.21-.11,212.89c-1.63,17.78,137.86,17,140.67,4.87,1.6-6.92,15.82-210.76,7.15-215.48C1124.36,407,1056.49,407.74,1056.49,407.74Z" transform="translate(-3)"/><path class="cls-17" d="M1143,415.3c-16.87-9.19-84.74-8.44-84.74-8.44s-46,1.74-60.13,5.24c17.47-2.91,55.7-4.36,55.7-4.36s67.88-.75,84.74,8.44c8.67,4.72-5.55,208.56-7.15,215.48-.42,1.81-3.87,3.37-9.43,4.65,8.13-1.42,13.34-3.28,13.86-5.53C1137.45,623.86,1151.67,420,1143,415.3Z" transform="translate(-3)"/><path class="cls-17" d="M1140.64,416.5c1.48,7.93,2.14,25.6,2.28,47.55C1143.46,438.28,1143,419.24,1140.64,416.5Z" transform="translate(-3)"/><path class="cls-17" d="M1001.1,630.6c.22-3.74-15-211.41-6.35-215.89,3.39-1.76,13.59-3.44,24.72-4.82-11.93,1-23.09,2.35-26.74,4-9,4.16.23,210.89-.11,214.59-.43,4.71,8.9,8.13,22.92,10.39C1006.5,637.05,1000.89,634.33,1001.1,630.6Z" transform="translate(-3)"/><path class="cls-17" d="M1056.47,642.21c33.26.83,68.47-1.82,75.5-7.15C1118.34,639.6,1085.73,642.44,1056.47,642.21Z" transform="translate(-3)"/><path class="cls-17" d="M1047.31,417.79s-3.22-3.42-3.22-5.91,16.53-4.13,35.12-4.06c0,0,0,7.48-4.25,10S1070.7,405.32,1047.31,417.79Z" transform="translate(-3)"/><path class="cls-17" d="M1116,584.32s-25.7,48.74-54.94,51.4c0,0,42.53,17.72,64.69,10.63l9.75-16,5-71.45Z" transform="translate(-3)"/></g><g id="collar"><polygon class="cls-18" points="1060.29 428.79 1054.46 436.68 1056.41 441.93 1049.6 586.46 1063.21 611.42 1079.73 582.52 1067.1 436.68 1060.29 428.79"/><polygon class="cls-19" points="1054.21 587.8 1060.58 445.58 1058.76 440.41 1063.27 434 1060.58 430.74 1055.12 438.49 1056.94 443.67 1050.58 585.89 1063.31 610.45 1064.67 607.96 1054.21 587.8"/><polygon class="cls-20" points="1071.76 425.26 1070.87 425.26 1070.87 425.26 1071.76 425.26 1071.76 425.26"/><path class="cls-21" d="M1052.48,439.37s-2.32-2.14-7.22-19.49a46.26,46.26,0,0,1-1.3-5.94c-.54,2.53-.41,6.42,1.3,12.48,4.91,17.36,7.22,19.49,7.22,19.49l12.27-19.65s-1.11-.8-2.73-2.17Z" transform="translate(-3)"/><path class="cls-17" d="M1063.71,422.94a59.29,59.29,0,0,1-9.84-9.4c-2.2-2.67-4.32-3.57-5.77-6.89,0,0-7.58-.21-2.91,16.44s6.87,18.7,6.87,18.7Z" transform="translate(-3)"/><path class="cls-17" d="M1062.41,422.88s4.36-1.17,9-7.1c2.17-2.79,2.73-5.52,4.09-8.93,0,0,10.69-.43,6.63,16.51s-6.26,19.11-6.26,19.11Z" transform="translate(-3)"/><path class="cls-21" d="M1082.09,422.48c-4.06,16.94-6.26,19.11-6.26,19.11l-11.55-16.87a10.15,10.15,0,0,1-1.87.82l13.42,19.6s2.2-2.17,6.26-19.11a26.11,26.11,0,0,0,.83-8.57A33.24,33.24,0,0,1,1082.09,422.48Z" transform="translate(-3)"/></g><g id="coat_left_sleeve" data-name="coat left sleeve"><path class="cls-22" d="M989.8,412.38l-65.18,139a7.17,7.17,0,0,0-.55,1.65c-.73,3.71-2.82,19.33,12,26.63s77,46.41,101.53,57.17c1.35.59,6.38,4.77,8.47,4.33,2.39-.5,5.46-8.59,7-10.58l4.17-12c1.6-3.43-3.26-8-6.39-10.34-14.37-10.76-47.7-37.33-76.36-54-3.64-2.12-3.9-3.57-2.11-7.28l41.7-86.62s13.56-33.67-15.21-50.68A6.26,6.26,0,0,0,989.8,412.38Z" transform="translate(-3)"/><path class="cls-23" d="M1008.71,409.48a7.35,7.35,0,0,0-5.23-.47l.15.06c29.9,14.92,9.22,46.94,9.22,46.94l-54.26,86.84c-2.17,3.63,3.64,8.11,7.22,10.3,32.17,19.71,66.12,33.58,80.91,43.19,3.22,2.09,3.89,7.9,1.94,11.25l-6.27,9.73c-1.65,1.82-3.76,6-6.12,7.11a11.43,11.43,0,0,0,4.47.67c2.61-.59,4.94-5.39,6.74-7.37l6.27-9.73c2-3.35,1.28-9.16-1.94-11.25-14.79-9.61-49-33.44-78.78-48.07-3.78-1.86-4-3.22-1.8-6.86l50.59-84.64S1038.6,424.4,1008.71,409.48Z" transform="translate(-3)"/></g><g id="coat_right_sleeve" data-name="coat right sleeve"><path class="cls-22" d="M1149.13,417.5l60.69,140.1a7,7,0,0,1,.47,1.51c.65,3.51,2.1,16.86-12.15,22.25-14,5.31-75,31.15-95.64,39.33-3.24,1.28-10.05,2.82-9.27.72l-6.62-10.76a14.84,14.84,0,0,1-1.86-11.14c.56-2.34,1.55-4.4,2.88-5.24,13.61-8.6,46.49-26.2,73.74-39,4-1.89,5.78-7.11,3.85-11.45l-37-83.31s-15.19-33.45,13-46.41A6,6,0,0,1,1149.13,417.5Z" transform="translate(-3)"/><path class="cls-23" d="M1085.4,616.12a14.81,14.81,0,0,1-1.93-11.17c.56-2.34,1.55-4.4,2.89-5.23,13.74-8.54,46.92-26,74.42-38.69,4.07-1.88,12.33-4.13,10.37-8.49l-42.07-95s-17.67-25.15,10.74-38a5.57,5.57,0,0,1,2.67-.47,5.86,5.86,0,0,0-6.57-1.3c-28.41,12.84-12.92,46.43-12.92,46.43l37.73,83.63c2,4.36.22,9.57-3.85,11.45-27.5,12.67-60.69,30.15-74.42,38.69-1.34.83-2.33,2.89-2.89,5.23a14.81,14.81,0,0,0,1.93,11.17l6.74,10.81c-.41,1.08,1.23,1.21,3.36.9Z" transform="translate(-3)"/></g><g id="coat"><path class="cls-22" d="M1045.58,404.2s-44.85-1.08-52.18,6.38C987.13,417,987.78,645,987.78,645s6.42,2.33,19.27,4.65,55.31,7.75,55.31,7.75l-4.18-112.78-6.27-97.88Z" transform="translate(-3)"/><path class="cls-22" d="M1077.74,404.2s52.44,0,66.56,8.72c5.25,3.24-2,228.84-2,228.84s-2.85,8.48-14.08,10.74-62.56,6.7-62.56,6.7l2-102.43,2-89.36Z" transform="translate(-3)"/><path class="cls-24" d="M1036,459.3l15.69-13.4-21-9.8L1044,404.33l-4.69-.13L1026,436.11l21,9.8-15.69,13.4,26.37,143.21c.14.31.44-10.77.5-23Z" transform="translate(-3)"/><path class="cls-25" d="M1044.11,404l-11.79,32.29,18.57,9.9L1037,459.71l23.22,144.87c.21.55.92-34.41,0-49-2-32.66-1.73-86.78-4.12-104.58-2.64-19.74-9.22-41.92-6.31-48.83Z" transform="translate(-3)"/><path class="cls-24" d="M1079.75,443.77l16.61-9.26-10.94-30.44-4.85.14c.05.13.08.3.13.44l10.74,29.86-15.67,8.74c0,.33-.1.66-.15,1l16.37,9.55-22.49,114.93c0,12.05.21,23.82.33,23.48l27.09-138.41Z" transform="translate(-3)"/><path class="cls-25" d="M1080.79,404.07l9.18,30.44L1076,443.77l14.4,10L1067.7,592.19c-.16.52-.54-27.55,0-41.32,1.2-30.74,2.07-82.63,4.41-102.58,2.18-18.54,3.85-40,3.85-46.16Z" transform="translate(-3)"/><path class="cls-26" d="M1146.2,451.49s-6.2,193.11-18.59,197.06c0,0,12.39-3.94,14.46-13.79s4.13-183.26,4.13-183.26Z" transform="translate(-3)"/><path class="cls-26" d="M990.57,458.49c.3,1.77-1,192,11.73,187.53l-14.07-3.71c0-9.47,2.35-183.82,2.35-183.82Z" transform="translate(-3)"/></g><g id="neck"><path class="cls-27" d="M1048.22,397.42v10.33c0,4.13,11.54,16.53,14.46,16.53,2.07,0,10.33-8.26,12.39-16.53s0-10.33,0-10.33Z" transform="translate(-3)"/></g><g id="face"><path class="cls-28" d="M1021.2,333s-4-23.75,4.52-37.32c0,0,9.61-15.83,28.28-18.1s36.19,5.09,44.11,20.36c0,0,5.66,13,4,25.45s-1.7,11.31-1.7,11.31,1.41-1.41,2.26-1.13,4,1.13,4,6.79-2.26,15.83-5.66,19.79-5.66,4-5.66,4,1.39,11.54-11.31,25.45c-11.88,13-15.27,13.57-21.49,13.57s-18.1,0-32.23-24.32a56.72,56.72,0,0,1-4-15.83C1025.52,352.18,1021.2,333,1021.2,333Z" transform="translate(-3)"/><path class="cls-29" d="M1021.2,333.55s-4.52-.57-5.09,5.66,5.66,20.92,5.66,20.92,4,4,5.09,3.39S1025.72,338.64,1021.2,333.55Z" transform="translate(-3)"/><path class="cls-30" d="M1022,339.49s-.85-11.59-2-15-1.13-26,11.88-36.76c0,0,3.39-2.26,4-.57s2.26,7.92-8.48,22.62c0,0-4.52,11.31-3,30.18,0,.31,4.15,28.07,4.71,31.46.19,1.13,5.71,13.08,7.35,15.27,2.65,3.54,8.48,11.31,14.7,13,5.46,1.49,10.18,2.83,18.1,0,7.4-2.64,10.74-6.22,10.74-6.22s-9.33,15-27.71,8.48c-14.72-5.21-22.65-24.38-24.08-28.19a6.63,6.63,0,0,1-.34-1.26C1027.21,368.43,1023.33,344.9,1022,339.49Z" transform="translate(-3)"/><path class="cls-30" d="M1096.41,356.74c-.55-.14,2.83-17,5.66-18.1,0,0,3.39.57,1.7,6.79a57.29,57.29,0,0,1-3.39,9.61S1098.67,357.3,1096.41,356.74Z" transform="translate(-3)"/><path class="cls-30" d="M1025.78,355.75c.55-.12-2.15-17.06-4.93-18.31,0,0-3.41.43-2,6.71a57.29,57.29,0,0,0,3,9.74S1023.49,356.23,1025.78,355.75Z" transform="translate(-3)"/><path class="cls-31" d="M1101.54,340.75s2.8,2.13.73,10c0,0,3.61-9,.52-11.88A1.57,1.57,0,0,0,1101.54,340.75Z" transform="translate(-3)"/><path class="cls-31" d="M1021.46,339.62s-2.8,2.13-.73,10c0,0-3.61-9-.52-11.88A1.57,1.57,0,0,1,1021.46,339.62Z" transform="translate(-3)"/></g><g id="beard"><path class="cls-32" d="M1040.16,373.13c-.72.63-.47,27.62,16.9,28.61s26.28-.49,26.28-28.61C1083.34,373.13,1062.69,353.4,1040.16,373.13ZM1066,397.79c-1.88,0-1.88-7.4-1.88-7.4h-4.22c.47,3-2.35,7.4-2.35,7.4-16-1-14.08-24.66-14.08-24.66,21.12-12.33,37.55.49,37.55.49C1082.4,396.81,1067.85,397.79,1066,397.79Z" transform="translate(-3)"/></g><g id="eyebrows"><path class="cls-33" d="M1088.51,334.41" transform="translate(-3)"/><path class="cls-34" d="M1033,332a16.87,16.87,0,0,1,9.28-4.74,4.53,4.53,0,0,1,1.13,0c2.21.22,6.85,1.18,9.38,5,0,0,1-.15.72-2.7-.21-1.8-6.13-6.31-11.95-4.29C1033.57,328,1033,332,1033,332Z" transform="translate(-3)"/><path class="cls-34" d="M1090.42,331.54a16.87,16.87,0,0,0-9.48-4.33,4.53,4.53,0,0,0-1.13,0c-2.2.31-6.79,1.48-9.15,5.45,0,0-1-.11-.84-2.67.13-1.81,5.85-6.57,11.75-4.81C1089.68,327.62,1090.42,331.54,1090.42,331.54Z" transform="translate(-3)"/></g><g id="hair"><path class="cls-35" d="M1024.78,350.82h1.91s-5.72-45,10.49-57.71c0,0,8.59,5.87,23.85,4.89s23.85-6.85,23.85-6.85,19.08,4.89,13.36,58.69l1.91,1,1-9.78a16.88,16.88,0,0,1,2.86-3.91c1.91-2,2.86-32.28,0-39.13s-21.92-22.5-43.88-22.5c-11.45,0-23.85,2.93-37.3,16.63a12.1,12.1,0,0,0-3.35,7.06,130.71,130.71,0,0,0,1.54,39.89S1025.74,338.1,1024.78,350.82Z" transform="translate(-3)"/></g><g id="mouth"><path class="cls-36" d="M1074.18,378.09s-14.12-2.35-26.21,1.2C1048,379.3,1059.74,368.76,1074.18,378.09Z" transform="translate(-3)"/></g><g id="nose"><path class="cls-37" d="M1061.65,361.68c-1.58,0-5.93-3.46-7-4.32l-.24.71s5.42,5.42,7.23,5.42,7.23-5.42,7.23-5.42l-.24-.71C1067.58,358.22,1063.23,361.68,1061.65,361.68Z" transform="translate(-3)"/></g><g id="face_shadow" data-name="face shadow"><path class="cls-38" d="M1042.13,372.63s-2.72-7.75,8.16-10.33C1050.29,362.3,1039.41,367.46,1042.13,372.63Z" transform="translate(-3)"/><path class="cls-38" d="M1080.84,372.63s2.72-7.75-8.16-10.33C1072.68,362.3,1083.56,367.46,1080.84,372.63Z" transform="translate(-3)"/><path class="cls-38" d="M1056.24,382.54s2.92,7.67,12.9,2.62C1069.13,385.16,1057.49,388.24,1056.24,382.54Z" transform="translate(-3)"/></g></svg>