<svg xmlns="http://www.w3.org/2000/svg" viewBox="0 0 1920 1082"><defs><style>.cls-1{fill:#62acab;}.cls-2{fill:#fff;}.cls-3{fill:none;stroke:#fff;stroke-width:2px;}.cls-3,.cls-4{stroke-miterlimit:10;}.cls-4{fill:#c99263;stroke:#f7f6f5;stroke-width:3px;}.cls-5{fill:#f7f6f5;}</style></defs><title>template_1_preview_8</title><g id="bg"><rect class="cls-1" width="1920" height="1082"/></g><g id="Layer_2" data-name="Layer 2"><polygon class="cls-2" points="327.5 728.5 327.5 879.5 373.5 907.5 373.5 711.5 327.5 728.5"/><path class="cls-3" d="M539.5,723.5l-166-13V905.71l168-12S536.82,720.82,539.5,723.5Z" transform="translate(0 1)"/><polygon class="cls-3" points="373.5 712.5 410.5 799.5 597.5 798.5 539.5 724.5 373.5 712.5"/><polygon class="cls-2" points="374 711 305 759 275 766 328 728 374 711"/><circle class="cls-4" cx="212.5" cy="311.5" r="36"/><circle class="cls-4" cx="424.5" cy="382.5" r="36"/><circle class="cls-4" cx="308.5" cy="611.5" r="36"/><circle class="cls-4" cx="504.5" cy="610.5" r="36"/><circle class="cls-4" cx="795.5" cy="481.5" r="34"/><circle class="cls-4" cx="787.5" cy="647.5" r="34"/><circle class="cls-4" cx="787.5" cy="805.5" r="34"/><circle class="cls-4" cx="789.5" cy="298.5" r="32"/><circle class="cls-4" cx="623.5" cy="194.5" r="26"/><circle class="cls-4" cx="626.5" cy="522.5" r="26"/><circle class="cls-4" cx="179.5" cy="547.5" r="26"/><path class="cls-5" d="M205.5,312s-9-7-8-7h12l3-10,4,10,10,1-7,6,3,11-9-6-10,8Z" transform="translate(0 1)"/><path class="cls-5" d="M419.5,383s-9-7-8-7h12l3-10,4,10,10,1-7,6,3,11-9-6-10,8Z" transform="translate(0 1)"/><path class="cls-5" d="M300.5,611s-9-7-8-7h12l3-10,4,10,10,1-7,6,3,11-9-6-10,8Z" transform="translate(0 1)"/><path class="cls-5" d="M498.5,610s-9-7-8-7h12l3-10,4,10,10,1-7,6,3,11-9-6-10,8Z" transform="translate(0 1)"/><path class="cls-5" d="M789,482s-8.15-6.9-7.24-6.9H792.6l2.72-9.85,3.62,9.85,9.06,1L801.66,482l2.72,10.84-8.15-5.91-9.06,7.88Z" transform="translate(0 1)"/><path class="cls-5" d="M620.87,522.6s-6.91-5.85-6.14-5.85h9.22l2.3-8.35,3.07,8.35,7.68.84-5.38,5,2.3,9.19-6.91-5-7.68,6.68Z" transform="translate(0 1)"/><path class="cls-5" d="M617.87,194.85S611,189,611.73,189h9.22l2.3-8.35,3.07,8.35,7.68.84-5.38,5,2.3,9.19L624,199l-7.68,6.68Z" transform="translate(0 1)"/><path class="cls-5" d="M175.87,546.85S169,541,169.73,541h9.22l2.3-8.35,3.07,8.35,7.68.84-5.38,5,2.3,9.19L182,551l-7.68,6.68Z" transform="translate(0 1)"/><path class="cls-5" d="M783.55,298.75s-8.15-6.9-7.24-6.9h10.87l2.72-9.85,3.62,9.85,9.06,1-6.34,5.91,2.72,10.84-8.15-5.91-9.06,7.88Z" transform="translate(0 1)"/><path class="cls-5" d="M781.74,645.56s-8.15-6.9-7.24-6.9h10.87l2.72-9.85,3.62,9.85,9.06,1-6.34,5.91,2.72,10.84L789,650.48l-9.06,7.88Z" transform="translate(0 1)"/><path class="cls-5" d="M781.74,802.9s-8.15-6.9-7.24-6.9h10.87l2.72-9.85L791.7,796l9.06,1-6.34,5.91,2.72,10.84L789,807.82l-9.06,7.88Z" transform="translate(0 1)"/></g></svg>