<svg xmlns="http://www.w3.org/2000/svg" viewBox="0 0 1920 1081"><defs><style>.cls-1{fill:#62acab;}.cls-14,.cls-2,.cls-39{fill:none;stroke-miterlimit:10;}.cls-2{stroke:#fff;stroke-width:4px;}.cls-3{fill:#bc8c66;}.cls-4{font-size:42px;}.cls-4,.cls-5{fill:#fcfcfc;font-family:SegoeUI-Bold, Segoe UI;font-weight:700;}.cls-5{font-size:82px;}.cls-6{letter-spacing:0.01em;}.cls-7{fill:#dae7e9;}.cls-8{fill:#42210b;}.cls-9{fill:#231006;}.cls-10,.cls-15{fill:#7a5642;}.cls-11{fill:#000001;}.cls-12{fill:#8e7870;}.cls-13{fill:#562f1e;}.cls-14{stroke:#030805;}.cls-15{opacity:0.54;}.cls-16{fill:#1e1c1c;}.cls-17{fill:#0f0f0f;}.cls-18{fill:#e4ebf9;}.cls-19{fill:#072e51;}.cls-20{fill:#062135;}.cls-21{fill:#f4eaf6;}.cls-22{fill:#919191;}.cls-23{fill:#161414;}.cls-24{fill:#0c0101;}.cls-25{fill:#fff;}.cls-26{fill:#0c0b0b;}.cls-27{fill:#262323;}.cls-28{fill:#23110c;}.cls-29{fill:#e5a46e;}.cls-30{fill:#ebb27f;}.cls-31{fill:#e9b279;}.cls-32{fill:#ffe5ad;}.cls-33{fill:#e4ac7f;}.cls-34{fill:#e6b185;}.cls-35{fill:#e6b085;}.cls-36{fill:#da9f77;}.cls-37{fill:#a06545;}.cls-38{fill:#645d5a;}.cls-39{stroke:#1b120a;stroke-width:0.5px;}.cls-40{fill:#1b120a;}.cls-41{fill:#4a4340;}.cls-42{fill:#482f27;}.cls-43{fill:#fcffff;}.cls-44{fill:#c7835d;}.cls-45{fill:#d49c6d;}</style></defs><title>template_1_preview_0</title><g id="bg"><rect class="cls-1" width="1920" height="1081"/></g><g id="profession_box" data-name="profession box"><rect class="cls-2" x="922.92" y="584" width="239.08" height="66.38"/><rect class="cls-3" x="917.76" y="579.14" width="233.46" height="61.26" transform="translate(55.49 -85.01) rotate(4.95)"/></g><g id="text_layer_profession" data-name="text layer profession"><text class="cls-4" transform="translate(921.03 620.95) rotate(4.89)">HE’S a</text></g><g id="name_box" data-name="name  box"><g id="Layer_24" data-name="Layer 24"><rect class="cls-2" x="938.67" y="386.25" width="365.05" height="95.36" transform="translate(-22.3 61.65) rotate(-3.02)"/></g><rect class="cls-3" x="928.8" y="380.54" width="363.34" height="99.14" transform="translate(-31.74 91.83) rotate(-4.57)"/></g><g id="text_layer_name" data-name="text layer name"><text class="cls-5" transform="matrix(1, -0.07, 0.07, 1, 954.83, 471.72)">ME<tspan class="cls-6" x="122.12" y="0">E</tspan><tspan x="166.48" y="0">T </tspan></text></g><g id="shadow"><ellipse class="cls-7" cx="458.39" cy="1017.71" rx="47.54" ry="11.22"/><ellipse class="cls-7" cx="566.5" cy="1017.52" rx="106.62" ry="13.48"/></g><g id="shoes"><path class="cls-8" d="M439.36,1011.15s-1.8-6.48,4.2-8.93c0,0,3.29-7.36,6-8.09,3.28-.88.14-1.24.14-1.24l2.45-7.87a5.81,5.81,0,0,1,2-2.91c2.14-1.83,6.2-5.13,8.86-5.26,3.83-.19,8.44-1.54,12.06.13s6.12,7.61,5.83,10.08-.87,13.08-.94,13.7.27,3.17-1.13,4.26c0,0,7.31,2.72,3,12.27C481.86,1017.29,472.68,1008.7,439.36,1011.15Z" transform="translate(-1 2)"/><path class="cls-9" d="M462.86,979.31l-1.39,12.47c-.22,2-5,5.39-5,5.39a21.91,21.91,0,0,0-11.89,4.9,6.86,6.86,0,0,0-.83,3.1s5.49-5.5,13.12-6c0,0,4.8-3.43,5-5.39l1.6-14.37A3,3,0,0,0,462.86,979.31Z" transform="translate(-1 2)"/><path class="cls-8" d="M443.92,1002.21A24.8,24.8,0,0,1,458,996.57s5.15-3.27,5.37-5.17L465,977.46s-5.27-1.87-12.42,6.41c0,0-2.94,8.56-3.08,9.83S443.91,997.88,443.92,1002.21Z" transform="translate(-1 2)"/><path class="cls-10" d="M445.06,1001.53a5.54,5.54,0,0,0,0,.64,23,23,0,0,1,6.6-4.18A23.54,23.54,0,0,0,445.06,1001.53Z" transform="translate(-1 2)"/><path class="cls-10" d="M459.77,978.27a5.52,5.52,0,0,1,3.25-.14l-1.53,13.72c-.16,1.47-3.08,3.78-4.34,4.72l.72-.07s4.7-3.27,4.91-5.14l1.53-13.72S462.58,977,459.77,978.27Z" transform="translate(-1 2)"/><path class="cls-11" d="M478.51,1004.84s2-2.75-4.3-7.63-8.9-4.85-5-18.87a5,5,0,0,0-.56.25c-4,14.3-1.43,14.27,4.89,19.15s4.3,7.63,4.3,7.63a1.05,1.05,0,0,0,1.09-.57A1.15,1.15,0,0,1,478.51,1004.84Z" transform="translate(-1 2)"/><path class="cls-8" d="M478.62,1005.13s2.22-2.91-4.78-8.11-9.87-5.19-5.48-20.34c0,0,8.88-4.79,12.69,9.34l-1,13.88S481.11,1005.41,478.62,1005.13Z" transform="translate(-1 2)"/><path class="cls-10" d="M474.75,998c-6.82-5.23-9.62-5.2-5.28-20.53a7.26,7.26,0,0,1,6.56,0,7.15,7.15,0,0,0-7.71-.77C464,992,466.79,992,473.61,997.22s4.64,8.18,4.64,8.18c.79.09,1.21-.43,1.42-1.18C479.42,1002.83,478.32,1000.72,474.75,998Z" transform="translate(-1 2)"/><path class="cls-8" d="M594.6,1010.71s2.46-6.09-3.07-9.14c0,0-2.36-7.52-4.91-8.53-3.07-1.22,0-1.22,0-1.22l-1.5-7.92a5.69,5.69,0,0,0-1.57-3c-1.87-2-5.42-5.67-8-6.09-3.68-.61-8-2.44-11.66-1.22s-6.75,6.7-6.75,9.14-.61,12.79-.61,13.4-.61,3,.61,4.26c0,0-7.37,1.83-4.3,11.57C552.85,1011.93,562.67,1004.62,594.6,1010.71Z" transform="translate(-1 2)"/><path class="cls-9" d="M575.87,977.18v11.72c0,1.84,4.3,5.53,4.3,5.53a21.69,21.69,0,0,1,11,5.78,6.15,6.15,0,0,1,.47,3,22.14,22.14,0,0,0-12.11-6.91s-4.3-3.68-4.3-5.53V977.24A3,3,0,0,1,575.87,977.18Z" transform="translate(-1 2)"/><path class="cls-8" d="M590.74,1000.72a22.14,22.14,0,0,0-12.11-6.91s-4.3-3.68-4.3-5.53V974.79s4.91-1.23,10.5,7.46c0,0,1.78,8.51,1.78,9.73S591.19,996.58,590.74,1000.72Z" transform="translate(-1 2)"/><path class="cls-10" d="M589.54,999.48a5.42,5.42,0,0,1,0,.63,22.52,22.52,0,0,0-6-4.78A23,23,0,0,1,589.54,999.48Z" transform="translate(-1 2)"/><path class="cls-10" d="M577.77,975.28a5.4,5.4,0,0,0-3.14-.49v13.51c0,1.44,2.58,4,3.7,5.06l-.69-.15s-4.22-3.68-4.22-5.53V974.17S575.17,973.73,577.77,975.28Z" transform="translate(-1 2)"/><path class="cls-9" d="M554.83,1002.43s-1.71-3.39,6.62-7.2,11.27-3.23,9.88-19.07a5.87,5.87,0,0,1,.58.39c1.46,16.16-1.52,15.56-9.86,19.38s-6.62,7.2-6.62,7.2a1.23,1.23,0,0,1-1.13-.85A1.42,1.42,0,0,0,554.83,1002.43Z" transform="translate(-1 2)"/><path class="cls-8" d="M557.15,1000.57s-1.84-3.07,5.53-7.37,10.16-4,7.53-19.18c0,0-8.11-5.62-13.35,7.7l-.51,13.6S554.69,1000.57,557.15,1000.57Z" transform="translate(-1 2)"/><path class="cls-10" d="M560.72,995c7.92-4.54,10.92-4.2,8.1-20.27a8.16,8.16,0,0,0-7-.74,8,8,0,0,1,8.34.09c2.82,16.07-.18,15.73-8.1,20.27s-5.94,7.79-5.94,7.79c-.85,0-1.24-.58-1.38-1.36C555.15,999.41,556.58,997.39,560.72,995Z" transform="translate(-1 2)"/><path class="cls-9" d="M436.48,1015.25s2.22-5.14,12.07-4.45,33-1.52,35,6.66c0,0-.31,3.12-5.88,3.22C465.59,1020.89,443.65,1019.56,436.48,1015.25Z" transform="translate(-1 2)"/><path class="cls-12" d="M437.45,1011.44s2.89-3.68,15.12-3.61c8.51.05,18.52.95,18.52.95s11.2,1.63,12,6.75l-45.13-2.7Z" transform="translate(-1 2)"/><path class="cls-13" d="M436.18,1015s-.9-4,2.9-4.3,30.82-.5,39.37,2.22c8.32,2.64,4.3,6.35,4.3,6.35s-2-3.54-8.95-3.51-18.69-1.67-18.69-1.67-11.28-.5-11.9-.41C439.72,1014.17,439.24,1015.93,436.18,1015Z" transform="translate(-1 2)"/><path class="cls-9" d="M597.42,1015.11s-1.72-5.21-11.37-5.38-32-4.35-34.67,3.43c0,0,0,3.07,5.45,3.65C568.57,1018.07,590.06,1018.68,597.42,1015.11Z" transform="translate(-1 2)"/><path class="cls-12" d="M596.81,1011.32s-2.5-3.84-14.42-4.83c-8.3-.69-18.12-.69-18.12-.69s-11.05.61-12.28,5.53l44.2,1.3Z" transform="translate(-1 2)"/><path class="cls-13" d="M597.73,1014.9s1.22-3.81-2.45-4.44-30-3.17-38.55-1.27C548.4,1011,552,1015,552,1015s2.29-3.27,9-2.64,18.36,0,18.36,0,11,.5,11.63.63C594.35,1013.77,594.67,1015.53,597.73,1014.9Z" transform="translate(-1 2)"/><path class="cls-14" d="M459.68,977.72c.45-6.35,16.15-5.88,15.65,1.12" transform="translate(-1 2)"/><path class="cls-14" d="M459.85,981.23c.71-6.33,16.37-5.23,15.6,1.74" transform="translate(-1 2)"/><path class="cls-14" d="M457,992.3c.71-6.33,16.37-5.23,15.6,1.74" transform="translate(-1 2)"/><path class="cls-14" d="M457,988.23c.71-6.33,16.37-5.23,15.6,1.74" transform="translate(-1 2)"/><path class="cls-14" d="M565.2,990.67c.71-6.33,16.37-5.23,15.6,1.74" transform="translate(-1 2)"/><path class="cls-14" d="M567.37,975.11c.21-7.31,18.24-7.53,18,.51" transform="translate(-1 2)"/><path class="cls-14" d="M566.38,977.37c.18-6.23,15.54-6.42,15.34.44" transform="translate(-1 2)"/><path class="cls-14" d="M565.46,985.12c.18-6.23,15.54-6.42,15.34.44" transform="translate(-1 2)"/><path class="cls-15" d="M438.79,1010.69s6-4.57,23.76-2.29S479.27,1010,483,1014c0,0,4.57-5.77-19.84-8.21S438.79,1010.69,438.79,1010.69Z" transform="translate(-1 2)"/><path class="cls-15" d="M597.47,1011.79a.16.16,0,0,1-.26.16c-1.33-1-8.32-4.92-21.33-5.73-17.61-1.1-18.6,1.13-22.56,4.55a.17.17,0,0,1-.26-.05c-.42-1.06-1.52-7,20.38-6.94C594.53,1003.87,597.21,1010.28,597.47,1011.79Z" transform="translate(-1 2)"/></g><g id="Layer_34" data-name="Layer 34"><path class="cls-16" d="M505.29,648.25s2.1,17.2,0,28-54.71,301-54.71,301,24,15.12,32.42,6.52L522.12,816l40-137.61s10.52-10.75,12.62,0S564.2,828.86,564.2,828.86L551.58,977.23s18.94,10.75,33.67,0l18.94-152.67,29.46-172S511.6,656.85,505.29,648.25Z" transform="translate(-1 2)"/><path class="cls-17" d="M573,652.77c-31.14-.05-62.32-1.17-65.46-5.33,0,0,.1.81.24,2.19C519.21,652.16,546.66,652.81,573,652.77Z" transform="translate(-1 2)"/><path class="cls-17" d="M571.31,673.26c-3.84-2.81-10.75,4.06-10.75,4.06L519.77,813.94,479.85,980.51a9.2,9.2,0,0,1-5.28,2.45c4.09.49,7.82,0,10.26-2.45l39.92-166.57,40.79-136.62A22.52,22.52,0,0,1,571.31,673.26Z" transform="translate(-1 2)"/><path class="cls-17" d="M633.51,651.86l-30,170.62L584.17,974a25.79,25.79,0,0,1-13.1,4.64A27.14,27.14,0,0,0,589.15,974l19.32-151.56L638.52,651.7Z" transform="translate(-1 2)"/><path class="cls-17" d="M457.82,940.32l-7.23,35.81s12.66,15.33,30.74,8.94l1.81-8.94S459.62,980.81,457.82,940.32Z" transform="translate(-1 2)"/><path class="cls-17" d="M556.4,939l-3.08,37.67a43.67,43.67,0,0,0,36,0l-.06-8.26S563.43,978.2,556.4,939Z" transform="translate(-1 2)"/></g><g id="torso"><path class="cls-18" d="M562.35,443.42s-49.59,1.87-57.82,5.66.21,192.08-.1,195.46C502.95,660.86,631,660.17,633.59,649c1.47-6.36,14.52-193.5,6.57-197.84C624.68,442.73,562.35,443.42,562.35,443.42Z" transform="translate(-1 2)"/><path class="cls-18" d="M641.79,450.36C626.3,441.92,564,442.6,564,442.6s-42.21,1.59-55.21,4.81c16-2.68,51.14-4,51.14-4s62.32-.69,77.81,7.75c8,4.34-5.09,191.48-6.57,197.84-.38,1.66-3.55,3.09-8.66,4.27,7.46-1.31,12.25-3,12.73-5.08C636.69,641.84,649.75,454.69,641.79,450.36Z" transform="translate(-1 2)"/><path class="cls-18" d="M639.62,451.46c1.36,7.28,2,23.5,2.09,43.66C642.21,471.46,641.77,454,639.62,451.46Z" transform="translate(-1 2)"/><path class="cls-18" d="M511.5,648c.2-3.43-13.74-194.1-5.83-198.22,3.11-1.62,12.48-3.16,22.7-4.42-11,.92-21.2,2.15-24.55,3.71-8.22,3.82.21,193.62-.1,197-.39,4.33,8.17,7.47,21,9.54C516.46,654,511.31,651.45,511.5,648Z" transform="translate(-1 2)"/><path class="cls-18" d="M562.34,658.69c30.54.76,62.86-1.67,69.32-6.57C619.15,656.29,589.21,658.9,562.34,658.69Z" transform="translate(-1 2)"/><path class="cls-18" d="M553.93,452.64s-3-3.14-3-5.43,15.17-3.79,32.24-3.73c0,0,0,6.87-3.9,9.16S575.41,441.19,553.93,452.64Z" transform="translate(-1 2)"/><path class="cls-18" d="M617,605.53s-23.59,44.75-50.44,47.19c0,0,39.05,16.27,59.39,9.76l8.95-14.64,4.6-65.6Z" transform="translate(-1 2)"/></g><g id="collar"><polygon class="cls-19" points="567.61 464.74 562.25 471.98 564.04 476.81 557.79 609.5 570.28 632.42 585.45 605.88 573.85 471.98 567.61 464.74"/><polygon class="cls-20" points="562.02 610.73 567.87 480.15 566.2 475.4 570.34 469.53 567.87 466.53 562.86 473.65 564.53 478.4 558.68 608.98 570.38 631.53 571.62 629.24 562.02 610.73"/><polygon class="cls-21" points="578.13 461.5 577.32 461.5 577.32 461.5 578.13 461.5 578.13 461.5"/><path class="cls-22" d="M558.68,472.46s-2.13-2-6.63-17.9a42.48,42.48,0,0,1-1.2-5.45c-.5,2.33-.38,5.89,1.2,11.46,4.51,15.94,6.63,17.9,6.63,17.9l11.26-18s-1-.74-2.51-2Z" transform="translate(-1 2)"/><path class="cls-18" d="M569,457.37a54.44,54.44,0,0,1-9-8.63c-2-2.45-4-3.27-5.3-6.33,0,0-7-.19-2.67,15.09s6.3,17.17,6.3,17.17Z" transform="translate(-1 2)"/><path class="cls-18" d="M567.79,457.31s4-1.08,8.23-6.52c2-2.56,2.51-5.07,3.75-8.19,0,0,9.81-.39,6.08,15.16s-5.75,17.54-5.75,17.54Z" transform="translate(-1 2)"/><path class="cls-22" d="M585.86,456.95c-3.73,15.55-5.75,17.54-5.75,17.54L569.51,459a9.32,9.32,0,0,1-1.72.75l12.32,18s2-2,5.75-17.54a24,24,0,0,0,.77-7.87A30.52,30.52,0,0,1,585.86,456.95Z" transform="translate(-1 2)"/></g><g id="coat_left_sleeve" data-name="coat left sleeve"><path class="cls-23" d="M503.69,445.24l-103,82.55a6,6,0,0,0-1,1c-1.89,2.5-9,13.33,1.13,23.07s49.82,56.84,67.07,72c1,.84,3.81,5.38,5.75,5.68,2.21.34,7.58-4.68,9.58-5.68l7.66-7.58c2.54-2,0-6.83-1.92-9.47-8.58-12.15-27.94-41.5-46.68-62.24-2.38-2.63-2.11-3.77.69-6l65.14-51.14s23.05-20.66,4.33-41.66A6.37,6.37,0,0,0,503.69,445.24Z" transform="translate(-1 2)"/><path class="cls-24" d="M514.23,445.91a5.93,5.93,0,0,0-3.87-2l.1.09c18.41,21.46-7,40.74-7,40.74L435.94,537.6c-2.75,2.24.36,7.68,2.44,10.58,18.71,26,40.54,47.92,49,60.34,1.84,2.7.61,7.6-1.88,9.68l-7.71,5.87c-1.81.94-4.67,3.65-6.81,3.8a9.27,9.27,0,0,0,3.22,1.95c2.18.35,5.4-2.79,7.36-3.81l7.71-5.87c2.5-2.08,3.72-7,1.88-9.68-8.44-12.41-27.47-42.41-45.89-63.6-2.34-2.69-2.07-3.85.67-6.1L510,488.48S532.65,467.36,514.23,445.91Z" transform="translate(-1 2)"/></g><g id="shirt_left_sleeve" data-name="shirt left sleeve"><path class="cls-25" d="M475.8,632.79l-4.88-4.88S488,610,488,605.94h0l6.42,6.69Z" transform="translate(-1 2)"/></g><g id="coat"><path class="cls-23" d="M552.34,440.16s-41.18-1-47.9,5.86c-5.75,5.86-5.16,215.24-5.16,215.24A120.91,120.91,0,0,0,517,665.54c11.79,2.14,50.78,7.11,50.78,7.11L563.9,569.11l-5.75-89.87Z" transform="translate(-1 2)"/><path class="cls-23" d="M581.87,440.16s48.15,0,61.11,8c4.82,3-1.85,210.11-1.85,210.11s-2.62,7.78-12.93,9.86-57.44,6.15-57.44,6.15l1.85-94,1.85-82Z" transform="translate(-1 2)"/><path class="cls-26" d="M543.59,490.75,558,478.45l-19.26-9,12.15-29.18-4.3-.12-12.2,29.29,19.26,9-14.41,12.3,24.21,131.49c.13.29.41-9.89.46-21.15Z" transform="translate(-1 2)"/><path class="cls-27" d="M551,439.94l-10.83,29.65,17,9.08-12.77,12.46,21.32,133c.2.51.84-31.59,0-45-1.8-30-1.59-79.67-3.78-96-2.42-18.12-8.47-38.49-5.79-44.83Z" transform="translate(-1 2)"/><path class="cls-26" d="M583.71,476.49,599,468l-10-27.95-4.45.13c0,.12.08.27.12.4L594.44,468l-14.39,8c0,.3-.09.6-.14.91l15,8.77L574.3,591.2c0,11.07.19,21.87.3,21.56l24.87-127.08Z" transform="translate(-1 2)"/><path class="cls-27" d="M584.67,440,593.09,468l-12.8,8.5,13.22,9.19L572.65,612.76c-.14.48-.49-25.3,0-37.93,1.1-28.23,1.9-75.87,4-94.18,2-17,3.54-36.69,3.54-42.38Z" transform="translate(-1 2)"/><path class="cls-28" d="M644.73,483.58S639,660.89,627.66,664.51c0,0,11.38-3.62,13.28-12.66s3.79-168.26,3.79-168.26Z" transform="translate(-1 2)"/><path class="cls-28" d="M500.83,489c.27,1.62-.88,176.29,10.77,172.18l-12.92-3.41c0-8.69,2.15-168.77,2.15-168.77Z" transform="translate(-1 2)"/></g><g id="righ_wrist" data-name="righ wrist"><path class="cls-29" d="M661.22,609.42s6.9,21.14-7.07,23.71c0,0-5.52-16.91-7.79-18.17S659.45,615.34,661.22,609.42Z" transform="translate(-1 2)"/><path class="cls-30" d="M635.56,608.12s-.7,12.06,5,16.69,8.13,10.65,11.36,9.25,1.54-14.85-2.25-17.94S635.56,608.12,635.56,608.12Z" transform="translate(-1 2)"/><path class="cls-31" d="M654.4,633.27a8.14,8.14,0,0,0-6.8,6C645.94,644.82,641.3,652,640,648s2.5-8.37,4.16-13.95,7.63-8.76,7.63-8.76S656.07,627.69,654.4,633.27Z" transform="translate(-1 2)"/><path class="cls-31" d="M640.32,621.6s-5.27.85-7.21,7.34-7,15-8.17,10.58,2.9-9.73,4.84-16.22S638,612.71,638,612.71,642.26,615.11,640.32,621.6Z" transform="translate(-1 2)"/><path class="cls-31" d="M646.44,627.55a10.45,10.45,0,0,0-6.69,8.53c-.84,6.65-4.81,15.9-7.11,11.85s1.26-10,2.1-16.62,7.11-11.85,7.11-11.85S647.28,620.9,646.44,627.55Z" transform="translate(-1 2)"/><path class="cls-30" d="M636.06,615l-7.2,1.16s-3.43,19.33-6.43,13.67c-.95-1.79-2.28-.61,2.25-17.86,0,0,1.78-6.25,10.88-3.83C635.56,608.12,638.33,615.58,636.06,615Z" transform="translate(-1 2)"/><path class="cls-32" d="M641.67,644.07s-3.19,4.73-1.66,5.58,2.08-1,2.08-1S644.73,645.77,641.67,644.07Z" transform="translate(-1 2)"/><path class="cls-32" d="M633.22,640.39s-2.55,8.1-.4,8.38,2.28-2.51,2.28-2.51S637.53,641,633.22,640.39Z" transform="translate(-1 2)"/><path class="cls-32" d="M626.91,633s-4.45,6.79-2.71,7.89,2.64-1.53,2.64-1.53S630.39,635.2,626.91,633Z" transform="translate(-1 2)"/><path class="cls-32" d="M623.74,622.09s-2.73,8.35-.63,8.71,2.31-2.54,2.31-2.54S627.95,622.82,623.74,622.09Z" transform="translate(-1 2)"/></g><g id="coat_right_sleeve" data-name="coat right sleeve"><path class="cls-23" d="M646.67,449.26l96,86.82a5.44,5.44,0,0,1,.87,1c1.67,2.48,7.14,12.27-3.25,21.41-10.22,9-53.77,50.24-68.7,63.77-2.34,2.12-7.64,5.69-7.64,3.79l-9-6a11.43,11.43,0,0,1-5.12-7.94c-.26-2-.08-3.94.78-5,8.83-11.39,31.15-36.46,50.22-55.84a7,7,0,0,0-.36-10.18L642.6,489.74s-23.52-20.49-3.74-40.32A5.69,5.69,0,0,1,646.67,449.26Z" transform="translate(-1 2)"/><path class="cls-24" d="M658.32,620.68a11.41,11.41,0,0,1-5.18-7.94c-.27-2-.08-3.94.79-5,8.95-11.39,31.57-36.47,50.89-55.86,2.86-2.87,9.16-7.5,6.11-10.17L645,483.09s-23-13.22-2.94-33.05a5.57,5.57,0,0,1,2.12-1.29,5.78,5.78,0,0,0-6,1.29c-20,19.84,3.78,40.32,3.78,40.32l58.59,51.3a7,7,0,0,1,.37,10.18c-19.32,19.39-41.95,44.46-50.89,55.86-.87,1.11-1.06,3-.79,5a11.41,11.41,0,0,0,5.18,7.94l9.16,6c0,1,1.43.5,3.14-.48Z" transform="translate(-1 2)"/></g><g id="shirt_right_sleeve" data-name="shirt right sleeve"><path class="cls-25" d="M642.88,611.89l5.58-4.07s15,19.65,19.05,20.28h0l-7.6,5.31Z" transform="translate(-1 2)"/></g><g id="left_wrist" data-name="left wrist"><path class="cls-29" d="M476.23,628.31c.84,1.39,8.31,13.1,18.18,6,0,0-6.24-10.86-5.52-12.82s-4.86,3.35-12.58,6.78C476.25,628.25,476.19,628.25,476.23,628.31Z" transform="translate(-1 2)"/><path class="cls-30" d="M492.51,607.84s7.85,5.33,6.66,11.72-1,12.85-4.14,14.53-8.37-7.81-7.57-12.08S492.51,607.84,492.51,607.84Z" transform="translate(-1 2)"/><path class="cls-31" d="M494.54,633.81s3.86-3.57,8.44-2.08,12.23,1.56,10.72-1.34-6.86-2.23-11.44-3.72S491.54,628,491.54,628A4.38,4.38,0,0,0,494.54,633.81Z" transform="translate(-1 2)"/><path class="cls-31" d="M497.37,617.85a10.82,10.82,0,0,1,9.56-1.72c5.32,1.73,14.09,2.17,12.22-.85s-8-2.59-13.3-4.32-12.22.85-12.22.85S492,616.12,497.37,617.85Z" transform="translate(-1 2)"/><path class="cls-31" d="M496.67,625.21s5.27-3.37,9.92-.76,13.09,4.18,12.24.54-7-3.91-11.61-6.52-12.24-.54-12.24-.54S492,622.6,496.67,625.21Z" transform="translate(-1 2)"/><path class="cls-30" d="M496.34,611.52l5.79-4.71s14.2,6.86,12.87,1.92c-.42-1.56,1.24-2-12.47-7,0,0-5.06-1.73-10,6.1C492.51,607.84,495.1,613.48,496.34,611.52Z" transform="translate(-1 2)"/><path class="cls-32" d="M510.11,629.72s5.13,0,4.58,1.49a1.65,1.65,0,0,1-2.08,1S509,632.79,510.11,629.72Z" transform="translate(-1 2)"/><path class="cls-32" d="M513.83,621.76s6.74,2.06,5.39,3.77a2.29,2.29,0,0,1-3.14.45S511.13,625.18,513.83,621.76Z" transform="translate(-1 2)"/><path class="cls-32" d="M513.78,613.56s7.28,0,6.72,1.84-2.8,1.19-2.8,1.19S512.67,617.18,513.78,613.56Z" transform="translate(-1 2)"/><path class="cls-32" d="M509.36,606s7,2,5.75,3.76a2.35,2.35,0,0,1-3.18.46S506.84,609.39,509.36,606Z" transform="translate(-1 2)"/></g><g id="neck"><path class="cls-33" d="M554.77,433.93v9.48c0,3.79,10.59,15.17,13.28,15.17,1.9,0,9.48-7.59,11.38-15.17s0-9.48,0-9.48Z" transform="translate(-1 2)"/></g><g id="face"><path class="cls-34" d="M530,374.78s-3.63-21.81,4.15-34.27c0,0,8.83-14.54,26-16.61s33.23,4.67,40.5,18.69c0,0,5.19,11.94,3.63,23.36s-1.56,10.38-1.56,10.38,1.3-1.3,2.08-1,3.63,1,3.63,6.23-2.08,14.54-5.19,18.17-5.19,3.63-5.19,3.63,1.27,10.6-10.38,23.36c-10.9,11.94-14,12.46-19.73,12.46s-16.61,0-29.6-22.33a52.08,52.08,0,0,1-3.63-14.54C533.92,392.4,530,374.78,530,374.78Z" transform="translate(-1 2)"/><path class="cls-35" d="M530,375.3s-4.15-.52-4.67,5.19,5.19,19.21,5.19,19.21,3.63,3.63,4.67,3.12S534.11,380,530,375.3Z" transform="translate(-1 2)"/><path class="cls-36" d="M530.73,380.75S530,370.1,528.92,367s-1-23.88,10.9-33.75c0,0,3.12-2.08,3.63-.52s2.08,7.27-7.79,20.77c0,0-4.15,10.38-2.77,27.71,0,.29,3.81,25.77,4.33,28.88.17,1,5.25,12,6.75,14,2.43,3.25,7.79,10.38,13.5,11.94,5,1.37,9.35,2.6,16.61,0,6.79-2.43,9.87-5.71,9.87-5.71s-8.57,13.76-25.44,7.79c-13.51-4.78-20.79-22.38-22.11-25.88a6.08,6.08,0,0,1-.31-1.16C535.48,407.32,531.92,385.72,530.73,380.75Z" transform="translate(-1 2)"/><path class="cls-36" d="M599,396.58c-.5-.13,2.6-15.58,5.19-16.61,0,0,3.12.52,1.56,6.23a52.6,52.6,0,0,1-3.12,8.83S601.09,397.1,599,396.58Z" transform="translate(-1 2)"/><path class="cls-36" d="M534.16,395.68c.51-.11-2-15.67-4.53-16.81,0,0-3.13.4-1.8,6.16a52.6,52.6,0,0,0,2.76,8.94S532.06,396.12,534.16,395.68Z" transform="translate(-1 2)"/><path class="cls-37" d="M603.72,381.91s2.57,2,.67,9.22c0,0,3.32-8.31.47-10.9A1.44,1.44,0,0,0,603.72,381.91Z" transform="translate(-1 2)"/><path class="cls-37" d="M530.19,380.87s-2.57,2-.67,9.22c0,0-3.32-8.31-.47-10.9A1.44,1.44,0,0,1,530.19,380.87Z" transform="translate(-1 2)"/></g><g id="beard"><path class="cls-38" d="M547.37,411.64c-.66.58-.43,25.36,15.51,26.26S587,437.45,587,411.64C587,411.64,568.05,393.52,547.37,411.64Zm23.7,22.64c-1.72,0-1.72-6.79-1.72-6.79h-3.88c.43,2.72-2.15,6.79-2.15,6.79-14.65-.91-12.93-22.64-12.93-22.64,19.39-11.32,34.47.45,34.47.45C586.15,433.37,572.79,434.28,571.07,434.28Z" transform="translate(-1 2)"/></g><g id="eyebrows"><path class="cls-39" d="M591.75,376.08" transform="translate(-1 2)"/><path class="cls-40" d="M540.79,373.86a15.48,15.48,0,0,1,8.52-4.35,4.16,4.16,0,0,1,1,0c2,.2,6.29,1.09,8.61,4.63,0,0,.94-.14.66-2.48-.2-1.65-5.63-5.79-11-3.94C541.31,370.23,540.79,373.86,540.79,373.86Z" transform="translate(-1 2)"/><path class="cls-40" d="M593.51,373.45a15.48,15.48,0,0,0-8.7-4,4.16,4.16,0,0,0-1,0c-2,.29-6.23,1.36-8.4,5,0,0-.94-.1-.77-2.45.12-1.66,5.37-6,10.79-4.42C592.83,369.85,593.51,373.45,593.51,373.45Z" transform="translate(-1 2)"/></g><g id="hair"><path class="cls-41" d="M533.25,391.15H535s-5.26-41.31,9.64-53c0,0,7.88,5.39,21.9,4.49s21.9-6.29,21.9-6.29,17.52,4.49,12.26,53.89l1.75.9.88-9a15.5,15.5,0,0,1,2.63-3.59c1.75-1.8,2.63-29.64,0-35.92S585.82,322,565.65,322c-10.51,0-21.9,2.69-34.25,15.27a11.11,11.11,0,0,0-3.08,6.48,120,120,0,0,0,1.42,36.62S534.12,379.48,533.25,391.15Z" transform="translate(-1 2)"/></g><g id="mouth"><path class="cls-42" d="M554.42,411.75s14.35,4.73,26.91,0C581.32,411.75,568.77,427.52,554.42,411.75Z" transform="translate(-1 2)"/><path class="cls-43" d="M559.84,413v3.13a13.89,13.89,0,0,0,15.11.49v-3.28A52.73,52.73,0,0,1,559.84,413Z" transform="translate(-1 2)"/></g><g id="nose"><path class="cls-44" d="M567.1,401.12c-1.45,0-5.45-3.18-6.42-4l-.22.65s5,5,6.64,5,6.64-5,6.64-5l-.22-.65C572.54,397.95,568.55,401.12,567.1,401.12Z" transform="translate(-1 2)"/></g><g id="face_shadow" data-name="face shadow"><path class="cls-45" d="M549.17,411.17s-2.5-7.11,7.49-9.48C556.66,401.69,546.68,406.43,549.17,411.17Z" transform="translate(-1 2)"/><path class="cls-45" d="M584.71,411.17s2.5-7.11-7.49-9.48C577.22,401.69,587.21,406.43,584.71,411.17Z" transform="translate(-1 2)"/><path class="cls-45" d="M562.12,420.27s2.68,7,11.84,2.41C574,422.68,563.28,425.51,562.12,420.27Z" transform="translate(-1 2)"/></g></svg>