<svg xmlns="http://www.w3.org/2000/svg" viewBox="0 0 1920 1084"><defs><style>.cls-1{fill:#62acab;}.cls-2{fill:#474747;}.cls-10,.cls-29,.cls-3,.cls-35,.cls-37,.cls-39{fill:none;stroke-miterlimit:10;}.cls-3,.cls-35,.cls-39{stroke:#fff;}.cls-3{stroke-width:2px;}.cls-4{fill:#42210b;}.cls-5{fill:#231006;}.cls-11,.cls-6{fill:#7a5642;}.cls-7{fill:#000001;}.cls-8{fill:#8e7870;}.cls-9{fill:#562f1e;}.cls-10{stroke:#030805;}.cls-11{opacity:0.54;}.cls-12{fill:#1e1c1c;}.cls-13{fill:#e4ebf9;}.cls-14{fill:#072e51;}.cls-15{fill:#062135;}.cls-16{fill:#f4eaf6;}.cls-17{fill:#919191;}.cls-18{fill:#161414;}.cls-19{fill:#0c0101;}.cls-20{fill:#0c0b0b;}.cls-21{fill:#262323;}.cls-22{fill:#23110c;}.cls-23{fill:#e4ac7f;}.cls-24{fill:#e6b185;}.cls-25{fill:#e6b085;}.cls-26{fill:#da9f77;}.cls-27{fill:#a06545;}.cls-28{fill:#645d5a;}.cls-29{stroke:#1b120a;stroke-width:0.5px;}.cls-30{fill:#1b120a;}.cls-31{fill:#4a4340;}.cls-32{fill:#482f27;}.cls-33{fill:#c7835d;}.cls-34{fill:#d49c6d;}.cls-35,.cls-37{stroke-width:3px;}.cls-36{fill:#fff;}.cls-37{stroke:#f2f2f2;}.cls-38{fill:#f2f2f2;}.cls-39{stroke-width:4px;}.cls-40{fill:#c99262;}.cls-41{font-size:54px;fill:#fffbf5;font-family:SegoeUI-SemiBold, Segoe UI;font-weight:700;}.cls-42{letter-spacing:-0.07em;}.cls-43{letter-spacing:-0.01em;}</style></defs><title>template_1_preview_1</title><g id="bg"><rect class="cls-1" width="1920" height="1084"/></g><g id="shadow"><ellipse class="cls-2" cx="508" cy="932" rx="181" ry="21"/></g><g id="Layer_27" data-name="Layer 27"><path class="cls-3" d="M428.5,655.5l-10-202s84-39,176,5L588,660.8S433.5,667.5,428.5,655.5Z" transform="translate(-1 2)"/></g><g id="shoes"><path class="cls-4" d="M484.05,926.71s-1.73-6.47,3.89-9c0,0,3-7.39,5.59-8.14,3.07-.9.13-1.24.13-1.24l2.25-7.89a5.85,5.85,0,0,1,1.82-2.93c2-1.84,5.79-5.17,8.29-5.32,3.6-.22,7.92-1.6,11.33,0s5.8,7.56,5.55,10-.72,13.08-.79,13.7.28,3.17-1,4.27c0,0,6.89,2.67,2.94,12.25C524,932.54,515.34,924,484.05,926.71Z" transform="translate(-1 2)"/><path class="cls-5" d="M505.92,894.71l-1.22,12.48c-.19,2-4.68,5.43-4.68,5.43a20,20,0,0,0-11.14,5,7.21,7.21,0,0,0-.76,3.11s5.12-5.54,12.29-6.07c0,0,4.49-3.47,4.68-5.43l1.41-14.38A2.63,2.63,0,0,0,505.92,894.71Z" transform="translate(-1 2)"/><path class="cls-4" d="M488.28,917.74A22.69,22.69,0,0,1,501.51,912s4.82-3.31,5-5.21l1.36-13.95s-5-1.83-11.62,6.49c0,0-2.7,8.58-2.82,9.85S488.24,913.41,488.28,917.74Z" transform="translate(-1 2)"/><path class="cls-6" d="M489.35,917.05a5.89,5.89,0,0,0,0,.64,21.62,21.62,0,0,1,6.17-4.23A21.78,21.78,0,0,0,489.35,917.05Z" transform="translate(-1 2)"/><path class="cls-6" d="M503,893.69a4.89,4.89,0,0,1,3.05-.17l-1.34,13.73c-.14,1.47-2.87,3.81-4,4.75l.68-.08s4.4-3.3,4.58-5.17L507.27,893S505.63,892.39,503,893.69Z" transform="translate(-1 2)"/><path class="cls-7" d="M520.79,920.11s1.88-2.77-4.1-7.59-8.39-4.79-4.8-18.83a4.53,4.53,0,0,0-.52.26c-3.7,14.33-1.25,14.28,4.73,19.11s4.1,7.59,4.1,7.59a1,1,0,0,0,1-.58A1,1,0,0,1,520.79,920.11Z" transform="translate(-1 2)"/><path class="cls-4" d="M520.89,920.4s2.06-2.93-4.55-8.08-9.31-5.11-5.29-20.3c0,0,8.31-4.85,12,9.24l-.86,13.89S523.24,920.66,520.89,920.4Z" transform="translate(-1 2)"/><path class="cls-6" d="M517.22,913.29c-6.44-5.18-9.08-5.13-5.1-20.49a6.46,6.46,0,0,1,6.17,0A6.38,6.38,0,0,0,511,892c-4,15.36-1.34,15.31,5.1,20.49s4.41,8.14,4.41,8.14c.74.08,1.13-.44,1.33-1.19C521.63,918.1,520.58,916,517.22,913.29Z" transform="translate(-1 2)"/><path class="cls-4" d="M629.9,925.14S632.17,919,627,916c0,0-2.27-7.5-4.67-8.49-2.89-1.2,0-1.22,0-1.22l-1.46-7.91a5.81,5.81,0,0,0-1.5-3c-1.77-2-5.14-5.63-7.54-6-3.47-.58-7.52-2.38-11-1.13s-6.3,6.75-6.28,9.18-.49,12.79-.48,13.4-.56,3,.61,4.26c0,0-6.91,1.88-4,11.6C590.69,926.66,599.86,919.28,629.9,925.14Z" transform="translate(-1 2)"/><path class="cls-5" d="M612.08,891.75l.08,11.72c0,1.84,4.08,5.49,4.08,5.49a20,20,0,0,1,10.4,5.7,6.5,6.5,0,0,1,.46,3s-4.49-5.64-11.42-6.82c0,0-4.06-3.65-4.08-5.49l-.09-13.5A2.67,2.67,0,0,1,612.08,891.75Z" transform="translate(-1 2)"/><path class="cls-4" d="M626.21,915.18s-4.49-5.64-11.42-6.82c0,0-4.06-3.65-4.08-5.49l-.09-13.5s4.61-1.26,9.92,7.38c0,0,1.73,8.49,1.74,9.72S626.6,911,626.21,915.18Z" transform="translate(-1 2)"/><path class="cls-6" d="M625.07,913.95a5.77,5.77,0,0,1,0,.63,21.52,21.52,0,0,0-5.63-4.74A21.66,21.66,0,0,1,625.07,913.95Z" transform="translate(-1 2)"/><path class="cls-6" d="M613.84,889.84a4.79,4.79,0,0,0-3-.47l.09,13.5c0,1.44,2.46,4,3.52,5l-.65-.14s-4-3.65-4-5.49l-.09-13.5S611.4,888.31,613.84,889.84Z" transform="translate(-1 2)"/><path class="cls-5" d="M592.48,917.15s-1.63-3.37,6.17-7.25,10.57-3.31,9.15-19.14a5.51,5.51,0,0,1,.55.39c1.48,16.15-1.32,15.57-9.13,19.44s-6.17,7.25-6.17,7.25A1.17,1.17,0,0,1,592,917,1.27,1.27,0,0,0,592.48,917.15Z" transform="translate(-1 2)"/><path class="cls-4" d="M594.65,915.27s-1.75-3.06,5.14-7.41,9.52-4,6.95-19.23c0,0-7.66-5.56-12.49,7.8L593.86,910S592.34,915.29,594.65,915.27Z" transform="translate(-1 2)"/><path class="cls-6" d="M598,909.69c7.41-4.6,10.23-4.28,7.47-20.33a7.28,7.28,0,0,0-6.6-.69,7.17,7.17,0,0,1,7.84,0c2.76,16-.06,15.73-7.47,20.33s-5.53,7.83-5.53,7.83c-.8,0-1.17-.57-1.3-1.35C592.76,914.12,594.09,912.1,598,909.69Z" transform="translate(-1 2)"/><path class="cls-5" d="M481.37,930.83s2.05-5.16,11.31-4.53,31-1.76,32.93,6.4c0,0-.27,3.12-5.5,3.26C508.77,936.26,488.14,935.09,481.37,930.83Z" transform="translate(-1 2)"/><path class="cls-8" d="M482.26,927s2.69-3.7,14.18-3.72c8,0,17.4.81,17.4.81s10.53,1.55,11.32,6.66l-42.42-2.37Z" transform="translate(-1 2)"/><path class="cls-9" d="M481.09,930.59s-.87-4,2.69-4.32,29-.72,37,1.93c7.83,2.58,4.08,6.32,4.08,6.32s-1.94-3.53-8.43-3.44-17.58-1.54-17.58-1.54-10.6-.42-11.18-.33C484.42,929.72,484,931.49,481.09,930.59Z" transform="translate(-1 2)"/><path class="cls-5" d="M632.59,929.51s-1.65-5.19-10.72-5.3-30.14-4.12-32.55,3.69c0,0,.05,3.07,5.14,3.61C605.5,932.69,625.69,933.14,632.59,929.51Z" transform="translate(-1 2)"/><path class="cls-8" d="M632,925.73s-2.37-3.82-13.58-4.73c-7.8-.63-17-.56-17-.56s-10.38.69-11.5,5.61l41.54,1Z" transform="translate(-1 2)"/><path class="cls-9" d="M632.87,929.3s1.12-3.81-2.33-4.42-28.19-3-36.23-1c-7.82,1.91-4.41,5.84-4.41,5.84s2.13-3.29,8.46-2.7,17.25-.13,17.25-.13,10.37.42,10.93.55C629.69,928.2,630,930,632.87,929.3Z" transform="translate(-1 2)"/><path class="cls-10" d="M500.49,907.73c.62-6.33,15.35-5.35,14.66,1.62" transform="translate(-1 2)"/><path class="cls-10" d="M602.14,905.32c.62-6.33,15.35-5.35,14.66,1.62" transform="translate(-1 2)"/><path class="cls-11" d="M483.51,926.26s5.63-4.62,22.3-2.46,15.73,1.5,19.29,5.47c0,0,4.26-5.8-18.69-8.07S483.51,926.26,483.51,926.26Z" transform="translate(-1 2)"/><path class="cls-11" d="M632.6,926.2a.15.15,0,0,1-.24.16c-1.26-1-7.85-4.86-20.08-5.58-16.55-1-17.47,1.26-21.17,4.71a.15.15,0,0,1-.25-.05c-.4-1.05-1.48-7,19.1-7.08C629.79,918.29,632.35,924.69,632.6,926.2Z" transform="translate(-1 2)"/></g><g id="Layer_34" data-name="Layer 34"><path class="cls-12" d="M445,703s45,52,56,65-17,158-17,158l41,3,27-170-21.75-50.61Z" transform="translate(-1 2)"/><path class="cls-12" d="M581.23,701.59c4.35,3.48,29,14.22,46.12,21.45a27.73,27.73,0,0,1,16.91,25.24C644.8,796.8,645,925.19,632,926c-16,1-54-5-54-5l10-143-75-69,68.23-7.41" transform="translate(-1 2)"/></g><g id="torso"><path class="cls-13" d="M504.35,478.42s-49.59,1.87-57.82,5.66.21,192.08-.1,195.46C444.95,695.86,573,695.17,575.59,684c1.47-6.36,14.52-193.5,6.57-197.84C566.68,477.73,504.35,478.42,504.35,478.42Z" transform="translate(-1 2)"/><path class="cls-13" d="M583.79,485.36C568.3,476.92,506,477.6,506,477.6s-42.21,1.59-55.21,4.81c16-2.68,51.14-4,51.14-4s62.32-.69,77.81,7.75c8,4.34-5.09,191.48-6.57,197.84-.38,1.66-3.55,3.09-8.66,4.27,7.46-1.31,12.25-3,12.73-5.08C578.69,676.84,591.75,489.69,583.79,485.36Z" transform="translate(-1 2)"/><path class="cls-13" d="M581.62,486.46c1.36,7.28,2,23.5,2.09,43.66C584.21,506.46,583.77,489,581.62,486.46Z" transform="translate(-1 2)"/><path class="cls-13" d="M453.5,683c.2-3.43-13.74-194.1-5.83-198.22,3.11-1.62,12.48-3.16,22.7-4.42-11,.92-21.2,2.15-24.55,3.71-8.22,3.82.21,193.62-.1,197-.39,4.33,8.17,7.47,21,9.54C458.46,689,453.31,686.45,453.5,683Z" transform="translate(-1 2)"/><path class="cls-13" d="M504.34,693.69c30.54.76,62.86-1.67,69.32-6.57C561.15,691.29,531.21,693.9,504.34,693.69Z" transform="translate(-1 2)"/><path class="cls-13" d="M495.93,487.64s-3-3.14-3-5.43,15.17-3.79,32.24-3.73c0,0,0,6.87-3.9,9.16S517.41,476.19,495.93,487.64Z" transform="translate(-1 2)"/></g><g id="collar"><polygon class="cls-14" points="509.61 499.74 504.25 506.98 506.04 511.81 499.79 644.5 512.28 667.42 527.45 640.88 515.85 506.98 509.61 499.74"/><polygon class="cls-15" points="504.02 645.73 509.87 515.15 508.2 510.4 512.34 504.53 509.87 501.53 504.86 508.65 506.53 513.4 500.68 643.98 512.38 666.53 513.62 664.24 504.02 645.73"/><polygon class="cls-16" points="520.13 496.5 519.32 496.5 519.32 496.5 520.13 496.5 520.13 496.5"/><path class="cls-17" d="M500.68,507.46s-2.13-2-6.63-17.9a42.48,42.48,0,0,1-1.2-5.45c-.5,2.33-.38,5.89,1.2,11.46,4.51,15.94,6.63,17.9,6.63,17.9l11.26-18s-1-.74-2.51-2Z" transform="translate(-1 2)"/><path class="cls-13" d="M511,492.37a54.44,54.44,0,0,1-9-8.63c-2-2.45-4-3.27-5.3-6.33,0,0-7-.19-2.67,15.09s6.3,17.17,6.3,17.17Z" transform="translate(-1 2)"/><path class="cls-13" d="M509.79,492.31s4-1.08,8.23-6.52c2-2.56,2.51-5.07,3.75-8.19,0,0,9.81-.39,6.08,15.16s-5.75,17.54-5.75,17.54Z" transform="translate(-1 2)"/><path class="cls-17" d="M527.86,491.95c-3.73,15.55-5.75,17.54-5.75,17.54L511.51,494a9.32,9.32,0,0,1-1.72.75l12.32,18s2-2,5.75-17.54a24,24,0,0,0,.77-7.87A30.52,30.52,0,0,1,527.86,491.95Z" transform="translate(-1 2)"/></g><g id="coat_left_sleeve" data-name="coat left sleeve"><path class="cls-18" d="M439.59,486.07,373.74,590.8a5.58,5.58,0,0,0-.59,1.25c-.91,2.79-3.88,14.57,8.09,20.08s61.57,35,81.49,43.11c1.1.45,5,3.59,6.84,3.26,2.06-.37,5.28-6.47,6.74-8l4.46-9.06c1.62-2.58-2.14-6-4.61-7.79-11.33-8.11-37.48-28.15-60.44-40.74-2.91-1.6-3-2.69-1.23-5.49l42-65.28s14.06-25.37-9-38.21A6,6,0,0,0,439.59,486.07Z" transform="translate(-1 2)"/><path class="cls-19" d="M451.13,480.35a5.93,5.93,0,0,0-4.32-.62l.12.05c24.52,14.07,7,40.74,7,40.74l-46,72.41c-1.84,3,2.91,7.12,5.83,9.15,26.34,18.29,54.23,31.62,66.33,40.5,2.63,1.93,3.11,7,1.46,9.75l-5.31,8.11c-1.39,1.49-3.18,5-5.15,5.86a9.27,9.27,0,0,0,3.69.76c2.17-.4,4.16-4.43,5.66-6.05l5.31-8.11c1.66-2.8,1.18-7.82-1.46-9.75-12.1-8.88-40.06-30.79-64.5-44.61-3.1-1.75-3.24-2.94-1.4-6l42.91-70.67S475.66,494.42,451.13,480.35Z" transform="translate(-1 2)"/></g><g id="coat"><path class="cls-18" d="M494.34,475.16s-41.18-1-47.9,5.86c-5.75,5.86-5.16,215.24-5.16,215.24A120.91,120.91,0,0,0,459,700.54c11.79,2.14,50.78,7.11,50.78,7.11L505.9,604.11l-5.75-89.87Z" transform="translate(-1 2)"/><path class="cls-18" d="M523.87,475.16s48.15,0,61.11,8c4.82,3-1.85,210.11-1.85,210.11s-2.62,7.78-12.93,9.86-57.44,6.15-57.44,6.15l1.85-94,1.85-82Z" transform="translate(-1 2)"/><path class="cls-20" d="M485.59,525.75,500,513.45l-19.26-9,12.15-29.18-4.3-.12-12.2,29.29,19.26,9-14.41,12.3,24.21,131.49c.13.29.41-9.89.46-21.15Z" transform="translate(-1 2)"/><path class="cls-21" d="M493,474.94l-10.83,29.65,17,9.08-12.77,12.46,21.32,133c.2.51.84-31.59,0-45-1.8-30-1.59-79.67-3.78-96-2.42-18.12-8.47-38.49-5.79-44.83Z" transform="translate(-1 2)"/><path class="cls-20" d="M525.71,511.49,541,503l-10-27.95-4.45.13c0,.12.08.27.12.4L536.44,503l-14.39,8c0,.3-.09.6-.14.91l15,8.77L516.3,626.2c0,11.07.19,21.87.3,21.56l24.87-127.08Z" transform="translate(-1 2)"/><path class="cls-21" d="M526.67,475,535.09,503l-12.8,8.5,13.22,9.19L514.65,647.76c-.14.48-.49-25.3,0-37.93,1.1-28.23,1.9-75.87,4-94.18,2-17,3.54-36.69,3.54-42.38Z" transform="translate(-1 2)"/><path class="cls-22" d="M442.83,524c.27,1.62-.88,176.29,10.77,172.18l-12.92-3.41c0-8.69,2.15-168.77,2.15-168.77Z" transform="translate(-1 2)"/></g><g id="coat_right_sleeve" data-name="coat right sleeve"><path class="cls-18" d="M580.21,481.19,669,575.43a5.44,5.44,0,0,1,.79,1.06c1.46,2.6,6.13,12.8-5,21.08-10.91,8.15-57.62,45.77-73.59,58.05-2.51,1.93-8.07,5.06-7.92,3.17l-8.53-6.69a11.43,11.43,0,0,1-4.47-8.33c-.1-2,.24-3.93,1.18-5,9.71-10.64,34-33.85,54.53-51.64a7,7,0,0,0,.45-10.17L572.9,521.21s-21.8-22.31-.49-40.49A5.69,5.69,0,0,1,580.21,481.19Z" transform="translate(-1 2)"/><path class="cls-19" d="M577.27,659a11.74,11.74,0,0,1-4.57-8.78c0-2.08.39-4,1.45-5.07,10.92-10.55,38.07-33.39,61-50.83,3.4-2.58,10.67-6.53,7.74-9.65l-63.25-68.25s-22.93-16.42.84-34.22a6,6,0,0,1,2.41-1.06,6.4,6.4,0,0,0-6.54.57c-23.77,17.8-.82,41.77-.82,41.77l56.33,59.89A7,7,0,0,1,631,593.8c-22.95,17.43-50.1,40.28-61,50.83-1.06,1-1.5,3-1.45,5.07a11.74,11.74,0,0,0,4.57,8.78l9,7.27c-.12,1,1.46.69,3.4-.1Z" transform="translate(-1 2)"/></g><g id="neck"><path class="cls-23" d="M496.77,468.93v9.48c0,3.79,10.59,15.17,13.28,15.17,1.9,0,9.48-7.59,11.38-15.17s0-9.48,0-9.48Z" transform="translate(-1 2)"/></g><g id="face"><path class="cls-24" d="M472,409.78s-3.63-21.81,4.15-34.27c0,0,8.83-14.54,26-16.61s33.23,4.67,40.5,18.69c0,0,5.19,11.94,3.63,23.36s-1.56,10.38-1.56,10.38,1.3-1.3,2.08-1,3.63,1,3.63,6.23-2.08,14.54-5.19,18.17-5.19,3.63-5.19,3.63,1.27,10.6-10.38,23.36c-10.9,11.94-14,12.46-19.73,12.46s-16.61,0-29.6-22.33a52.08,52.08,0,0,1-3.63-14.54C475.92,427.4,472,409.78,472,409.78Z" transform="translate(-1 2)"/><path class="cls-25" d="M472,410.3s-4.15-.52-4.67,5.19,5.19,19.21,5.19,19.21,3.63,3.63,4.67,3.12S476.11,415,472,410.3Z" transform="translate(-1 2)"/><path class="cls-26" d="M472.73,415.75S472,405.1,470.92,402s-1-23.88,10.9-33.75c0,0,3.12-2.08,3.63-.52s2.08,7.27-7.79,20.77c0,0-4.15,10.38-2.77,27.71,0,.29,3.81,25.77,4.33,28.88.17,1,5.25,12,6.75,14,2.43,3.25,7.79,10.38,13.5,11.94,5,1.37,9.35,2.6,16.61,0,6.79-2.43,9.87-5.71,9.87-5.71s-8.57,13.76-25.44,7.79c-13.51-4.78-20.79-22.38-22.11-25.88a6.08,6.08,0,0,1-.31-1.16C477.48,442.32,473.92,420.72,472.73,415.75Z" transform="translate(-1 2)"/><path class="cls-26" d="M541,431.58c-.5-.13,2.6-15.58,5.19-16.61,0,0,3.12.52,1.56,6.23a52.6,52.6,0,0,1-3.12,8.83S543.09,432.1,541,431.58Z" transform="translate(-1 2)"/><path class="cls-26" d="M476.16,430.68c.51-.11-2-15.67-4.53-16.81,0,0-3.13.4-1.8,6.16a52.6,52.6,0,0,0,2.76,8.94S474.06,431.12,476.16,430.68Z" transform="translate(-1 2)"/><path class="cls-27" d="M545.72,416.91s2.57,2,.67,9.22c0,0,3.32-8.31.47-10.9A1.44,1.44,0,0,0,545.72,416.91Z" transform="translate(-1 2)"/><path class="cls-27" d="M472.19,415.87s-2.57,2-.67,9.22c0,0-3.32-8.31-.47-10.9A1.44,1.44,0,0,1,472.19,415.87Z" transform="translate(-1 2)"/></g><g id="beard"><path class="cls-28" d="M489.37,446.64c-.66.58-.43,25.36,15.51,26.26S529,472.45,529,446.64C529,446.64,510.05,428.52,489.37,446.64Zm23.7,22.64c-1.72,0-1.72-6.79-1.72-6.79h-3.88c.43,2.72-2.15,6.79-2.15,6.79-14.65-.91-12.93-22.64-12.93-22.64,19.39-11.32,34.47.45,34.47.45C528.15,468.37,514.79,469.28,513.07,469.28Z" transform="translate(-1 2)"/></g><g id="eyebrows"><path class="cls-29" d="M533.75,411.08" transform="translate(-1 2)"/><path class="cls-30" d="M482.79,408.86a15.48,15.48,0,0,1,8.52-4.35,4.16,4.16,0,0,1,1,0c2,.2,6.29,1.09,8.61,4.63,0,0,.94-.14.66-2.48-.2-1.65-5.63-5.79-11-3.94C483.31,405.23,482.79,408.86,482.79,408.86Z" transform="translate(-1 2)"/><path class="cls-30" d="M535.51,408.45a15.48,15.48,0,0,0-8.7-4,4.16,4.16,0,0,0-1,0c-2,.29-6.23,1.36-8.4,5,0,0-.94-.1-.77-2.45.12-1.66,5.37-6,10.79-4.42C534.83,404.85,535.51,408.45,535.51,408.45Z" transform="translate(-1 2)"/></g><g id="hair"><path class="cls-31" d="M475.25,426.15H477s-5.26-41.31,9.64-53c0,0,7.88,5.39,21.9,4.49s21.9-6.29,21.9-6.29,17.52,4.49,12.26,53.89l1.75.9.88-9a15.5,15.5,0,0,1,2.63-3.59c1.75-1.8,2.63-29.64,0-35.92S527.82,357,507.65,357c-10.51,0-21.9,2.69-34.25,15.27a11.11,11.11,0,0,0-3.08,6.48,120,120,0,0,0,1.42,36.62S476.12,414.48,475.25,426.15Z" transform="translate(-1 2)"/></g><g id="mouth"><path class="cls-32" d="M501.7,449.76s9.26,2,17.36,0A14.17,14.17,0,0,1,501.7,449.76Z" transform="translate(-1 2)"/></g><g id="nose"><path class="cls-33" d="M509.1,436.12c-1.45,0-5.45-3.18-6.42-4l-.22.65s5,5,6.64,5,6.64-5,6.64-5l-.22-.65C514.54,432.95,510.55,436.12,509.1,436.12Z" transform="translate(-1 2)"/></g><g id="face_shadow" data-name="face shadow"><path class="cls-34" d="M491.17,446.17s-2.5-7.11,7.49-9.48C498.66,436.69,488.68,441.43,491.17,446.17Z" transform="translate(-1 2)"/><path class="cls-34" d="M526.71,446.17s2.5-7.11-7.49-9.48C519.22,436.69,529.21,441.43,526.71,446.17Z" transform="translate(-1 2)"/></g><g id="Layer_26" data-name="Layer 26"><polygon class="cls-35" points="191.5 667.49 192.5 955 355.5 955.5 355.5 722.2 733.5 720.21 734.5 950.03 901.5 952.01 901.5 664.5 191.5 667.49"/><path class="cls-35" d="M185.5,648.5s-10,8-10,16h747l-13-19Z" transform="translate(-1 2)"/><polygon class="cls-35" points="174.5 666.5 174.5 681.5 918.5 678.5 921.5 666.5 174.5 666.5"/><polygon class="cls-35" points="191.04 681.4 192.74 699.06 899 698.35 901.44 678.68 191.04 681.4"/><polygon class="cls-35" points="355.5 722.5 733.5 720.5 734.5 950.5 707.5 926.5 371.5 924.5 355.5 955.5 355.5 722.5"/><circle class="cls-36" cx="-1" cy="2"/><polygon class="cls-36" points="708 927 373 924 373 721 709 721 708 927"/><path class="cls-37" d="M608.5,657.5l-150-2c-11,.36-13.93-7.14-14.88-18.64L437.5,559.5c-1-19,7.74-22.64,19.2-22.62l166.56.26c7.73-.35,13.15,3.51,14.1,14.66a36,36,0,0,1,0,5.94L630.5,642.5C630.05,652.21,617.8,657.19,608.5,657.5Z" transform="translate(-1 2)"/><path class="cls-38" d="M599.34,647.11l-133.2-1.72c-9.81.31-12.37-6.11-13.21-15.94l-5.44-66.19c-.89-16.26,6.87-19.37,17-19.35l147.9.23c6.86-.3,11.68,3,12.52,12.54a29.69,29.69,0,0,1,0,5.08l-6.05,72.51C618.48,642.58,607.6,646.85,599.34,647.11Z" transform="translate(-1 2)"/></g><g id="profession_box" data-name="profession box"><rect class="cls-36" x="1234.5" y="587.5" width="351.5" height="114"/></g><g id="name_box" data-name="name  box"><g id="Layer_24" data-name="Layer 24"><rect class="cls-39" x="1143.15" y="405.84" width="529.67" height="86.67" transform="translate(37.87 -105.35) rotate(4.43)"/><rect class="cls-39" x="1245.06" y="584.45" width="330.34" height="116.42" transform="translate(-35.47 83.77) rotate(-3.28)"/></g><rect class="cls-40" x="1141.33" y="413.77" width="534.83" height="82.09" transform="translate(16.69 -49.52) rotate(2.11)"/></g><g id="Layer_28" data-name="Layer 28"><text class="cls-41" transform="matrix(1, 0.04, -0.04, 1, 1154.37, 465.1)">He<tspan class="cls-42" x="68.4" y="0">’</tspan><tspan x="78.57" y="0">s struggling </tspan><tspan class="cls-43" x="383.17" y="0">t</tspan><tspan x="402.36" y="0">o</tspan></text></g></svg>