<svg xmlns="http://www.w3.org/2000/svg" viewBox="0 0 1920 1082"><defs><style>.cls-1{fill:#62acab;}.cls-2,.cls-8{fill:none;}.cls-2{stroke:#fff;stroke-width:4px;}.cls-2,.cls-8,.cls-9{stroke-miterlimit:10;}.cls-3{fill:#c99262;}.cls-4{font-size:97.64px;fill:#fffdf9;font-family:SegoeUI-Bold, Segoe UI;font-weight:700;}.cls-5{letter-spacing:-0.01em;}.cls-6{letter-spacing:-0.07em;}.cls-7{letter-spacing:-0.02em;}.cls-8{stroke:#fffdf9;stroke-width:7px;}.cls-9{fill:#c99263;stroke:#fcfcfc;stroke-width:6px;}.cls-10{font-size:62px;fill:#fff;font-family:SegoeUI, Segoe UI;}.cls-11{letter-spacing:-0.04em;}.cls-12{letter-spacing:-0.01em;}.cls-13{letter-spacing:-0.01em;}</style></defs><title>template_1_preview_13</title><g id="bg"><rect class="cls-1" width="1920" height="1082"/></g><g id="name_box" data-name="name  box"><rect class="cls-2" x="1068.4" y="388.19" width="502.2" height="138.74" transform="translate(-18.11 57.02) rotate(-2.42)"/><polygon class="cls-3" points="1566.32 507.8 1064.32 546 1051.96 404.42 1552.9 373.06 1566.32 507.8"/></g><g id="Layer_3" data-name="Layer 3"><text class="cls-4" transform="translate(1082.09 510.67) rotate(-4.64)"><tspan class="cls-5">C</tspan><tspan x="59.74" y="0">ON</tspan><tspan class="cls-6" x="210.92" y="0">T</tspan><tspan class="cls-7" x="261.32" y="0">A</tspan><tspan x="328.49" y="0">CT</tspan></text></g><g id="Layer_5" data-name="Layer 5"><path class="cls-8" d="M459.07,569.53a31.27,31.27,0,0,1-24.95,33c-26.42,5.41-70.83,8.75-73.63-29-4-54,33-83,129-88,91.58-4.77,202.28-2.26,271.31,57a31.11,31.11,0,0,1,10.79,24.25c-.44,21.33-9.52,55.94-66.77,41.69A31.16,31.16,0,0,1,681.75,572a65.9,65.9,0,0,1,7.75-19.55c1.6,1.64-16-20.92-38-29-48.72-17.89-133.36-26.16-177.75-7.16a31.24,31.24,0,0,0-17.56,37.09A86.48,86.48,0,0,1,459.07,569.53Z" transform="translate(0 1)"/><polygon class="cls-8" points="474.5 553 474.5 610.14 406.5 720.42 406.5 754.5 740.5 754.5 740.5 716.41 664.5 604.13 664.5 553 632.5 554.01 632.5 603.13 506.5 603.13 505.5 551 474.5 553"/><ellipse class="cls-9" cx="573.5" cy="662" rx="51" ry="42.5"/></g><g id="Layer_6" data-name="Layer 6"><text class="cls-10" transform="translate(192.84 193.63)"><tspan class="cls-11">W</tspan><tspan x="55.61" y="0">ant </tspan><tspan class="cls-12" x="160.24" y="0">t</tspan><tspan x="180.76" y="0">o know mo</tspan><tspan class="cls-13" x="487.83" y="0">r</tspan><tspan x="508.56" y="0">e</tspan></text></g></svg>