<svg xmlns="http://www.w3.org/2000/svg" viewBox="0 0 1920 1087"><defs><style>.cls-1{fill:#62acab;}.cls-2{fill:#559a99;}.cls-19,.cls-3,.cls-41,.cls-6{fill:none;stroke-miterlimit:10;}.cls-3,.cls-6{stroke:#fff;}.cls-3{stroke-width:3px;}.cls-4{fill:#fffeff;}.cls-5{font-size:39px;font-family:SegoeUI-SemiBold, Segoe UI;}.cls-5,.cls-8{fill:#fcfcfc;font-weight:700;}.cls-6{stroke-width:4px;}.cls-7{fill:#c99262;}.cls-8{font-size:44px;font-family:SegoeUI-Bold, Segoe UI;}.cls-9{letter-spacing:0em;}.cls-10{letter-spacing:-0.04em;}.cls-11{letter-spacing:-0.01em;}.cls-12{fill:#464845;}.cls-13{fill:#42210b;}.cls-14{fill:#231006;}.cls-15,.cls-20{fill:#7a5642;}.cls-16{fill:#000001;}.cls-17{fill:#8e7870;}.cls-18{fill:#562f1e;}.cls-19{stroke:#030805;}.cls-20{opacity:0.54;}.cls-21{fill:#1e1c1c;}.cls-22{fill:#0f0f0f;}.cls-23{fill:#e4ebf9;}.cls-24{fill:#072e51;}.cls-25{fill:#062135;}.cls-26{fill:#f4eaf6;}.cls-27{fill:#919191;}.cls-28{fill:#d6a078;}.cls-29{fill:#e4b27f;}.cls-30{fill:#161414;}.cls-31{fill:#0c0b0b;}.cls-32{fill:#262323;}.cls-33{fill:#23110c;}.cls-34{fill:#fff;}.cls-35{fill:#e4ac7f;}.cls-36{fill:#e6b185;}.cls-37{fill:#e6b085;}.cls-38{fill:#da9f77;}.cls-39{fill:#a06545;}.cls-40{fill:#645d5a;}.cls-41{stroke:#1b120a;stroke-width:0.5px;}.cls-42{fill:#1b120a;}.cls-43{fill:#4a4340;}.cls-44{fill:#482f27;}.cls-45{fill:#fcffff;}.cls-46{fill:#c7835d;}</style></defs><title>template_1_preview_12</title><g id="bg"><rect class="cls-1" width="1920" height="1087"/></g><g id="Layer_25" data-name="Layer 25"><ellipse class="cls-2" cx="628.5" cy="934.5" rx="241.5" ry="6.5"/></g><g id="Layer_2" data-name="Layer 2"><rect class="cls-3" x="424.5" y="874" width="109" height="57.5"/><rect class="cls-3" x="534.5" y="824.5" width="160" height="111"/><rect class="cls-3" x="695.5" y="873.5" width="107" height="59"/><g id="Layer_26" data-name="Layer 26"><polygon class="cls-4" points="423 872.88 445.2 859.16 534 859.16 534 872.88 423 872.88"/><polygon class="cls-4" points="533 824 552 813 682 813 698 824 533 824"/><polygon class="cls-4" points="698 860 785 860 804 872 695 875 698 860"/></g><text class="cls-5" transform="translate(607.69 889.65)">1</text><text class="cls-5" transform="translate(460.69 923.65)">2</text><text class="cls-5" transform="translate(739.69 927.65)">3</text></g><g id="name_box" data-name="name  box"><rect class="cls-6" x="177.53" y="170.43" width="948.97" height="94.73" transform="matrix(1, -0.05, 0.05, 1, -9.92, 35.31)"/><rect class="cls-7" x="168.89" y="164.08" width="946.29" height="93.88" transform="translate(-12.34 45.09) rotate(-3.72)"/></g><g id="Layer_27" data-name="Layer 27"><text class="cls-8" transform="translate(221.4 257.92) rotate(-4)">Adding <tspan class="cls-9" x="163.93" y="0">t</tspan><tspan x="180.88" y="0">o that no</tspan><tspan class="cls-10" x="369.98" y="0">w</tspan><tspan x="403.3" y="0">, He Could also ha</tspan><tspan class="cls-11" x="774.62" y="0">v</tspan><tspan x="798.04" y="0">e</tspan></text></g><g id="shadow"><ellipse class="cls-12" cx="617.58" cy="814.6" rx="55.19" ry="5.62"/></g><g id="shoes"><path class="cls-13" d="M655,812.13s1.12-3.35-1.74-4.87c0,0-1.35-4-2.66-4.5-1.58-.59,0-.66,0-.66l-.92-4.25a3.14,3.14,0,0,0-.86-1.61c-1-1-2.86-2.95-4.16-3.12-1.88-.25-4.09-1.14-5.92-.4s-3.28,3.78-3.23,5.09,0,6.93,0,7.26-.25,1.66.4,2.29c0,0-3.69,1.15-1.93,6.36C634,813.72,638.78,809.55,655,812.13Z" transform="translate(0 3)"/><path class="cls-14" d="M644.66,794.42l.23,6.64c0,1,2.27,3,2.27,3a10.55,10.55,0,0,1,5.66,3,3.87,3.87,0,0,1,.29,1.67,11,11,0,0,0-6.23-3.66s-2.23-2-2.27-3l-.27-7.64A1.36,1.36,0,0,1,644.66,794.42Z" transform="translate(0 3)"/><path class="cls-13" d="M653.13,807.24a12,12,0,0,0-6.73-3.52s-2.41-1.93-2.45-2.94l-.26-7.41s2.65-.78,5.86,3.86c0,0,1.13,4.63,1.16,5.3S653.29,805,653.13,807.24Z" transform="translate(0 3)"/><path class="cls-15" d="M652.59,806.83a3.15,3.15,0,0,1,0,.34,11.49,11.49,0,0,0-3.09-2.46A11.54,11.54,0,0,1,652.59,806.83Z" transform="translate(0 3)"/><path class="cls-15" d="M646.22,794a2.54,2.54,0,0,0-1.59-.2l.26,7.3c0,.78,1.38,2.12,2,2.66l-.35-.06s-2.19-1.91-2.23-2.9l-.26-7.3A2.94,2.94,0,0,1,646.22,794Z" transform="translate(0 3)"/><path class="cls-16" d="M636.06,807.28s-.89-1.53,2.39-3.86,4.54-2.22,3.12-9.76a2.39,2.39,0,0,1,.26.15c1.47,7.7.19,7.59-3.09,9.91s-2.39,3.86-2.39,3.86a.52.52,0,0,1-.52-.34A.53.53,0,0,0,636.06,807.28Z" transform="translate(0 3)"/><path class="cls-13" d="M636,807.43s-1-1.62,2.64-4.09,5-2.35,3.43-10.52c0,0-4.18-2.87-6.57,4.43v7.36S634.76,807.48,636,807.43Z" transform="translate(0 3)"/><path class="cls-15" d="M638.15,803.81c3.54-2.49,4.91-2.37,3.33-10.63a3.37,3.37,0,0,0-3.22-.25,3.32,3.32,0,0,1,3.81-.11c1.58,8.26.2,8.13-3.33,10.63s-2.57,4.14-2.57,4.14c-.39,0-.58-.28-.65-.68C635.68,806.19,636.3,805.12,638.15,803.81Z" transform="translate(0 3)"/><path class="cls-13" d="M578.85,805.87s-1-3.31,1.84-4.7c0,0,1.43-3.87,2.72-4.31,1.55-.52,0-.64,0-.64l1-4.12a3.05,3.05,0,0,1,.88-1.55c1-1,2.87-2.78,4.14-2.9,1.83-.18,4-1,5.77-.19s3.07,3.8,3,5.08-.16,6.77-.18,7.09.19,1.63-.46,2.23c0,0,3.55,1.25,1.69,6.27C599.3,808.14,594.74,803.9,578.85,805.87Z" transform="translate(0 3)"/><path class="cls-14" d="M589.25,788.91l-.42,6.19c-.07,1-2.31,2.75-2.31,2.75a10.35,10.35,0,0,0-5.62,2.62,3.45,3.45,0,0,0-.34,1.55,10.68,10.68,0,0,1,6.19-3.17s2.24-1.78,2.31-2.75l.49-7.13A1.39,1.39,0,0,0,589.25,788.91Z" transform="translate(0 3)"/><path class="cls-13" d="M581.1,800.75a10.68,10.68,0,0,1,6.19-3.17s2.24-1.78,2.31-2.75l.49-7.13s-2.37-.84-5.42,3.53c0,0-1.18,4.42-1.22,5.07S581,798.55,581.1,800.75Z" transform="translate(0 3)"/><path class="cls-15" d="M581.74,800.15a3.08,3.08,0,0,0,0,.33,11.15,11.15,0,0,1,3.1-2.29A11.21,11.21,0,0,0,581.74,800.15Z" transform="translate(0 3)"/><path class="cls-15" d="M588.39,787.83a2.48,2.48,0,0,1,1.56-.14l-.49,7.13c-.05.76-1.41,2-2,2.52l.35-.05s2.2-1.78,2.27-2.75l.49-7.13A2.87,2.87,0,0,0,588.39,787.83Z" transform="translate(0 3)"/><path class="cls-14" d="M598.67,803s1-1.72-3-4.06-5.42-2.14-4.16-10.44a2.85,2.85,0,0,0-.3.18c-1.3,8.47.19,8.27,4.14,10.61s3,4.06,3,4.06a.61.61,0,0,0,.58-.4A.66.66,0,0,1,598.67,803Z" transform="translate(0 3)"/><path class="cls-13" d="M597.6,802s1-1.55-2.45-4.1-4.84-2.49-3-10.41c0,0,4.18-2.65,6.27,4.58l-.24,7.2S598.81,802.07,597.6,802Z" transform="translate(0 3)"/><path class="cls-15" d="M596.05,798.91c-3.72-2.7-5.21-2.64-3.24-11a3.77,3.77,0,0,1,3.47-.12,3.72,3.72,0,0,0-4.1-.27c-2,8.37-.48,8.3,3.24,11s2.63,4.34,2.63,4.34c.42,0,.63-.26.73-.66C598.63,801.44,598,800.32,596.05,798.91Z" transform="translate(0 3)"/><path class="cls-14" d="M656.32,814.4s-.9-2.8-5.77-2.81-16.16-2.08-17.42,2.15c0,0,0,1.66,2.77,1.93C641.82,816.25,652.64,816.4,656.32,814.4Z" transform="translate(0 3)"/><path class="cls-17" d="M656,812.36s-1.29-2.06-7.29-2.49c-4.18-.3-9.12-.22-9.12-.22s-5.56.43-6.14,3.09l22.26.33Z" transform="translate(0 3)"/><path class="cls-18" d="M656.47,814.29s.59-2.07-1.27-2.38-15.11-1.46-19.41-.36-2.34,3.18-2.34,3.18,1.13-1.79,4.52-1.5a76.75,76.75,0,0,0,9.24-.16s5.55.17,5.86.24C654.76,813.71,654.93,814.66,656.47,814.29Z" transform="translate(0 3)"/><path class="cls-14" d="M577.31,808.08s1-2.68,5.78-2.4,15.89-1.05,16.9,3.16c0,0-.13,1.62-2.81,1.71C591.36,810.77,580.79,810.26,577.31,808.08Z" transform="translate(0 3)"/><path class="cls-17" d="M577.74,806.11s1.36-1.93,7.25-2c4.1,0,8.92.34,8.92.34s5.4.75,5.83,3.39l-21.75-1Z" transform="translate(0 3)"/><path class="cls-18" d="M577.16,808s-.46-2.06,1.36-2.25,14.83-.51,19,.83,2.12,3.25,2.12,3.25-1-1.82-4.34-1.74a75.17,75.17,0,0,1-9-.71s-5.43-.17-5.73-.12C578.86,807.5,578.64,808.42,577.16,808Z" transform="translate(0 3)"/><path class="cls-19" d="M646.28,793.7c0-3.37-7.72-3.73-7.72,0" transform="translate(0 3)"/><path class="cls-19" d="M646.07,795.55c-.12-3.37-7.85-3.4-7.72.31" transform="translate(0 3)"/><path class="cls-19" d="M647.07,801.5c-.12-3.37-7.85-3.4-7.72.31" transform="translate(0 3)"/><path class="cls-19" d="M647.22,799.35c-.12-3.37-7.85-3.4-7.72.31" transform="translate(0 3)"/><path class="cls-19" d="M594,796.44c-.12-3.37-7.85-3.4-7.72.31" transform="translate(0 3)"/><path class="cls-19" d="M593.51,788.15c.16-3.86-8.68-4.68-8.86-.43" transform="translate(0 3)"/><path class="cls-19" d="M593.91,789.38c.14-3.29-7.4-4-7.55-.36" transform="translate(0 3)"/><path class="cls-19" d="M594.08,793.51c.14-3.29-7.4-4-7.55-.36" transform="translate(0 3)"/><path class="cls-20" d="M655.35,811.91s-2.79-2.65-11.58-2.13-8.27.21-10.26,2.17c0,0-2-3.22,10-3.56S655.35,811.91,655.35,811.91Z" transform="translate(0 3)"/><path class="cls-20" d="M577.4,806.33a.08.08,0,0,0,.12.09c.69-.48,4.26-2.27,10.68-2.2,8.68.1,9.09,1.32,10.91,3.28a.08.08,0,0,0,.13,0c.25-.54,1-3.65-9.76-4.45C579.13,802.27,577.58,805.55,577.4,806.33Z" transform="translate(0 3)"/></g><g id="Layer_34" data-name="Layer 34"><path class="cls-21" d="M635.85,621.79s-1.65,9-1,14.75,16,160.95,16,160.95-12.33,7-16.15,2.18l-13.15-90-14.66-74.16s-4.78-6.08-6.2-.49-.27,79.82-.27,79.82l.84,78.77s-9.69,4.94-16.53-1.31L580.93,711l-8.25-91.9S632.44,626.08,635.85,621.79Z" transform="translate(0 3)"/><path class="cls-22" d="M602.43,621.54c15.29,1.18,30.64,1.8,32.33-.27,0,0-.08.42-.2,1.14C628.87,623.31,615.37,622.59,602.43,621.54Z" transform="translate(0 3)"/><path class="cls-22" d="M602.53,632.42c2-1.33,5.13,2.56,5.13,2.56l15.09,73.67,13.58,89.43a4.46,4.46,0,0,0,2.5,1.5c-2,.1-3.84-.32-4.95-1.69l-13.58-89.43-15.09-73.67A11.34,11.34,0,0,0,602.53,632.42Z" transform="translate(0 3)"/><path class="cls-22" d="M572.77,618.72l8.58,91.19,4,80.72a12.28,12.28,0,0,0,6.26,3,12.76,12.76,0,0,1-8.71-3.15l-4-80.72-8.59-91.27Z" transform="translate(0 3)"/><path class="cls-22" d="M648.66,777l2.37,18.3s-6.84,7.21-15.64,3.28l-.59-4.57S646.37,797.34,648.66,777Z" transform="translate(0 3)"/><path class="cls-22" d="M601.53,773.55,600.62,793a19.22,19.22,0,0,1-16.89-2.33l.55-4.21S595.78,793.05,601.53,773.55Z" transform="translate(0 3)"/></g><g id="torso"><path class="cls-23" d="M606.57,508.23s26.59,1,31,3-.11,101.62.05,103.4c.8,8.63-67.88,8.27-69.26,2.37-.79-3.36-7.79-102.37-3.52-104.66C573.15,507.87,606.57,508.23,606.57,508.23Z" transform="translate(0 3)"/><path class="cls-23" d="M563.94,511.9c7.62-4.47,38.3-4.1,38.3-4.1s20.78.84,27.18,2.55c-7.89-1.42-25.17-2.12-25.17-2.12s-30.68-.36-38.3,4.1c-3.92,2.29,2.51,101.3,3.23,104.66.19.88,1.75,1.64,4.26,2.26-3.67-.69-6-1.59-6.26-2.69C566.44,613.21,560,514.2,563.94,511.9Z" transform="translate(0 3)"/><path class="cls-23" d="M565.14,512.49c-.73,3.85-1.05,12.43-1.12,23.1C563.75,523.07,564,513.82,565.14,512.49Z" transform="translate(0 3)"/><path class="cls-23" d="M633.84,616.48c-.11-1.82,7.37-102.68,3.13-104.86-1.67-.86-6.69-1.67-12.17-2.34,5.87.49,11.37,1.14,13.17,2,4.41,2-.11,102.43.05,104.23.21,2.29-4.38,3.95-11.29,5C631.19,619.61,633.95,618.29,633.84,616.48Z" transform="translate(0 3)"/><path class="cls-23" d="M606.58,622.12c-16.38.4-33.71-.88-37.18-3.47C576.12,620.85,592.17,622.23,606.58,622.12Z" transform="translate(0 3)"/><path class="cls-23" d="M607.18,513.11s1.46-1.66,1.46-2.87-7.47-2-15.87-2c0,0,0,3.63,1.92,4.84S596.61,507.06,607.18,513.11Z" transform="translate(0 3)"/><path class="cls-23" d="M576.16,594s11.61,23.67,24.83,25c0,0-19.22,8.61-29.24,5.16l-4.41-7.75-2.26-34.7Z" transform="translate(0 3)"/></g><g id="collar"><polygon class="cls-24" points="599.96 521.46 602.6 525.29 601.72 527.84 604.79 598.04 598.64 610.16 591.17 596.13 596.88 525.29 599.96 521.46"/><polygon class="cls-25" points="602.71 598.69 599.83 529.61 600.65 527.1 598.62 523.99 599.83 522.4 602.3 526.17 601.47 528.68 604.35 597.76 598.6 609.69 597.98 608.48 602.71 598.69"/><polygon class="cls-26" points="594.78 519.74 595.18 519.74 595.18 519.74 594.78 519.74 594.78 519.74"/><path class="cls-27" d="M604.85,523.6s1-1,3.26-9.47a23.93,23.93,0,0,0,.59-2.88,14,14,0,0,1-.59,6.06c-2.22,8.43-3.26,9.47-3.26,9.47l-5.54-9.54s.5-.39,1.23-1.06Z" transform="translate(0 3)"/><path class="cls-23" d="M599.77,515.61a27.66,27.66,0,0,0,4.45-4.57c1-1.3,2-1.73,2.61-3.35,0,0,3.42-.1,1.32,8s-3.1,9.08-3.1,9.08Z" transform="translate(0 3)"/><path class="cls-23" d="M600.36,515.58s-2-.57-4.05-3.45a16.33,16.33,0,0,1-1.85-4.34s-4.83-.21-3,8,2.83,9.28,2.83,9.28Z" transform="translate(0 3)"/><path class="cls-27" d="M591.47,515.39c1.84,8.23,2.83,9.28,2.83,9.28l5.22-8.19a4.42,4.42,0,0,0,.84.4l-6.06,9.52s-1-1.05-2.83-9.28a13.6,13.6,0,0,1-.38-4.16A17.26,17.26,0,0,0,591.47,515.39Z" transform="translate(0 3)"/></g><g id="righ_wrist" data-name="righ wrist"><path class="cls-28" d="M634.64,383.1s-5-2.64-5.37-4.89-2.77-9.93.19-9.26S633.07,377,634.64,383.1Z" transform="translate(0 3)"/><path class="cls-29" d="M627.78,403.06s-8.14-14.81-3.41-27.7c0,0,2.59,8.8,3.51,11s6.86-3.43-.36-12.63c-3-3.84-2.4-7.68-.92-5.62s8.15,1,11.38,17.16c0,0-3.9,11-3,16.64S632.69,408.6,627.78,403.06Z" transform="translate(0 3)"/><path class="cls-28" d="M568.51,378.1s5-2.64,5.37-4.89,2.77-9.93-.19-9.26S570.08,372,568.51,378.1Z" transform="translate(0 3)"/><path class="cls-29" d="M575.37,398.06s8.14-14.81,3.41-27.7c0,0-2.59,8.8-3.51,11s-6.86-3.43.36-12.63c3-3.84,2.4-7.68.92-5.62s-8.15,1-11.38,17.16c0,0,3.9,11,3,16.64S570.46,403.6,575.37,398.06Z" transform="translate(0 3)"/></g><g id="coat"><path class="cls-30" d="M609,507s26.88,0,30.56,3.58c2.76,2.69,2.93,96.27,2.93,119.4a4.9,4.9,0,0,1-5.22,4.85L604.73,633l1-59.27,3.8-46.41Z" transform="translate(0 3)"/><path class="cls-30" d="M592,507s-22.27.89-28.65,5.25c-2.37,1.62.91,114.47.91,114.47a8.57,8.57,0,0,0,6.36,5.37c5.08,1.13,28.28,3.35,28.28,3.35L598,584.2l-.91-44.7Z" transform="translate(0 3)"/><path class="cls-31" d="M617.7,535.85l-7.5-6.4,9.65-5.09-6.6-15.49,2.18-.12,6.63,15.55-9.65,5.09,7.5,6.4-10.38,70.86c-.06.15-.35-5.3-.54-11.34Z" transform="translate(0 3)"/><path class="cls-32" d="M612.14,507.7l5.93,15.76-8.52,5.1,6.67,6.51-8.89,71.64c-.09.27-.89-16.94-.68-24.15.48-16.11-.36-42.76.52-51.56,1-9.75,3.74-20.76,2.29-24.13Z" transform="translate(0 3)"/><path class="cls-31" d="M592.52,525.73l-7.51-4.5L590,506.45l2.19.07c0,.06,0,.14-.06.21l-4.85,14.5,7.08,4.24.07.48-7.4,4.64,10.17,55.82c0,5.85-.09,11.57-.15,11.41l-12.24-67.23Z" transform="translate(0 3)"/><path class="cls-32" d="M592.05,506.45l-4.15,14.78,6.3,4.5-6.51,4.86L598,597.82c.07.25.24-13.38,0-20.07-.54-14.93-.93-40.14-2-49.83-1-9-1.74-19.41-1.74-22.42Z" transform="translate(0 3)"/><path class="cls-33" d="M562.49,529.48s2.8,93.8,8.4,95.71c0,0-5.6-1.91-6.54-6.7s-1.87-89-1.87-89Z" transform="translate(0 3)"/><path class="cls-31" d="M641,527.24c-.15,1,.65,108.71-5.68,106.18l7-2.11c0-5.36-1.34-104.07-1.34-104.07Z" transform="translate(0 3)"/></g><g id="coat_left_sleeve" data-name="coat left sleeve"><path class="cls-30" d="M651.71,449.86a24.57,24.57,0,0,0-1.19-2.88" transform="translate(0 3)"/><path class="cls-30" d="M632.43,464.39c1.38,1.52-6.71,47.18-6.71,47.18s-6.23,13.93,4.69,26.11c1.29,1.44,7.34-4.88,7.74-6.65-.82,6.62,8-43.32,12-66.76" transform="translate(0 3)"/><path class="cls-34" d="M626.93,404.65l-.89-4.42,10.15-1.67.74,4.5A74.79,74.79,0,0,0,626.93,404.65Z" transform="translate(0 3)"/><path class="cls-30" d="M650.25,464c-1.75-8.11-11.11-59.86-13.43-61.53-2.54-1.82-12.35,1.14-12.06,2.92,1,6.36,5.74,50.2,8.24,61.62" transform="translate(0 3)"/></g><g id="shirt_left_sleeve" data-name="shirt left sleeve"><path class="cls-30" d="M548.71,430.86a24.57,24.57,0,0,0-1.19-2.88" transform="translate(0 3)"/><path class="cls-34" d="M577.22,399.65l.89-4.42L568,393.56l-.74,4.5A74.79,74.79,0,0,1,577.22,399.65Z" transform="translate(0 3)"/><path class="cls-30" d="M570.61,459.56c-1.42,1.49,5.48,47.34,5.48,47.34s5.87,14.09-5.36,26c-1.33,1.41-7.21-5.07-7.56-6.84.65,6.64-6.84-43.51-10.27-67" transform="translate(0 3)"/><path class="cls-30" d="M552.9,459c1.75-8.11,11.11-59.86,13.43-61.53,2.54-1.82,12.35,1.14,12.06,2.92-1,6.36-5.89,49.2-8.39,60.62" transform="translate(0 3)"/></g><g id="neck"><path class="cls-35" d="M606.77,503.22v5c0,2-5.22,8-6.54,8-.93,0-4.67-4-5.6-8s0-5,0-5Z" transform="translate(0 3)"/></g><g id="face"><path class="cls-36" d="M619,471.92s1.79-11.54-2-18.13c0,0-4.35-7.69-12.78-8.79s-16.36,2.47-19.94,9.89c0,0-2.56,6.32-1.79,12.36s.77,5.49.77,5.49-.64-.69-1-.55-1.79.55-1.79,3.3,1,7.69,2.56,9.61S585.5,487,585.5,487s-.63,5.61,5.11,12.36c5.37,6.32,6.9,6.59,9.71,6.59s8.18,0,14.57-11.81a29.19,29.19,0,0,0,1.79-7.69A142.27,142.27,0,0,1,619,471.92Z" transform="translate(0 3)"/><path class="cls-37" d="M619,472.2s2-.27,2.3,2.75-2.56,10.16-2.56,10.16-1.79,1.92-2.3,1.65S616.94,474.67,619,472.2Z" transform="translate(0 3)"/><path class="cls-38" d="M618.6,475.08a56.82,56.82,0,0,1,.89-7.28c.51-1.65.51-12.64-5.37-17.85,0,0-1.53-1.1-1.79-.27s-1,3.85,3.83,11c0,0,2,5.49,1.36,14.66,0,.15-1.87,13.63-2.13,15.28a56.55,56.55,0,0,1-3.32,7.42c-1.2,1.72-3.83,5.49-6.65,6.32-2.47.72-4.6,1.37-8.18,0a12.88,12.88,0,0,1-4.86-3s4.22,7.28,12.52,4.12c6.65-2.53,10.24-11.84,10.88-13.69a3.41,3.41,0,0,0,.15-.61C616.27,489.14,618,477.71,618.6,475.08Z" transform="translate(0 3)"/><path class="cls-38" d="M585,483.46c.25-.07-1.28-8.24-2.56-8.79,0,0-1.53.27-.77,3.3a29.18,29.18,0,0,0,1.53,4.67S584,483.73,585,483.46Z" transform="translate(0 3)"/><path class="cls-38" d="M616.92,483c-.25-.06,1-8.29,2.23-8.89,0,0,1.54.21.89,3.26a29.33,29.33,0,0,1-1.36,4.73S617.95,483.21,616.92,483Z" transform="translate(0 3)"/><path class="cls-39" d="M582.67,475.7s-1.26,1-.33,4.88c0,0-1.63-4.39-.23-5.77A.75.75,0,0,1,582.67,475.7Z" transform="translate(0 3)"/><path class="cls-39" d="M618.87,475.15s1.26,1,.33,4.88c0,0,1.63-4.39.23-5.77A.75.75,0,0,0,618.87,475.15Z" transform="translate(0 3)"/></g><g id="beard"><path class="cls-40" d="M590.9,491.42c0,13.66,4,14.37,11.88,13.89s8-13.59,7.64-13.89C600.23,481.84,590.9,491.42,590.9,491.42Zm1.06.24s7.42-6.23,17-.24c0,0,.85,11.5-6.36,12,0,0-1.27-2.16-1.06-3.59H599.6s0,3.59-.85,3.59S591.32,502.92,592,491.66Z" transform="translate(0 3)"/></g><g id="eyebrows"><path class="cls-41" d="M588.57,472.61" transform="translate(0 3)"/><path class="cls-42" d="M613.65,471.43a7.51,7.51,0,0,0-4.19-2.3,1.91,1.91,0,0,0-.51,0,5.64,5.64,0,0,0-4.24,2.45s-.46-.07-.33-1.31c.1-.88,2.77-3.07,5.4-2.09C613.4,469.52,613.65,471.43,613.65,471.43Z" transform="translate(0 3)"/><path class="cls-42" d="M587.7,471.22a7.45,7.45,0,0,1,4.28-2.1,1.91,1.91,0,0,1,.51,0,5.68,5.68,0,0,1,4.14,2.65s.46-.05.38-1.3c-.06-.88-2.64-3.19-5.31-2.34C588,469.32,587.7,471.22,587.7,471.22Z" transform="translate(0 3)"/></g><g id="hair"><path class="cls-43" d="M617.37,480.58h-.86s2.59-21.86-4.74-28c0,0-3.88,2.85-10.78,2.38s-10.78-3.33-10.78-3.33-8.62,2.38-6,28.51l-.86.48-.43-4.75a8.23,8.23,0,0,0-1.29-1.9c-.86-1-1.29-15.68,0-19S591.49,444,601.41,444c5.17,0,10.78,1.43,16.86,8.08a6.07,6.07,0,0,1,1.52,3.43,68.16,68.16,0,0,1-.7,19.38S616.94,474.41,617.37,480.58Z" transform="translate(0 3)"/></g><g id="mouth"><path class="cls-44" d="M606.94,491.48s-7.06,2.5-13.24,0C593.7,491.48,599.88,499.83,606.94,491.48Z" transform="translate(0 3)"/><path class="cls-45" d="M604.28,492.15v1.66a6.46,6.46,0,0,1-7.44.26v-1.73A24.17,24.17,0,0,0,604.28,492.15Z" transform="translate(0 3)"/></g><g id="nose"><path class="cls-46" d="M600.7,485.86c.71,0,2.68-1.68,3.16-2.1l.11.34s-2.45,2.63-3.27,2.63-3.27-2.63-3.27-2.63l.11-.34C598,484.18,600,485.86,600.7,485.86Z" transform="translate(0 3)"/></g></svg>