<svg xmlns="http://www.w3.org/2000/svg" viewBox="0 0 1920 1087"><defs><style>.cls-1{fill:#62acab;}.cls-13,.cls-2,.cls-36,.cls-4{fill:none;}.cls-2,.cls-4{stroke:#fff;}.cls-13,.cls-2,.cls-29,.cls-36,.cls-4{stroke-miterlimit:10;}.cls-2{stroke-width:3px;}.cls-3{fill:#fff;}.cls-4{stroke-width:4px;}.cls-5{fill:#c99262;}.cls-6{fill:#464845;}.cls-7{fill:#42210b;}.cls-8{fill:#231006;}.cls-14,.cls-9{fill:#7a5642;}.cls-10{fill:#000001;}.cls-11{fill:#8e7870;}.cls-12{fill:#562f1e;}.cls-13{stroke:#030805;}.cls-14{opacity:0.54;}.cls-15{fill:#1e1c1c;}.cls-16{fill:#0f0f0f;}.cls-17{fill:#e4ebf9;}.cls-18{fill:#072e51;}.cls-19{fill:#062135;}.cls-20{fill:#f4eaf6;}.cls-21{fill:#919191;}.cls-22{fill:#d6a078;}.cls-23{fill:#e4b27f;}.cls-24{fill:#161414;}.cls-25{fill:#0c0b0b;}.cls-26{fill:#262323;}.cls-27{fill:#23110c;}.cls-28,.cls-29{fill:#e8b081;}.cls-29{stroke:#d6a078;stroke-width:2px;}.cls-30{fill:#e4ac7f;}.cls-31{fill:#e6b185;}.cls-32{fill:#e6b085;}.cls-33{fill:#da9f77;}.cls-34{fill:#a06545;}.cls-35{fill:#645d5a;}.cls-36{stroke:#1b120a;stroke-width:0.5px;}.cls-37{fill:#1b120a;}.cls-38{fill:#4a4340;}.cls-39{fill:#482f27;}.cls-40{fill:#fcffff;}.cls-41{fill:#c7835d;}</style></defs><title>template_1_preview_6</title><g id="bg"><rect class="cls-1" width="1920" height="1087"/></g><g id="profession_box" data-name="profession box"><g id="Layer_24" data-name="Layer 24"><polygon class="cls-2" points="876.82 691.76 231.3 721.39 222.24 554.74 867.75 525.12 876.82 691.76"/></g><polygon class="cls-3" points="877.27 706.97 234.56 707.82 233.75 540.67 876.48 539.81 877.27 706.97"/></g><g id="name_box" data-name="name  box"><rect class="cls-4" x="281.05" y="329.16" width="528.69" height="104.9" transform="translate(-17.1 27.27) rotate(-2.82)"/><rect class="cls-5" x="277.19" y="324.93" width="523.37" height="100.35" transform="translate(-28.1 45.72) rotate(-4.73)"/></g><g id="shadow"><ellipse class="cls-6" cx="1363.15" cy="925.19" rx="128.76" ry="12.19"/></g><g id="shoes"><path class="cls-7" d="M1490.48,930.54s2.6-7.27-4.06-10.58c0,0-3.15-8.71-6.2-9.78-3.68-1.28-.06-1.43-.06-1.43l-2.15-9.23a6.68,6.68,0,0,0-2-3.5c-2.3-2.28-6.67-6.39-9.71-6.77-4.38-.54-9.53-2.48-13.82-.87s-7.65,8.19-7.53,11.06-.11,15.05-.08,15.77-.58,3.61.93,5c0,0-8.6,2.5-4.51,13.8C1441.29,934,1452.53,924.93,1490.48,930.54Z" transform="translate(1)"/><path class="cls-8" d="M1466.25,892.1l.54,14.4c.09,2.26,5.3,6.6,5.3,6.6a25.16,25.16,0,0,1,13.2,6.62,7.88,7.88,0,0,1,.69,3.62s-5.82-6.77-14.52-7.95c0,0-5.21-4.34-5.3-6.6l-.62-16.59A3.39,3.39,0,0,1,1466.25,892.1Z" transform="translate(1)"/><path class="cls-7" d="M1486,919.92a28.48,28.48,0,0,0-15.7-7.65s-5.63-4.18-5.71-6.38l-.6-16.09s6.19-1.7,13.68,8.38c0,0,2.64,10.05,2.7,11.51S1486.39,915,1486,919.92Z" transform="translate(1)"/><path class="cls-9" d="M1484.76,919a6.36,6.36,0,0,1,0,.74,26.44,26.44,0,0,0-7.2-5.35A27,27,0,0,1,1484.76,919Z" transform="translate(1)"/><path class="cls-9" d="M1469.88,891.17a6.34,6.34,0,0,0-3.71-.44l.6,15.85c.06,1.69,3.21,4.59,4.57,5.77-.27,0-.54-.1-.82-.14,0,0-5.11-4.14-5.19-6.3l-.6-15.85S1466.77,889.46,1469.88,891.17Z" transform="translate(1)"/><path class="cls-10" d="M1446.18,920s-2.09-3.32,5.57-8.37,10.6-4.81,7.28-21.2a5.68,5.68,0,0,1,.62.34c3.42,16.72.44,16.47-7.22,21.52s-5.57,8.37-5.57,8.37a1.21,1.21,0,0,1-1.21-.74A1.32,1.32,0,0,0,1446.18,920Z" transform="translate(1)"/><path class="cls-7" d="M1446,920.34s-2.3-3.52,6.16-8.89,11.74-5.11,8-22.83c0,0-9.76-6.23-15.32,9.62v16S1443.15,920.45,1446,920.34Z" transform="translate(1)"/><path class="cls-9" d="M1451.05,912.49c8.25-5.42,11.46-5.15,7.78-23.07a8.34,8.34,0,0,0-7.52-.55,8.21,8.21,0,0,1,8.89-.23c3.68,17.92.47,17.66-7.78,23.07s-6,9-6,9c-.91,0-1.34-.6-1.53-1.47C1445.3,917.64,1446.74,915.32,1451.05,912.49Z" transform="translate(1)"/><path class="cls-7" d="M1312.72,917s-2.3-7.18,4.29-10.21c0,0,3.34-8.41,6.34-9.35,3.62-1.14.1-1.4.1-1.4l2.38-8.94a6.53,6.53,0,0,1,2.06-3.36c2.31-2.15,6.69-6,9.65-6.3,4.27-.39,9.35-2.12,13.46-.41s7.17,8.24,7,11-.37,14.7-.43,15.4.45,3.54-1.06,4.83c0,0,8.28,2.71,3.95,13.62C1360.43,921.88,1349.8,912.68,1312.72,917Z" transform="translate(1)"/><path class="cls-8" d="M1337,880.14l-1,13.43c-.16,2.11-5.39,6-5.39,6a24.91,24.91,0,0,0-13.11,5.69,7.06,7.06,0,0,0-.79,3.36s5.91-6.1,14.45-6.89c0,0,5.23-3.86,5.39-6l1.14-15.47A3.47,3.47,0,0,0,1337,880.14Z" transform="translate(1)"/><path class="cls-7" d="M1318,905.85s5.91-6.1,14.45-6.89c0,0,5.23-3.86,5.39-6l1.14-15.47s-5.52-1.82-12.65,7.65c0,0-2.75,9.59-2.86,11S1317.82,901.07,1318,905.85Z" transform="translate(1)"/><path class="cls-9" d="M1319.47,904.53a6.22,6.22,0,0,0,0,.72,25.86,25.86,0,0,1,7.23-5A26.44,26.44,0,0,0,1319.47,904.53Z" transform="translate(1)"/><path class="cls-9" d="M1335,877.8a6.2,6.2,0,0,1,3.64-.3L1337.49,893c-.12,1.65-3.3,4.38-4.67,5.48.27,0,.53-.08.8-.11,0,0,5.14-3.86,5.3-6l1.14-15.47S1338.09,876.25,1335,877.8Z" transform="translate(1)"/><path class="cls-8" d="M1359,910.83s2.24-3.73-7-8.8-12.64-4.65-9.71-22.67a6.74,6.74,0,0,0-.7.4c-3,18.39.43,18,9.66,23s7,8.8,7,8.8a1.42,1.42,0,0,0,1.36-.88A1.63,1.63,0,0,1,1359,910.83Z" transform="translate(1)"/><path class="cls-7" d="M1356.47,908.51s2.37-3.36-5.71-8.9-11.3-5.4-7-22.6c0,0,9.76-5.75,14.64,9.94l-.56,15.62S1359.28,908.71,1356.47,908.51Z" transform="translate(1)"/><path class="cls-9" d="M1352.85,901.84c-8.68-5.87-12.15-5.73-7.57-23.9a9.37,9.37,0,0,1,8.1-.26,9.22,9.22,0,0,0-9.56-.6c-4.58,18.17-1.12,18,7.57,23.9s6.14,9.42,6.14,9.42c1,.07,1.47-.56,1.69-1.44C1358.86,907.34,1357.39,904.91,1352.85,901.84Z" transform="translate(1)"/><path class="cls-8" d="M1493.44,935.48s-2.11-6.08-13.45-6.11-37.7-4.52-40.64,4.67c0,0,.09,3.6,6.46,4.18C1459.62,939.49,1484.85,939.81,1493.44,935.48Z" transform="translate(1)"/><path class="cls-11" d="M1492.65,931s-3-4.46-17-5.41c-9.75-.66-21.29-.48-21.29-.48s-13,.93-14.31,6.71l51.92.71Z" transform="translate(1)"/><path class="cls-12" d="M1493.8,935.23s1.37-4.49-3-5.17-35.26-3.17-45.28-.78c-9.75,2.33-5.46,6.91-5.46,6.91s2.63-3.89,10.55-3.27,21.55-.34,21.55-.34,13,.38,13.66.53C1489.81,934,1490.21,936,1493.8,935.23Z" transform="translate(1)"/><path class="cls-8" d="M1309.12,921.76s2.4-5.82,13.48-5.21,37.07-2.29,39.42,6.85c0,0-.29,3.51-6.54,3.72C1341.92,927.58,1317.25,926.48,1309.12,921.76Z" transform="translate(1)"/><path class="cls-11" d="M1310.14,917.47s3.18-4.19,16.92-4.32c9.56-.09,20.81.73,20.81.73s12.6,1.63,13.6,7.36L1310.73,919Z" transform="translate(1)"/><path class="cls-12" d="M1308.78,921.49s-1.08-4.46,3.18-4.88,34.61-1.11,44.26,1.79c9.39,2.82,4.94,7.05,4.94,7.05s-2.35-3.94-10.11-3.78-21-1.55-21-1.55-12.67-.36-13.37-.25C1312.75,920.49,1312.23,922.48,1308.78,921.49Z" transform="translate(1)"/><path class="cls-13" d="M1470,890.54c0-7.31-18-8.1-18,0" transform="translate(1)"/><path class="cls-13" d="M1469.53,894.55c-.27-7.31-18.31-7.37-18,.68" transform="translate(1)"/><path class="cls-13" d="M1471.87,907.47c-.27-7.31-18.31-7.37-18,.68" transform="translate(1)"/><path class="cls-13" d="M1472.22,902.81c-.27-7.31-18.31-7.37-18,.68" transform="translate(1)"/><path class="cls-13" d="M1348.08,896.49c-.27-7.31-18.31-7.37-18,.68" transform="translate(1)"/><path class="cls-13" d="M1346.91,878.48c.38-8.39-20.25-10.16-20.67-.93" transform="translate(1)"/><path class="cls-13" d="M1347.85,881.16c.32-7.15-17.25-8.66-17.61-.79" transform="translate(1)"/><path class="cls-13" d="M1348.25,890.11c.32-7.15-17.25-8.66-17.61-.79" transform="translate(1)"/><path class="cls-14" d="M1491.17,930.07s-6.51-5.75-27-4.62-19.29.45-23.94,4.71c0,0-4.75-7,23.41-7.73S1491.17,930.07,1491.17,930.07Z" transform="translate(1)"/><path class="cls-14" d="M1309.35,918a.19.19,0,0,0,.28.2c1.61-1,9.94-4.93,24.92-4.77,20.26.22,21.21,2.86,25.46,7.11a.19.19,0,0,0,.3,0c.57-1.18,2.34-7.92-22.76-9.66C1313.38,909.13,1309.77,916.25,1309.35,918Z" transform="translate(1)"/></g><g id="Layer_34" data-name="Layer 34"><path class="cls-15" d="M1445.69,517.36s-3.86,19.52-2.35,32,37.3,349.38,37.3,349.38S1451.87,914,1443,903.48L1412.28,708l-34.19-161s-11.14-13.2-14.46-1.06-.63,173.27-.63,173.27l2,171s-22.59,10.72-38.56-2.84L1317.58,711l-19.25-199.49S1437.73,526.68,1445.69,517.36Z" transform="translate(1)"/><path class="cls-16" d="M1367.73,516.83c35.67,2.56,71.47,3.91,75.41-.6,0,0-.18.92-.46,2.48C1429.41,520.68,1397.92,519.11,1367.73,516.83Z" transform="translate(1)"/><path class="cls-16" d="M1368,540.45c4.63-2.89,12,5.56,12,5.56l35.2,159.91L1446.84,900a10.57,10.57,0,0,0,5.84,3.26c-4.72.22-8.95-.69-11.54-3.68l-31.68-194.14-35.2-159.91A25.86,25.86,0,0,0,1368,540.45Z" transform="translate(1)"/><path class="cls-16" d="M1298.53,510.7l20,197.94,9.36,175.21a29.62,29.62,0,0,0,14.61,6.42c-6.62,0-14-1.6-20.31-6.84l-9.36-175.21-20-198.12Z" transform="translate(1)"/><path class="cls-16" d="M1475.59,854.38l5.54,39.72s-16,15.66-36.48,7.13l-1.39-9.92S1470.23,898.43,1475.59,854.38Z" transform="translate(1)"/><path class="cls-16" d="M1365.63,846.8l-2.14,42.12s-19.85,7.32-39.4-5.06l1.28-9.14S1352.21,889.13,1365.63,846.8Z" transform="translate(1)"/></g><g id="torso"><path class="cls-17" d="M1369.15,270.87s57,2.15,66.39,6.5-.24,220.58.11,224.46c1.71,18.74-145.35,18-148.32,5.14-1.69-7.3-16.68-222.21-7.54-227.19C1297.58,270.08,1369.15,270.87,1369.15,270.87Z" transform="translate(1)"/><path class="cls-17" d="M1277.93,278.84c17.78-9.69,89.35-8.9,89.35-8.9s48.48,1.83,63.4,5.53c-18.42-3.07-58.72-4.59-58.72-4.59s-71.57-.79-89.35,8.9c-9.14,5,5.85,219.9,7.54,227.19.44,1.91,4.08,3.55,9.94,4.9-8.57-1.5-14.07-3.46-14.61-5.83C1283.78,498.73,1268.79,283.82,1277.93,278.84Z" transform="translate(1)"/><path class="cls-17" d="M1280.41,280.11c-1.56,8.37-2.26,27-2.4,50.14C1277.44,303.07,1277.94,283,1280.41,280.11Z" transform="translate(1)"/><path class="cls-17" d="M1427.54,505.85c-.23-3.94,15.77-222.9,6.69-227.63-3.57-1.86-14.33-3.62-26.06-5.08,12.57,1.05,24.34,2.47,28.19,4.26,9.44,4.38-.24,222.35.11,226.26.45,5-9.38,8.57-24.17,11C1421.85,512.64,1427.77,509.77,1427.54,505.85Z" transform="translate(1)"/><path class="cls-17" d="M1369.16,518.08c-35.07.87-72.19-1.92-79.61-7.54C1303.93,515.33,1338.31,518.33,1369.16,518.08Z" transform="translate(1)"/><path class="cls-17" d="M1378.82,281.46s3.4-3.6,3.4-6.23-17.42-4.36-37-4.28c0,0,0,7.89,4.48,10.52S1354.16,268.31,1378.82,281.46Z" transform="translate(1)"/><path class="cls-17" d="M1306.44,457s27.09,51.39,57.93,54.19c0,0-44.85,18.69-68.2,11.21l-10.28-16.82-5.28-75.33Z" transform="translate(1)"/></g><g id="collar"><polygon class="cls-18" points="1362.97 293.06 1369.12 301.38 1367.07 306.92 1374.24 459.3 1359.89 485.62 1342.47 455.15 1355.8 301.38 1362.97 293.06"/><polygon class="cls-19" points="1369.38 460.71 1362.66 310.76 1364.58 305.31 1359.83 298.56 1362.66 295.11 1368.42 303.29 1366.5 308.74 1373.21 458.7 1359.79 484.6 1358.36 481.97 1369.38 460.71"/><polygon class="cls-20" points="1350.88 289.33 1351.82 289.33 1351.82 289.33 1350.88 289.33 1350.88 289.33"/><path class="cls-21" d="M1373.37,304.22s2.44-2.25,7.62-20.55a48.78,48.78,0,0,0,1.37-6.26c.57,2.67.43,6.77-1.37,13.16-5.18,18.3-7.62,20.55-7.62,20.55l-12.93-20.72s1.17-.85,2.88-2.29Z" transform="translate(1)"/><path class="cls-17" d="M1361.53,286.89a62.51,62.51,0,0,0,10.38-9.91c2.32-2.82,4.55-3.76,6.09-7.26,0,0,8-.22,3.07,17.33s-7.24,19.71-7.24,19.71Z" transform="translate(1)"/><path class="cls-17" d="M1362.9,286.83s-4.6-1.23-9.45-7.48c-2.29-2.95-2.88-5.82-4.31-9.41,0,0-11.27-.45-7,17.41s6.6,20.15,6.6,20.15Z" transform="translate(1)"/><path class="cls-21" d="M1342.15,286.41c4.28,17.86,6.6,20.15,6.6,20.15l12.18-17.78a10.7,10.7,0,0,0,2,.86l-14.15,20.66s-2.32-2.29-6.6-20.15a27.53,27.53,0,0,1-.88-9A35,35,0,0,0,1342.15,286.41Z" transform="translate(1)"/></g><g id="righ_wrist" data-name="righ wrist"><path class="cls-22" d="M1489,597s-8,6-8,10-2,18,3,16S1488,608,1489,597Z" transform="translate(1)"/><path class="cls-23" d="M1476.5,563.5s-10,28,2,49c0,0,2-16,3-20s13,4,3,22c-4.18,7.52-2,14,0,10s14-4,15-33c0,0-10-18-10-28S1483.5,552.5,1476.5,563.5Z" transform="translate(1)"/></g><g id="coat_left_sleeve" data-name="coat left sleeve"><path class="cls-24" d="M1506.7,432.47a50,50,0,0,1-1.27,6.66" transform="translate(1)"/><path class="cls-24" d="M1462,433c2.7-3.68-30.52-99.47-30.52-99.47S1412.65,305.43,1434,276c2.53-3.49,18.52,8.32,20,12-4-14,32.19,90.79,49,140" transform="translate(1)"/><path class="cls-24" d="M1503,428c-1,18-2.93,132.13-7.65,136.52-5.16,4.79-28.87,1.89-28.87-2,0-14-3.91-105.09-2.48-130.44" transform="translate(1)"/></g><g id="coat"><path class="cls-24" d="M1381.41,269.06s49.33-1.13,57.38,6.68C1445.69,282.42,1460,545,1460,545s-19.87-3.44-34-1-61-3-61-3l2.56-124.93,6.89-102.46Z" transform="translate(1)"/><path class="cls-24" d="M1346.74,270.13s-55.29,0-70.18,9.47c-5.54,3.52,2.13,248.47,2.13,248.47s3,9.2,14.85,11.66,66,7.27,66,7.27l-2.13-111.22-2.13-97Z" transform="translate(1)"/><path class="cls-25" d="M1390.7,325.23l-16.55-14.13,22.12-10.33-14-33.5,4.94-.14,14,33.64-22.12,10.33,16.55,14.13-27.8,151c-.15.33-.47-11.36-.52-24.29Z" transform="translate(1)"/><path class="cls-26" d="M1382.2,266.87l12.44,34-19.58,10.43,14.66,14.31L1365.23,478.4c-.23.58-1-36.28,0-51.69,2.07-34.43,1.83-91.49,4.34-110.27,2.78-20.81,9.72-44.2,6.65-51.48Z" transform="translate(1)"/><path class="cls-25" d="M1344.62,308.85l-17.52-9.76L1338.64,267l5.11.15c-.06.14-.09.31-.14.46l-11.32,31.49,16.53,9.21c.05.35.11.69.16,1l-17.26,10.07,23.72,121.17c0,12.71-.22,25.12-.35,24.76l-28.56-145.93Z" transform="translate(1)"/><path class="cls-26" d="M1343.53,267l-9.68,32.09,14.69,9.76-15.18,10.56,24,145.93c.17.55.57-29.05,0-43.56-1.27-32.41-2.18-87.12-4.65-108.16-2.3-19.55-4.06-42.13-4.06-48.67Z" transform="translate(1)"/><path class="cls-27" d="M1274.55,317s6.53,203.61,19.6,207.77c0,0-13.07-4.16-15.25-14.54S1274.55,317,1274.55,317Z" transform="translate(1)"/><path class="cls-27" d="M1439.79,323.23c-.32,1.86,1,202.45-12.37,197.73l14.84-3.92c0-10-2.47-193.81-2.47-193.81Z" transform="translate(1)"/></g><g id="left_wrist" data-name="left wrist"><path class="cls-28" d="M1325.92,372.79c-1.34,1.59-.72-.6,9.84-12.89,3.23-3.76-4.32-13,.49-14.12,7.46-1.76,14.87,15.71,7.3,18.47,0,0,15.93-10.53,15.9,19.66a9.91,9.91,0,0,1-8,9.85c-7.54,1.32-18.3,2.48-21-1C1326.14,387.25,1326.28,388,1325.92,372.79Z" transform="translate(1)"/><rect class="cls-29" x="1330.01" y="363.99" width="26.92" height="9.09" rx="4.55" ry="4.55" transform="translate(-42.71 240.24) rotate(-10.06)"/><rect class="cls-29" x="1332.78" y="372.51" width="26.92" height="9.09" rx="4.55" ry="4.55" transform="translate(-44.16 240.86) rotate(-10.06)"/><rect class="cls-29" x="1332.94" y="379.84" width="26.92" height="9.09" rx="4.55" ry="4.55" transform="matrix(0.98, -0.17, 0.17, 0.98, -45.43, 241)"/><rect class="cls-29" x="1333.48" y="387.59" width="25.73" height="9.09" rx="4.55" ry="4.55" transform="translate(-46.79 241.11) rotate(-10.06)"/></g><g id="shirt_left_sleeve" data-name="shirt left sleeve"><path class="cls-3" d="M1471.37,561.16l-.37,9.78h24V561S1479.74,562,1471.37,561.16Z" transform="translate(1)"/><path class="cls-3" d="M1326.24,365.77l-8.08,2s6.64,29.13,4.12,33.35h0l10.8-3Z" transform="translate(1)"/><path class="cls-24" d="M1204,410.46c-.75-4.65,72.26-79.2,72.26-79.2s29.56-17.81,23.74-54.86c-.69-4.39-20.34-.54-23.33,2.24,1.5-4.91-92.74,87.7-107.12,108.77,0,0-5.92,19.1,9.25,23.35,17.34,4.85,132-7,136.22-11.82,4.63-5.31,1-28.91-2.89-28.8-14,.42-87.86-3.34-113.15-1.13" transform="translate(1)"/></g><g id="neck"><path class="cls-30" d="M1377.86,260v10.89c0,4.36-12.17,17.42-15.25,17.42-2.18,0-10.89-8.71-13.07-17.42s0-10.89,0-10.89Z" transform="translate(1)"/></g><g id="face"><path class="cls-31" d="M1406.35,192s4.17-25-4.77-39.35c0,0-10.14-16.7-29.81-19.08s-38.16,5.37-46.51,21.47c0,0-6,13.71-4.17,26.83s1.79,11.93,1.79,11.93-1.49-1.49-2.39-1.19-4.17,1.19-4.17,7.16,2.39,16.7,6,20.87,6,4.17,6,4.17-1.46,12.17,11.93,26.83c12.52,13.71,16.1,14.31,22.66,14.31s19.08,0,34-25.64a59.8,59.8,0,0,0,4.17-16.7C1401.8,212.29,1406.35,192,1406.35,192Z" transform="translate(1)"/><path class="cls-32" d="M1406.35,192.64s4.77-.6,5.37,6-6,22.06-6,22.06-4.17,4.17-5.37,3.58S1401.58,198,1406.35,192.64Z" transform="translate(1)"/><path class="cls-33" d="M1405.46,198.9s.89-12.22,2.09-15.8,1.19-27.43-12.52-38.76c0,0-3.58-2.39-4.17-.6s-2.39,8.35,8.94,23.85c0,0,4.77,11.93,3.18,31.82,0,.33-4.37,29.59-5,33.17-.2,1.19-6,13.79-7.75,16.1-2.79,3.73-8.94,11.93-15.5,13.71-5.75,1.57-10.73,3-19.08,0-7.8-2.79-11.33-6.56-11.33-6.56s9.84,15.8,29.22,8.94c15.52-5.49,23.88-25.7,25.39-29.72a7,7,0,0,0,.36-1.33C1400,229.42,1404.1,204.61,1405.46,198.9Z" transform="translate(1)"/><path class="cls-33" d="M1327.05,217.09c.58-.14-3-17.89-6-19.08,0,0-3.58.6-1.79,7.16a60.4,60.4,0,0,0,3.58,10.14S1324.67,217.69,1327.05,217.09Z" transform="translate(1)"/><path class="cls-33" d="M1401.53,216.05c-.58-.12,2.27-18,5.2-19.3,0,0,3.6.45,2.07,7.08a60.4,60.4,0,0,1-3.17,10.27S1403.93,216.55,1401.53,216.05Z" transform="translate(1)"/><path class="cls-34" d="M1321.64,200.24s-2.95,2.24-.77,10.59c0,0-3.81-9.54-.54-12.52A1.65,1.65,0,0,1,1321.64,200.24Z" transform="translate(1)"/><path class="cls-34" d="M1406.08,199s2.95,2.24.77,10.59c0,0,3.81-9.54.54-12.52A1.65,1.65,0,0,0,1406.08,199Z" transform="translate(1)"/></g><g id="beard"><path class="cls-35" d="M1340.83,234.38c0,29.64,9.4,31.2,27.71,30.16s18.57-29.5,17.81-30.16C1362.6,213.57,1340.83,234.38,1340.83,234.38Zm2.47.52s17.32-13.52,39.59-.52c0,0,2,25-14.84,26,0,0-3-4.68-2.47-7.8h-4.45s0,7.8-2,7.8S1341.82,259.34,1343.3,234.9Z" transform="translate(1)"/></g><g id="eyebrows"><path class="cls-36" d="M1335.38,193.55" transform="translate(1)"/><path class="cls-37" d="M1393.92,191a17.78,17.78,0,0,0-9.78-5,4.78,4.78,0,0,0-1.19,0c-2.33.23-7.22,1.25-9.89,5.32,0,0-1.08-.16-.76-2.85.22-1.9,6.47-6.65,12.6-4.53C1393.31,186.83,1393.92,191,1393.92,191Z" transform="translate(1)"/><path class="cls-37" d="M1333.36,190.52a17.78,17.78,0,0,1,10-4.57,4.78,4.78,0,0,1,1.19,0c2.31.33,7.16,1.56,9.65,5.74,0,0,1.08-.11.88-2.81-.14-1.91-6.17-6.93-12.39-5.07C1334.15,186.39,1333.36,190.52,1333.36,190.52Z" transform="translate(1)"/></g><g id="hair"><path class="cls-38" d="M1402.57,210.85h-2s6-47.44-11.06-60.85c0,0-9.05,6.19-25.15,5.16s-25.15-7.22-25.15-7.22-20.12,5.16-14.08,61.88l-2,1-1-10.31a17.8,17.8,0,0,0-3-4.13c-2-2.06-3-34,0-41.25s23.11-23.72,46.27-23.72c12.07,0,25.15,3.09,39.33,17.54a12.76,12.76,0,0,1,3.54,7.44,137.81,137.81,0,0,1-1.63,42.06S1401.57,197.45,1402.57,210.85Z" transform="translate(1)"/></g><g id="mouth"><path class="cls-39" d="M1378.26,234.5s-16.48,5.43-30.9,0C1347.36,234.5,1361.78,252.62,1378.26,234.5Z" transform="translate(1)"/><path class="cls-40" d="M1372,236v3.59a16,16,0,0,1-17.35.56v-3.77A60.55,60.55,0,0,0,1372,236Z" transform="translate(1)"/></g><g id="nose"><path class="cls-41" d="M1363.7,222.3c1.67,0,6.25-3.65,7.37-4.56l.25.75s-5.72,5.72-7.62,5.72-7.62-5.72-7.62-5.72l.25-.75C1357.45,218.65,1362,222.3,1363.7,222.3Z" transform="translate(1)"/></g></svg>