<?xml version="1.0" encoding="utf-8"?>
<!-- Generator: Adobe Illustrator 21.1.0, SVG Export Plug-In . SVG Version: 6.00 Build 0)  -->
<svg version="1.1" xmlns="http://www.w3.org/2000/svg" xmlns:xlink="http://www.w3.org/1999/xlink" x="0px" y="0px"
	 viewBox="0 0 1919 1077" style="enable-background:new 0 0 1919 1077;" xml:space="preserve">
<style type="text/css">
	.st0{fill:#E6E6E6;}
	.st1{fill:#CFD6D6;}
	.st2{fill:#559593;}
	.st3{fill:#B3C0BF;}
	.st4{fill:#5D9693;}
	.st5{fill:#DDDDDD;}
	.st6{fill:#599895;}
	.st7{font-family:'SegoeUI-Bold';}
	.st8{font-size:73px;}
	.st9{letter-spacing:1;}
	.st10{letter-spacing:-1;}
	.st11{fill:none;stroke:#549D98;stroke-width:4;stroke-miterlimit:10;}
	.st12{fill:none;stroke:#599895;stroke-miterlimit:10;}
	.st13{fill:none;stroke:#599895;stroke-width:5;stroke-miterlimit:10;}
	.st14{fill:#E8AA73;}
	.st15{fill:#E1E1E1;}
	.st16{fill:#DB9E6B;}
	.st17{fill:#58ECCA;}
	.st18{font-size:40px;}
</style>
<g id="Layer_1">
	<title>05</title>
	<g id="bg">
		<rect class="st0" width="1919" height="1077"/>
	</g>
	<g id="grey_prlgrm">
		<polygon class="st1" points="320.2,213.9 105.7,213.9 26.5,277.5 1912,277.5 1912,212.6 		"/>
	</g>
	<g id="green_prlgrm_1">
		<polygon class="st2" points="357.6,191 271.5,257 1917,258 1916,189 		"/>
	</g>
	<g id="grey_green_prlgrm_2">
		<polygon class="st3" points="154.5,70 120.5,70 186.5,132 1901.5,124 1898.5,58 		"/>
	</g>
	<g id="green_prlgrm">
		<polygon class="st4" points="315.6,65 155.5,65 222.1,134 365.4,133 1910,127 1910,66 		"/>
	</g>
	<g id="bigger_prlgrm">
		<polygon class="st5" points="301.5,39.7 445,213 1919,213 1916,38.5 		"/>
	</g>
	<g id="thinner_prlgrm_1">
		<polygon class="st2" points="517.5,200.5 509.5,189.5 1915,189.5 1916.5,201.5 		"/>
	</g>
	<g id="TEXT">
		<text transform="matrix(1 0 0 1 734.08 170.54)" class="st6 st7 st8">WE </text>
		<text transform="matrix(1 0 0 1 866.4301 170.54)" class="st6 st7 st8 st9">E</text>
		<text transform="matrix(1 0 0 1 906.74 170.54)" class="st6 st7 st8">XPE</text>
		<text transform="matrix(1 0 0 1 1038.27 170.54)" class="st6 st7 st8 st10">R</text>
		<text transform="matrix(1 0 0 1 1084.47 170.54)" class="st6 st7 st8">TISE</text>
	</g>
	<g id="Layer_17">
		<line class="st11" x1="308" y1="513" x2="1049" y2="513"/>
		<line class="st11" x1="314" y1="723.5" x2="1055" y2="723.5"/>
		<line class="st11" x1="317" y1="937.5" x2="1058" y2="937.5"/>
		<circle class="st12" cx="316.5" cy="463.5" r="36"/>
		<circle class="st13" cx="316.5" cy="463.5" r="48"/>
		<circle class="st12" cx="316.5" cy="677.5" r="36"/>
		<circle class="st13" cx="316.5" cy="677.5" r="48"/>
		<circle class="st12" cx="316.5" cy="889.5" r="36"/>
		<circle class="st13" cx="316.5" cy="889.5" r="48"/>
	</g>
	<g id="Layer_1_1_">
		<path class="st14" d="M1647.6,615.2c-7.5-6.7-42.6-26.7-49.6-28.6l-62.1-17.2c-0.1,0-0.3-0.1-0.4-0.1l-25.3-2.3h-0.3
			c-26.1,0.2-151,30.8-185.4,43.7c-1,0.4-1.9,0.7-2.7,1c0,0-0.1,0-0.1,0c-3.4,1.3-5.5,2.1-6,2.3l0,0l-0.2,0.1l-61.1,47l-60.9,45.2
			c-1,0.7-1.3,2.1-0.7,3.2c2.2,4.2,7.3,9.6,16.3,5.2c0.1-0.1,0.2-0.1,0.3-0.2l0,0c1.2-0.8,2.8-0.4,3.5,0.8c0.6,1,0.5,2.3-0.3,3.1
			c-6.1,6-11.3,11.3-12,12.3l-0.5,0.5l-14.2,14.5c-1,1-1,2.6,0,3.6c2,2,5.7,4.9,10.3,4.9c1.4,0,2.5,1.1,2.6,2.5
			c0,0.6-0.2,1.1-0.6,1.6c-7.3,9.2-14,17.7-16.5,21c-0.7,0.9-0.7,2.1-0.1,3c1.8,2.5,5.3,7.2,10.5,9.9c0,0,0.1,0,0.1,0
			c0.7,0.4,1.5,0.7,2.2,1c5,1.9,11.4,1.6,18.9-3.7c0.1-0.1,0.2-0.2,0.3-0.3l59.3-58.3c0.2-0.2,0.4-0.3,0.6-0.4l41.4-22
			c0.2-0.1,0.4-0.2,0.6-0.2c5.1-1.3,75.4-19.2,82.4-21.1h0.1c13.3-4.1,23.3-0.7,34.8-0.6c15,0.1,28.3,2.8,36.9,6.6
			c4.6,2,7,6.4,9.3,8.9c13.6,15,61.4,28,72.4,30.8c1.3,0.3,2.6-0.4,3-1.6c7.3-20.8,13.9-32.1,27-45c1-1,2.6-1,3.6,0c0,0,0,0,0,0
			c10.5,11.2,50,82.6,59.9,95.6c0.8,1.1,2.4,1.3,3.5,0.5c0.1,0,0.1-0.1,0.2-0.2c11-10,68.8-63,79.3-72.7c0.9-0.9,1.1-2.3,0.3-3.3
			c-6.5-9.1-35.4-49.4-37.8-52.6C1690.6,653.6,1647.6,615.2,1647.6,615.2z"/>
		<path class="st14" d="M1329.8,621.1c0.3,0.6,0.1,1.5-0.6,2.8C1329.6,622.2,1329.8,621.1,1329.8,621.1z"/>
		<path class="st15" d="M1519.7,785.7c0,0-0.7-1-4,0.5s-16.8,27.3-16.8,27.3l5.1,5.7L1519.7,785.7z"/>
		<path class="st15" d="M1180.6,780.9c0,0,2.5,2.2,3.7,2.3s10.8-16.2,11.2-17.1c0.6-1.4,0-4.1-0.3-3.8L1180.6,780.9z"/>
		<path class="st15" d="M1191.8,707.7l1.9,0.7l11-7.3c0.7-0.8,0.8-1.8,0.4-2.8L1191.8,707.7z"/>
		<path class="st16" d="M1439.3,626.3l-70.4,51.4c0,0-7.8,9.2-10.6,20.2l-43.2,10.6l-41.8,22.2l-59.7,58.8c-7.6,5.4-14,5.7-19.1,3.8
			c-0.8-0.3-1.5-0.6-2.2-1c1.2,0.2,10.5,1.1,15.4-2.8c5.3-4.2,60.5-66.9,61.1-67.9s46.6-36.5,46.6-36.5l34.9-25.2L1439.3,626.3z"/>
		<path class="st16" d="M1363.8,623.2l-43,21.5l-10.2,14.5l-65.7,45.8l-21.9,22l9.4-11.5c0,0,23-21.1,32.4-27.9s52.4-43.6,53.3-45
			S1361.2,624.3,1363.8,623.2z"/>
		<path class="st16" d="M1681,642l51,61l-13,16c0,0-59-110-193-143.5c-16.1-4-34.4,2.4-41.4,2.8s-158,31.9-162.8,33.3
			c0.8-0.3,1.7-0.6,2.7-1c34.5-12.9,165.7-42.6,194.2-45.3l32.3,3.6c7.2,0.9,23.5,6.7,30,10c16.7,8.5,37.4,17.4,63.4,35
			C1652,619.1,1674.8,635.2,1681,642z"/>
		<path class="st15" d="M1184.3,747.5c0.9,0.1,1.8,0.4,2.6,0.7c0,0,8-8,8.8-9.9c0.4-0.9,0.6-2,0.6-3L1184.3,747.5z"/>
		<path class="st16" d="M1200.5,730.9c0,0,50.4-48.6,54.4-51.5s57.7-43.2,57.7-43.2l29.5-13.3c0,0-30,11.2-32.7,12.3
			s-54.4,41.4-58.6,45.3S1200.5,730.9,1200.5,730.9z"/>
		<path class="st14" d="M1557.9,658.5c15,11.3,2.3,85.8-20.7,107.6c-8.3,9.2-11.3,8.4-21.5,22.9c-4.5,5.2-15.2,26.9-15.2,26.9
			c-0.3-0.3-14.8-14-14.6-29.8c-0.1-9.8,7.5-21.1,13.2-33.6c2.3-4.9,4.2-10,5.6-15.2c0,0,0,0,0,0c0.7-2.7,2.8-5.4,3.1-8.2
			c0.5-3.2-3.7-8.4-5.6-14c-3.8-10.9-3.2-23.5-9.3-29.1c-2.2-12.3,27.4-30.3,39.8-32.2S1557.5,656,1557.9,658.5z"/>
	</g>
	<g id="Layer_2">
		<g id="finger">
			<path class="st14" d="M1466.3,657.3c2-14.4-8-27.7-22.4-29.7c-2.1-0.3-4.3-0.3-6.4-0.1l0,0c-45.2,16-71.4,66.9-71.4,66.9l-1.2,2
				l-0.1,0.3c-11.6,24.8-22.6,65.9-22.6,65.9s17.8,32.5,24.2,48.4c4.3,10.8,7.4,21.1,7.7,28.9l0.2-0.1l0.6-0.3l0.5-0.2
				c0.5-0.2,1.2-0.5,2-0.8l1.8-0.8c2-0.9,4.4-2,7.3-3.4c6.6-3.5,9.5-8.3,11.2-14l0,0c0.1-0.3,0.2-0.5,0.2-0.8c0.6-2.1,1-4.2,1.4-6.4
				c0.9-7.3-4.6-23-5.7-27.1c-2.3-5.7-6.4-20.2-15.5-30.8c7.3-10.5,18.7-47.4,25.7-52.7c13.6-15.6,44.2-13.1,44.2-13.1
				C1463.1,680.5,1465,666.3,1466.3,657.3z"/>
			<path class="st16" d="M1397.3,820.5c-1.7,5.7-4.6,10.5-11.2,14c-7.7,3.7-12.4,5.5-12.4,5.5c-0.7-19.4-12.3-42.2-23.8-62.6
				c6.2,10.5,12.9,23.6,16.3,25.7c5,3,11.2,26.5,14.3,26.9S1395.4,825.8,1397.3,820.5z"/>
			<path class="st15" d="M1379,837.9l-1.8,0.8l-2,0.8l-0.5,0.2l-0.6,0.3l-0.2,0.1c0,0-3.4-18.1-7.7-28.9c1.7,0.2,3.3,1.2,4.1,2.8
				C1371.6,816.3,1379,837.9,1379,837.9z"/>
		</g>
	</g>
	<g id="head">
		<path class="st17" d="M1505.5,831.5c0.8-0.6-20-28-19-41c0,0,15-15,18-26s23-81-47-85c0,0-63-8-74,47c0,0,0,5,6,9c0,0,2,6-13,20
			c0,0-5,7-1,9c3.2,1.4,6.6,2.4,10,3c0,0-5,9,1,15c0,0-6,1-4,3s7,5,7,9s-4,14,0,17s13,0,13,0s2,19-1,23S1497.5,837.5,1505.5,831.5z"
			/>
		<path class="st11" d="M1433.4,835.2"/>
		<path class="st11" d="M1409.1,834.8"/>
		<path class="st11" d="M1505,830.4c-3-5.3-19.4-28.5-18.5-40.2c0,0,15-15.1,18-26.2s23-81.6-47-85.6c0,0-63-8.1-74,47.3
			c0,0,0,5,6,9.1c0,0,2,6-13,20.1c0,0-5,7-1,9.1c3.2,1.4,6.6,2.4,10,3c0,0-5,9.1,1,15.1c0,0-6,1-4,3s7,5,7,9.1s-4,14.1,0,17.1
			s13,0,13,0s2,19.1-1,23.2"/>
		<path class="st11" d="M1505.5,831.5c0.1-0.1-0.1-0.5-0.5-1.1"/>
	</g>
</g>
<g id="Layer_4">
	<text transform="matrix(1 0 0 1 420 911)" class="st7 st18">Add your expertise 3 here</text>
</g>
<g id="Layer_2_1_">
	<text transform="matrix(1 0 0 1 432 698.26)" class="st7 st18">Add your expertise 2 here</text>
</g>
<g id="Layer_3">
	<text transform="matrix(1 0 0 1 432 489)" class="st7 st18">Add your expertise 1 here</text>
</g>
</svg>
