<?xml version="1.0" encoding="utf-8"?>
<!-- Generator: Adobe Illustrator 21.1.0, SVG Export Plug-In . SVG Version: 6.00 Build 0)  -->
<svg version="1.1" id="Layer_1" xmlns="http://www.w3.org/2000/svg" xmlns:xlink="http://www.w3.org/1999/xlink" x="0px" y="0px"
	 viewBox="0 0 1919 1077" style="enable-background:new 0 0 1919 1077;" xml:space="preserve">
<style type="text/css">
	.st0{fill:#E6E6E6;}
	.st1{fill:#CFD6D6;}
	.st2{fill:#559593;}
	.st3{fill:#B3C0BF;}
	.st4{fill:#5D9693;}
	.st5{fill:#DDDDDD;}
	.st6{fill:#599895;}
	.st7{font-family:'SegoeUI-Bold';}
	.st8{font-size:73px;}
	.st9{letter-spacing:1;}
	.st10{letter-spacing:-1;}
	.st11{clip-path:url(#SVGID_2_);}
	.st12{fill:none;stroke:#559593;stroke-miterlimit:10;}
	.st13{clip-path:url(#SVGID_4_);}
	.st14{clip-path:url(#SVGID_6_);}
	.st15{clip-path:url(#SVGID_8_);}
	.st16{clip-path:url(#SVGID_10_);}
	.st17{fill:#639B95;}
	.st18{font-size:35px;}
	.st19{font-size:30px;}
</style>
<title>07</title>
<g id="bg">
	<rect class="st0" width="1919" height="1077"/>
</g>
<g id="grey_prlgrm">
	<polygon class="st1" points="320.2,213.9 105.7,213.9 26.5,277.5 1912,277.5 1912,212.6 	"/>
</g>
<g id="green_prlgrm_1">
	<polygon class="st2" points="357.6,191 271.5,257 1917,258 1916,189 	"/>
</g>
<g id="grey_green_prlgrm_2">
	<polygon class="st3" points="154.5,70 120.5,70 186.5,132 1901.5,124 1898.5,58 	"/>
</g>
<g id="green_prlgrm">
	<polygon class="st4" points="315.6,65 155.5,65 222.1,134 365.4,133 1910,127 1910,66 	"/>
</g>
<g id="bigger_prlgrm">
	<polygon class="st5" points="301.5,39.7 445,213 1919,213 1916,38.5 	"/>
</g>
<g id="thinner_prlgrm_1">
	<polygon class="st2" points="517.5,200.5 509.5,189.5 1915,189.5 1916.5,201.5 	"/>
</g>
<g id="TEXT">
	<text transform="matrix(1 0 0 1 734.08 170.54)" class="st6 st7 st8">WE </text>
	<text transform="matrix(1 0 0 1 866.4301 170.54)" class="st6 st7 st8 st9">E</text>
	<text transform="matrix(1 0 0 1 906.74 170.54)" class="st6 st7 st8">XPE</text>
	<text transform="matrix(1 0 0 1 1038.27 170.54)" class="st6 st7 st8 st10">R</text>
	<text transform="matrix(1 0 0 1 1084.47 170.54)" class="st6 st7 st8">TISE</text>
</g>
<g id="member_5">
	<g>
		<defs>
			<circle id="SVGID_1_" cx="1209" cy="841" r="112"/>
		</defs>
		<clipPath id="SVGID_2_">
			<use xlink:href="#SVGID_1_"  style="overflow:visible;"/>
		</clipPath>
		<g class="st11">
			
				<image style="overflow:visible;enable-background:new    ;" width="350" height="365" id='cp_core_team_member5' xlink:href="core team 5.jpg"  transform="matrix(0.75 0 0 0.75 1079 727)">
			</image>
		</g>
	</g>
	<circle class="st12" cx="1209" cy="841" r="112" id='cr2' />
</g>
<g id="member_4">
	<g>
		<defs>
			<circle id="SVGID_3_" cx="709" cy="842" r="112"/>
		</defs>
		<clipPath id="SVGID_4_">
			<use xlink:href="#SVGID_3_"  style="overflow:visible;"/>
		</clipPath>
		<g class="st13">
			
				<image style="overflow:visible;enable-background:new    ;" width="698" height="752" id='cp_core_team_member4' xlink:href="core team 4.jpg"  transform="matrix(0.37 0 0 0.37 572 727)">
			</image>
		</g>
	</g>
	<circle class="st12" cx="709" cy="842" r="112" id='cr1' />
</g>
<g id="member_3">
	<g>
		<defs>
			<ellipse id="SVGID_5_" cx="1456.5" cy="468.5" rx="110.5" ry="111.5"/>
		</defs>
		<clipPath id="SVGID_6_">
			<use xlink:href="#SVGID_5_"  style="overflow:visible;"/>
		</clipPath>
		<g class="st14">
			
				<image style="overflow:visible;enable-background:new    ;" width="1241" height="1271"  id='cp_core_team_member3' xlink:href="core team 3.jpg"  transform="matrix(0.21 0 0 0.21 1320.35 352.02)">
			</image>
		</g>
	</g>
	<ellipse class="st12" cx="1456.5" cy="468.5" rx="110.5" ry="111.5"/>
</g>
<g id="member_2">
	<g>
		<defs>
			<circle id="SVGID_7_" cx="956" cy="471" r="112"/>
		</defs>
		<clipPath id="SVGID_8_">
			<use xlink:href="#SVGID_7_"  style="overflow:visible;"/>
		</clipPath>
		<g class="st15">
			
				<image style="overflow:visible;enable-background:new    ;" width="899" height="899" id='cp_core_team_member2' xlink:href="core team 2.jpg"  transform="matrix(0.32 0 0 0.28 819 354)">
			</image>
		</g>
	</g>
	<circle class="st12" cx="956" cy="471" r="112"/>
</g>
<g id="member_1">
	<g>
		<defs>
			<circle id="SVGID_9_" cx="457" cy="470" r="112"/>
		</defs>
		<clipPath id="SVGID_10_">
			<use xlink:href="#SVGID_9_"  style="overflow:visible;"/>
		</clipPath>
		<g class="st16">
			
				<image style="overflow:visible;enable-background:new    ;" width="1000" height="1000" id='cp_core_team_member1' xlink:href="core team 1.jpg"  transform="matrix(0.26 0 0 0.26 344 335)">
			</image>
		</g>
	</g>
	<circle class="st12" cx="457" cy="470" r="112"/>
</g>
<g id="name_5">
	<text transform="matrix(1 0 0 1 1143 994.95)" class="st17 st7 st18">Name_5</text>
</g>
<g id="name_4">
	<text transform="matrix(1 0 0 1 642 993.95)" class="st17 st7 st18">Name_4</text>
</g>
<g id="name_3">
	<text transform="matrix(1 0 0 1 1392 623.95)" class="st17 st7 st18">Name_3</text>
</g>
<g id="name_2">
	<text transform="matrix(1 0 0 1 892 623.95)" class="st17 st7 st18">Name_2</text>
</g>
<g id="name_1">
	<text transform="matrix(1 0 0 1 391 624.95)" class="st17 st7 st18">Name_1</text>
</g>
<g id="designation_5">
	<text transform="matrix(1 0 0 1 1134.74 1038.79)" class="st7 st19">Designation</text>
</g>
<g id="designation_4">
	<text transform="matrix(1 0 0 1 634.74 1037.79)" class="st7 st19">Designation</text>
</g>
<g id="designation_3">
	<text transform="matrix(1 0 0 1 1381.74 666.79)" class="st7 st19">Designation</text>
</g>
<g id="designation_2">
	<text transform="matrix(1 0 0 1 880.74 667.79)" class="st7 st19">Designation</text>
</g>
<g id="designation_1">
	<text transform="matrix(1 0 0 1 379.74 655.79)" class="st7 st19">Designation</text>
</g>
</svg>
