<?xml version="1.0" encoding="utf-8"?>
<!-- Generator: Adobe Illustrator 22.0.1, SVG Export Plug-In . SVG Version: 6.00 Build 0)  -->
<svg version="1.1" id="Layer_1" xmlns="http://www.w3.org/2000/svg" xmlns:xlink="http://www.w3.org/1999/xlink" x="0px" y="0px"
	 viewBox="0 0 1919 1077" style="enable-background:new 0 0 1919 1077;" xml:space="preserve">
<style type="text/css">
	.st0{fill:#E5B27F;}
	.st1{fill:#D6975F;}
	.st2{fill:#E6E6E6;}
	.st3{fill:#CCCCCC;}
	.st4{fill:#020202;}
	.st5{fill:#D18750;}
	.st6{fill:#333333;}
	.st7{fill:#CFD6D6;}
	.st8{fill:#559593;}
	.st9{fill:#B3C0BF;}
	.st10{fill:#5D9693;}
	.st11{fill:#DDDDDD;}
	.st12{fill:#599895;}
	.st13{font-family:'SegoeUI-Bold';}
	.st14{font-size:73px;}
	.st15{letter-spacing:-5;}
	.st16{letter-spacing:-1;}
	.st17{font-size:67px;}
	.st18{fill:#5A9B95;}
</style>
<title>08</title>
<g id="Layer_2_1_">
	<path class="st0" d="M1044.3,971.8c-1.1,5.7-7.4,8.8-9.8,8.8s-10.7-5.5-12-7.7s-8.5-5.3-9-5.5c0,0,0.2,0.3,0.5,0.8
		c1.7,2.8,7.1,12,6.9,14.5c-0.3,2.7-0.9,5.3-1.9,7.8l0,0c-1.7,4.1-4.9,8.2-10.9,8.3c-9.7,0.3-11.7-3.8-12-4.5
		c0.1,0.3,0.3,1.4,0.6,2.6l0,0c0.3,1.9,0.6,4.2,0,4.9c-0.5,1-1,1.9-1.5,2.9l0,0c-1.5,3-4,7.1-8.9,7.1c-7.1,0-16.1-8.5-16.1-8.5
		s0.1,0.3,0.1,0.8l0,0l0.1,0.5c0.3,2.4,0.3,7.1-2.9,8.9c-4.4,2.5-10.4,5.5-23.5-5.7s-26-16.7-28.2-17.2s-26.3-13.1-31.2-16.7
		s-28.2-14.2-28.2-14.2s14.5-34.2,11.8-80.4c0,0,11.5,5.3,16.9,4.7l0.6-0.1c18.9-3,34.5-14.9,37.7-14.3l71.7,3.4l-31.6,21.5l66.2,46
		c3.5,3.1,6.7,6.5,9.6,10.2c0.7,0.9,1.3,2,1.9,3C1043.8,959.2,1045.4,966.1,1044.3,971.8z"/>
	<path class="st1" d="M970.1,1005l-0.1-0.5c0,0.5-0.3,5.2-2.7,6.9c-2.6,1.8-8.1,4.9-14.8,1.2s-19.4-16.8-20.2-17.2
		s-49.4-27.4-49.4-41.4c0-15.5,6.6-40.8,10.4-42.7c12.3-6.7,15.4,4.8,38.5-6.8c-22.7-3-11.6-20.7-23.5-22c-7.9-0.5-15.8,0.1-23.5,2
		c-5.5,0.6-16.9-4.7-16.9-4.7c2.7,46.2-11.8,80.4-11.8,80.4s23.2,10.7,28.2,14.2s29,16.1,31.2,16.7s15,6,28.2,17.2
		s19.2,8.2,23.5,5.7C970.4,1012.1,970.4,1007.4,970.1,1005z"/>
	<path class="st2" d="M822,867.1l45.3,10.9c0,0,9.7,68.4-29.2,107.2c0,0-1.6,1.9-6.6,2.7s-35.8-2-35.8-2
		C814.6,943.6,822.8,902.9,822,867.1z"/>
	<path class="st3" d="M821.7,864.9c0.9,0.3,0.8,66-10.1,94.6s-10.3,27-10.3,27l-16.5-1.4L821.7,864.9z"/>
	<path class="st4" d="M821.7,864.9l-90-21.9l1.1,147.4l54.7,14.2C808.1,958.8,824.4,912.7,821.7,864.9z"/>
	<path class="st1" d="M928,1045c0,0-0.7,0.3-2,0.8c-1.3-0.5-0.5-1.6-1.6-2.3C925.6,1044.1,926.8,1044.6,928,1045z"/>
	<path class="st5" d="M1013.1,967.5l3.6,5.5l4.1-1.7C1018.4,969.7,1015.8,968.4,1013.1,967.5z"/>
	<path class="st0" d="M1043.8,961.4c0,0-20.5,9-28,11.9s-43.4,25-53.5,23.8s-56.6-33.9-46.8-52.7s52.8-39.6,71.3-31.5
		S1045.7,955.1,1043.8,961.4z"/>
	<path class="st1" d="M1044.3,971.8c-1.1,5.7-7.4,8.8-9.8,8.8s-10.7-5.5-12-7.7s-8.5-5.3-9-5.5c0,0,0.2,0.3,0.5,0.8
		c-10.4-8.9-21.5-18.3-27.1-22.7c8.2,5.7,28.4,19.8,29.7,20.4c1.6,0.8,7.6,3.9,8,5.1s6.8,6,8.2,6.6s6.6,0.2,8.6-6
		c1.7-5-0.6-16.3-2.2-20.9c0.7,0.9,1.3,2,1.9,3C1043.8,959.2,1045.4,966.1,1044.3,971.8z"/>
	<path class="st1" d="M1018.9,990.5c-1.7,4.1-4.9,8.2-10.9,8.3c-9.7,0.3-11.7-3.8-12-4.5c0.1,0.3,0.3,1.4,0.6,2.6
		c-1-1.5-2-3.3-2-3.3s-19.2-22-22.4-25.8c1.3,1.2,22,20.9,22.7,21.7s4.2,6.8,8.2,7.5S1014.6,997.6,1018.9,990.5z"/>
	<path class="st1" d="M995,1004.9c-1.5,3-4,7.1-8.9,7.1c-7.1,0-16.1-8.5-16.1-8.5l-15.9-19.7c6.7,8.1,22.2,23.9,27.5,24.8
		C986.8,1010.2,990.2,1009.8,995,1004.9z"/>
	<path class="st0" d="M1049.2,960.3c0,0.1-0.1,0.2-0.1,0.3h-5.5l-0.2-1c0,0,0-0.1,0-0.2l0,0c0,0,0,0,0-0.1c-0.1-0.3-0.2-0.7-0.3-1.2
		l0,0c0-0.1-0.1-0.2-0.1-0.3c-0.1-0.1-0.1-0.3-0.2-0.4l0,0c-0.3-0.5-0.6-1-1-1.5c-0.2-0.3-0.4-0.6-0.6-0.8l-0.7-0.8
		c-0.1-0.1-0.2-0.2-0.3-0.4l0,0c-0.2-0.2-0.4-0.5-0.6-0.7l-0.6-0.8l-0.8-0.9l-0.1-0.1c-0.3-0.3-0.5-0.6-0.8-0.9l-1.2-1.3
		c-0.2-0.2-0.4-0.5-0.7-0.7l-0.7-0.7c-2.4-2.6-4.3-4.7-4.4-5.1c-0.1-0.1-0.2-0.2-0.4-0.3l-0.5-0.4c-0.4-0.3-1-0.8-1.7-1.3l-0.6-0.4
		l-2.7-2l-1.2-0.9c-0.1-0.1-0.2-0.2-0.3-0.2h-0.1l-3.5-2.5c-0.6-0.4-1.2-0.9-1.9-1.3l-18.8-13.2c-0.8-0.6-1.6-1.1-2.4-1.7l-7.1-5
		l0,0c-4.1-2.9-7.6-5.4-10-7.1c-0.4-0.3-0.8-0.6-1.1-0.8s-0.5-0.3-0.7-0.5l-0.4-0.3c-0.3-0.2-0.5-0.4-0.6-0.5
		c-4-3.3-12.6-6.6-16.1-8.2s-19.4,0-19.4,0c-8.2,9-14.2,11.8-17,12.3c-3.3,0.5-6.7,0.6-10.1,0.5c-1.2,0-2.4-0.2-3.6-0.5
		c-1.2-0.4-2.3-2-3.2-3.6c-0.1-0.1-0.1-0.2-0.2-0.4c-0.4-0.7-0.8-1.4-1.1-2.2c-0.3-0.6,1.5-0.4,1.5-0.4c0.5-0.3-1-1.1-0.5-1.5l0,0
		c1.9-1.3,3.6-2.8,5.1-4.4c0.2-0.3,0.4-0.5,0.7-0.7l0.4-0.5c1-1.2,2-2.5,2.9-3.8c1.2-1.8,2.3-3.7,3.3-5.7c0-0.1,0.1-0.2,0.1-0.2
		c3.4-6.8,5.3-13,8.2-14.9c0.6-0.5,7.3-2,15.8-3.3l0,0c8.8-1.5,17.7-2.5,26.6-2.9c6.1-0.2,10.8,0.3,12,1.8c0.3,0.4,0.7,0.7,1.2,1
		c0.1,0.1,0.3,0.2,0.4,0.3c5.8,4.1,23,10.4,33.2,13.9l1.4,0.5c0.5,0.2,1,0.3,1.4,0.5l1,0.4l1.5,0.5l1.2,0.4l1.1,0.3l0.3,0.1l0,0l0,0
		c0.1,0.1,0.1,0.2,0.1,0.3l0,0c0,0,0,0.1,0.1,0.2c0.5,1,1.1,2,1.6,3.1l0.3,0.5l0,0c0.3,0.6,0.6,1.3,0.9,1.9c0.9,1.9,1.8,3.9,2.7,5.9
		c0.4,0.9,0.8,1.8,1.2,2.7c1.3,3.2,2.6,6.5,3.8,9.8c0.2,0.5,0.4,0.9,0.5,1.4c0.9,2.5,1.8,5,2.6,7.6c0.2,0.7,0.4,1.3,0.6,1.9
		c1,3,1.9,5.9,2.7,8.7c0.4,1.3,0.8,2.7,1.2,4c0.3,0.9,0.5,1.7,0.7,2.6s0.5,1.7,0.7,2.5s0.4,1.6,0.7,2.5c0.3,1,0.5,2,0.8,3
		c0.5,2.1,1,4,1.4,5.8c0.3,1.3,0.6,2.6,0.8,3.7c0.1,0.3,0.1,0.6,0.2,0.8c0.1,0.5,0.2,1.1,0.3,1.6l0,0c0.2,1,0.4,1.9,0.5,2.7
		c0.1,0.4,0.1,0.8,0.2,1.1C1049.2,958.6,1049.3,959.5,1049.2,960.3z"/>
	<path class="st1" d="M1049.2,960.3c0,0.1-0.1,0.2-0.1,0.3h-5.5l-0.2-1c0-0.1,0-0.1,0-0.2s0,0,0-0.1c-0.1-0.3-0.2-0.7-0.3-1.2l0,0
		c0-0.1-0.1-0.2-0.1-0.3c-0.1-0.1-0.1-0.3-0.2-0.4l0,0c-0.3-0.5-0.6-1-1-1.5c-0.2-0.3-0.4-0.6-0.6-0.8l-0.7-0.8
		c-0.1-0.1-0.2-0.2-0.3-0.4l0,0c-0.2-0.2-0.4-0.5-0.6-0.7l-0.6-0.8l-0.8-0.9l-0.1-0.1c-0.3-0.3-0.5-0.6-0.8-0.9l-1.2-1.3
		c-0.2-0.2-0.4-0.5-0.7-0.7s-0.4-0.5-0.7-0.7c-2.4-2.6-4.3-4.7-4.4-5.1c-0.1-0.1-0.2-0.2-0.4-0.3l-0.5-0.4c-0.4-0.3-1-0.8-1.7-1.3
		c-0.2-0.2-0.4-0.3-0.6-0.4l-2.7-2l-1.2-0.9c-0.1-0.1-0.2-0.2-0.3-0.2h-0.1l-3.5-2.5c-0.6-0.4-1.2-0.9-1.9-1.3l-18.8-13.2
		c-0.8-0.6-1.6-1.1-2.4-1.7l-7.1-5l0,0c-4.1-2.9-7.6-5.4-10-7.1l-1.1-0.8c-0.3-0.2-0.5-0.3-0.7-0.5l-0.4-0.3
		c-0.3-0.2-0.5-0.4-0.6-0.5c-4-3.3-12.6-6.6-16.1-8.2s-19.4,0-19.4,0c-8.2,9-14.2,11.8-17,12.3c-3.3,0.5-6.7,0.6-10.1,0.5
		c-1.2,0-2.4-0.2-3.6-0.5c-1.2-0.4-2.3-2-3.2-3.6c2.9,1.7,6.2,2.4,9.5,2.1c8.9-0.7,17.1-4.9,22.8-11.7c0,0,15.2-2.5,21.5,0
		s14.3,6.3,16.5,8s52.2,36.7,53.5,37.7s15,10.3,13.8,3.7c-0.9-4.7-10.3-33.4-15.9-49.7c-3.5-7.5-28.7-13.2-34.1-15.3
		s-12.6-8.8-14.4-11.3s-10.3-4.5-10.3-4.5c6.1-0.2,10.8,0.3,12,1.8c0.3,0.4,0.7,0.7,1.2,1c0.1,0.1,0.3,0.2,0.4,0.3
		c5.8,4.1,23,10.4,33.2,13.9c0.5,0.2,0.9,0.3,1.4,0.5s1,0.3,1.4,0.5l1,0.4l1.5,0.5l1.2,0.4l1.1,0.3l0.3,0.1l0,0l0,0
		c0.1,0.1,0.1,0.2,0.1,0.3l0,0c0,0,0,0.1,0.1,0.2c0.5,1,1.1,2,1.6,3.1l0.3,0.5l0,0c0.3,0.6,0.6,1.3,0.9,1.9c0.9,1.9,1.8,3.9,2.7,5.9
		c0.4,0.9,0.8,1.8,1.2,2.7c1.3,3.2,2.6,6.5,3.8,9.8c0.2,0.5,0.4,0.9,0.5,1.4c0.9,2.5,1.8,5,2.6,7.6l0.6,1.9c1,3,1.9,5.9,2.7,8.7
		c0.4,1.3,0.8,2.7,1.2,4c0.3,0.9,0.5,1.7,0.7,2.6s0.5,1.7,0.7,2.5s0.4,1.6,0.7,2.5c0.3,1,0.5,2,0.8,3c0.5,2.1,1,4,1.4,5.8
		c0.3,1.3,0.6,2.6,0.8,3.7c0.1,0.3,0.1,0.6,0.2,0.8c0.1,0.5,0.2,1.1,0.3,1.6l0,0c0.2,1,0.3,1.9,0.5,2.7c0.1,0.4,0.1,0.8,0.2,1.1
		C1049.3,958.6,1049.3,959.4,1049.2,960.3z"/>
	<path class="st1" d="M1026.3,881.8l-0.2-0.3l0,0C1026.2,881.6,1026.2,881.7,1026.3,881.8z"/>
	<path class="st1" d="M983.3,942.4c1.2,0.7,2.3,1.4,3.3,2.3L983.3,942.4z"/>
	<path class="st1" d="M1038.4,948.3c-0.2-0.3-0.3-0.4-0.2-0.3L1038.4,948.3z"/>
	<path class="st4" d="M1067.6,960.6c0,0,10.8,35.9,26.6,51.4c10.1-9.3-8.8-45.6-23.1-75.5L1067.6,960.6z"/>
	<path class="st6" d="M1037.6,879.1c0,0,55.4-22.2,63.4-23.4s37-18.4,37-18.4v153.2l-43.8,21.6c8.3-6-6-41.3-22.4-74
		C1057.3,908.9,1041,881.8,1037.6,879.1z"/>
	<path class="st2" d="M1081.9,958.9l-9.6,0.9c-5.6,1.2-23,2.7-23,2.7c-5.4-34.3-15.8-62.6-25.7-80.4l13.3-1.4l0.7-0.1l1.1-0.1
		c0,0,22.3,29.2,31.5,54.2L1081.9,958.9C1081.9,958.9,1081.9,958.9,1081.9,958.9z"/>
	<path class="st3" d="M1081.9,958.9l-9.6,0.9c-1.1-9.2-20.7-53.3-23-58.2s-11.7-21.1-11.7-21.1l1.1-0.1c0,0,22.3,29.2,31.5,54.2
		L1081.9,958.9C1081.9,958.9,1081.9,958.9,1081.9,958.9z"/>
	<path class="st2" d="M915.8,898.1c-0.1,0.4-2.6,3-5.1,4.7c-1.5,1.1-3,1.9-3.8,1.6c-0.2-0.1-0.3-0.1-0.4-0.2
		c-0.7-0.5-1.1-1.4-0.8-2.3c0.1-0.7,0.4-1.3,0.9-1.8l0.1-0.1l0,0c2.7-2.3,2.8-2.9,4.8-4.4h0.3c0.3-0.1,0.6-0.1,0.9-0.1
		C914.5,896.6,916,897.5,915.8,898.1z"/>
	<path class="st1" d="M943.7,866.3c-3.7,1.3-8.2,2.6-9.4,3c-2,0.7-8.3,4.3-9.8,6.8c-0.6,1.1-3,4.4-5.2,8.1
		c3.4-6.8,5.6-13.3,8.5-14.7C928.5,869.1,935.2,867.7,943.7,866.3z"/>
	<path class="st0" d="M897.6,982.1c0,0-0.6,0.3-1.5,0.7l0,0c-2.4,1-7.1,2.8-10.4,3.1c-3.6,0.3-9.1-1.1-12-4.4
		c-0.9-1-1.5-2.2-1.8-3.5c-0.4-2.1-0.5-4.2-0.5-6.3c0-0.6,0.1-1.3,0.1-1.9c0.4-3.8,1.5-7.1,3.8-7.5c3.8-0.7,11.3,1,12.6,5.8
		s4.5,11.3,7.1,11.8S897.6,982.1,897.6,982.1z"/>
	<path class="st5" d="M897.6,982.1c0,0-0.6,0.3-1.5,0.7l0,0c-0.4-0.1-6.8-1.4-8-4.3s-3-9.5-4.8-9.7s-7.4,5.2-11.8,1.1
		c0.4-3.8,1.5-7.1,3.8-7.5c3.8-0.7,11.3,1,12.6,5.8s4.5,11.3,7.1,11.8S897.6,982.1,897.6,982.1z"/>
	<path class="st2" d="M885.5,976.8c-2.3,1.2-7.4,4.8-9.5,3.9c-0.8-0.3-1.6-0.7-2.3-1.1c-0.9-1-1.5-2.2-1.8-3.5
		c-0.4-2.1-0.5-4.2-0.5-6.3l0.1-0.2c0,0,8.1,2.2,13.9,0C885.5,969.7,887.7,975.6,885.5,976.8z"/>
	<path class="st0" d="M920.2,990.6c-0.9,1.7-0.3,3.8-3,5.7s-10.5,4.7-14.2,2.5c-1-0.7-1.8-1.5-2.3-2.6l0,0
		c-1.8-3.3-2.2-8.2-1.8-11.5c0.4-2.9,1.2-5.7,2.3-8.5C910.4,965.1,922.6,979,920.2,990.6z"/>
	<path class="st5" d="M920.2,990.6c-0.9,1.7-0.3,3.8-3,5.7c3.4-4.7-0.3-10.2-1-12.2s0-2.6,0-3.6s-3.2-3.6-6.6-4.8s-6.1,2.2-7.5,1.9
		s-2,8.1-2.5,10.7s0.9,7.3,1,7.8c-1.8-3.3-2.2-8.2-1.8-11.5c0.4-2.9,1.2-5.7,2.3-8.5C910.4,965.1,922.6,979,920.2,990.6z"/>
	<path class="st2" d="M902.2,977.6c0,0,2.7,4.8,14,3.3c0,0,0.2,5.1-0.9,7c-1.3,3-6.5,3.7-8.8,2.7s-4.4-2.5-4.9-6.3
		C901.6,982.1,901.8,979.8,902.2,977.6z"/>
	<path class="st0" d="M944.6,1008.2c0,0-9,3-13.8,2.8c-3.4,0-6.6-2-7.9-5.2c-0.4-2.9-0.4-5.8,0-8.7l0,0c0.1-1.1,0.4-2.2,1-3.1
		c1.6-1.8,9.2-8.2,17,3.3c0.1,3.2-0.1,6.8,1.3,8.5l0.9,0.7L944.6,1008.2z"/>
	<path class="st5" d="M942.3,1005.8c-1.5,1.7-15.4-18.5-19.3-8.7l0,0l0,0c0.1-1.1,0.4-2.2,1-3.1c1.6-1.8,8.1-8.4,15.9,3
		C941,998.9,941.2,1005.2,942.3,1005.8z"/>
	<path class="st2" d="M923.7,996.5c0,0,2,3.4,7.7,3.1c0.5,1.1,0.8,2.3,1.1,3.4c0.1,0.8-3.3,4.6-6,3.9s-4.1-5.3-3.9-6.8
		C922.9,998.9,923.2,997.7,923.7,996.5z"/>
</g>
<g id="bg">
	<rect class="st2" width="1919" height="1077"/>
</g>
<g id="grey_prlgrm">
	<polygon class="st7" points="320.2,213.9 105.7,213.9 26.5,277.5 1912,277.5 1912,212.6 	"/>
</g>
<g id="green_prlgrm_1">
	<polygon class="st8" points="357.6,191 271.5,257 1917,258 1916,189 	"/>
</g>
<g id="grey_green_prlgrm_2">
	<polygon class="st9" points="154.5,70 120.5,70 186.5,132 1901.5,124 1898.5,58 	"/>
</g>
<g id="green_prlgrm">
	<polygon class="st10" points="315.6,65 155.5,65 222.1,134 365.4,133 1910,127 1910,66 	"/>
</g>
<g id="bigger_prlgrm">
	<polygon class="st11" points="301.5,39.7 445,213 1919,213 1916,38.5 	"/>
</g>
<g id="thinner_prlgrm_1">
	<polygon class="st8" points="517.5,200.5 509.5,189.5 1915,189.5 1916.5,201.5 	"/>
</g>
<g id="contact">
	<text transform="matrix(1 0 0 1 815.15 170.54)" class="st12 st13 st14">C</text>
	<text transform="matrix(1 0 0 1 859.81 170.54)" class="st12 st13 st14">ON</text>
	<text transform="matrix(1 0 0 1 972.84 170.54)" class="st12 st13 st14 st15">T</text>
	<text transform="matrix(1 0 0 1 1010.52 170.54)" class="st12 st13 st14 st16">A</text>
	<text transform="matrix(1 0 0 1 1060.74 170.54)" class="st12 st13 st14">CT</text>
</g>
<g id="number">
	<text transform="matrix(1 0 0 1 679.58 743.32)" class="st4 st13 st17">Add </text>
	<text transform="matrix(1 0 0 1 823.72 743.32)" class="st4 st13 st17">y</text>
	<text transform="matrix(1 0 0 1 857.29 743.32)" class="st4 st13 st17">our number</text>
</g>
<g id="email_id">
	<text transform="matrix(1 0 0 1 661.06 631.32)" class="st18 st13 st17">Add </text>
	<text transform="matrix(1 0 0 1 809.62 631.32)" class="st18 st13 st17">y</text>
	<text transform="matrix(1 0 0 1 845.02 631.32)" class="st18 st13 st17">our email id</text>
</g>
<g id="website">
	<text transform="matrix(1 0 0 1 685.67 525.32)" class="st4 st13 st17">Add </text>
	<text transform="matrix(1 0 0 1 829.81 525.32)" class="st4 st13 st17">y</text>
	<text transform="matrix(1 0 0 1 863.38 525.32)" class="st4 st13 st17">our </text>
	<text transform="matrix(1 0 0 1 985.7 525.32)" class="st4 st13 st17">w</text>
	<text transform="matrix(1 0 0 1 1036.05 525.32)" class="st4 st13 st17">ebsi</text>
	<text transform="matrix(1 0 0 1 1158.4 525.32)" class="st4 st13 st17">t</text>
	<text transform="matrix(1 0 0 1 1182.22 525.32)" class="st4 st13 st17">e</text>
</g>
</svg>
